<svg xmlns="http://www.w3.org/2000/svg" viewBox="0 0 400 320"><defs><style>.a{fill:#5f6264;}.b{fill:#3d6f7c;}.c{fill:#217990;}.d{fill:#2d7487;}.e{fill:#486a74;}.f{fill:#51676d;}.g{fill:#545759;}.h{fill:#326371;}.i{fill:#166d85;}.j{fill:#22697c;}.k{fill:#3d5f69;}.l{fill:#465c62;}.m{fill:#595c5e;}.n{fill:#376876;}.o{fill:#1b728a;}.p{fill:#286e82;}.q{fill:#42646e;}.r{fill:#4b6167;}.s{fill:#4e5153;}.t{fill:#2c5d6b;}.u{fill:#10677f;}.v{fill:#1d6377;}.w{fill:#375963;}.x{fill:#40565c;}.y{fill:#414446;}.z{fill:#1f505e;}.aa{fill:#045a73;}.ab{fill:#10566a;}.ac{fill:#2a4c56;}.ad{fill:#344950;}.ae{fill:#494c4e;}.af{fill:#275866;}.ag{fill:#0b627a;}.ah{fill:#175e71;}.ai{fill:#32545e;}.aj{fill:#3b5157;}.ak{fill:#3b3e40;}.al{fill:#194b58;}.am{fill:#005369;}.an{fill:#095063;}.ao{fill:#244650;}.ap{fill:#2d4349;}.aq{fill:#2e3233;}.ar{fill:#0c3f4b;}.as{fill:#004353;}.at{fill:#173b43;}.au{fill:#21373d;}.av{fill:#35383a;}.aw{fill:#134452;}.ax{fill:#004a5f;}.ay{fill:#034a5d;}.az{fill:#1e404a;}.ba{fill:#273d43;}.bb{fill:#272b2c;}.bc{fill:#063845;}.bd{fill:#003947;}.be{fill:#003a48;}.bf{fill:#11343d;}.bg{fill:#1a3036;}.bh{fill:#232728;}.bi{fill:#013440;}.bj{fill:#003440;}.bk{fill:#0d3039;}.bl{fill:#162c32;}.bm{fill:#191c1e;}.bn{fill:#002430;}.bo{fill:#002431;}.bp{fill:#03242f;}.bq{fill:#0c2128;}.br{fill:#1f2224;}.bs{fill:#002b39;}.bt{fill:#002c39;}.bu{fill:#002d39;}.bv{fill:#082a34;}.bw{fill:#11272d;}.bx{fill:#141719;}.by{fill:#001e2a;}.bz{fill:#001d28;}.ca{fill:#001d29;}.cb{fill:#001d2a;}.cc{fill:#071b23;}.cd{fill:#9fa2a4;}.ce{fill:#7dafbc;}.cf{fill:#61b9d0;}.cg{fill:#6db4c7;}.ch{fill:#88aab4;}.ci{fill:#91a7ad;}.cj{fill:#949799;}.ck{fill:#72a3b1;}.cl{fill:#56adc5;}.cm{fill:#62a9bc;}.cn{fill:#7d9fa9;}.co{fill:#869ca2;}.cp{fill:#999c9e;}.cq{fill:#77a8b6;}.cr{fill:#5bb2ca;}.cs{fill:#68aec2;}.ct{fill:#82a4ae;}.cu{fill:#8ba1a7;}.cv{fill:#8e9193;}.cw{fill:#6c9dab;}.cx{fill:#50a7bf;}.cy{fill:#5da3b7;}.cz{fill:#7799a3;}.da{fill:#80969c;}.db{fill:#818486;}.dc{fill:#5f909e;}.dd{fill:#449ab3;}.de{fill:#5096aa;}.df{fill:#6a8c96;}.dg{fill:#748990;}.dh{fill:#898c8e;}.di{fill:#6798a6;}.dj{fill:#4ba2ba;}.dk{fill:#579eb1;}.dl{fill:#72949e;}.dm{fill:#7b9197;}.dn{fill:#7b7e80;}.do{fill:#598b98;}.dp{fill:#4093a9;}.dq{fill:#4990a3;}.dr{fill:#648690;}.ds{fill:#6d8389;}.dt{fill:#6e7273;}.du{fill:#4c7f8b;}.dv{fill:#408393;}.dw{fill:#577b83;}.dx{fill:#61777d;}.dy{fill:#75787a;}.dz{fill:#538492;}.ea{fill:#408a9f;}.eb{fill:#438a9d;}.ec{fill:#5e808a;}.ed{fill:#677d83;}.ee{fill:#676b6c;}.ef{fill:#467885;}.eg{fill:#407987;}.eh{fill:#407a88;}.ei{fill:#51747d;}.ej{fill:#5a7076;}.ek{fill:#636768;}.el{fill:#417480;}.em{fill:#407480;}.en{fill:#4d7079;}.eo{fill:#566c72;}.ep,.eq,.er,.es,.et,.eu,.ev,.ew,.ex,.ey,.ez,.fa{fill:none;stroke-miterlimit:10;stroke-width:0.5px;}.ep,.eq{stroke:#e6e7e8;}.ep,.er,.et,.ev,.ex,.ez{stroke-dasharray:1;}.er,.es{stroke:#bbbdbf;}.et,.eu{stroke:#929497;}.ev,.ew{stroke:#6d6e70;}.ex,.ey{stroke:#404041;}.ez,.fa{stroke:#231f20;}.fb{fill:#406470;}.fc{fill:#406471;}.fd{fill:#43646f;}.fe{fill:#4c6168;}.ff{fill:#406b79;}.fg{fill:#406c79;}.fh{fill:#406d79;}.fi{fill:#405e6a;}.fj{fill:#405d68;}.fk{fill:#405d69;}.fl{fill:#405d6a;}.fm{fill:#475b63;}.fn{fill:#404041;}.fo{fill:#f1f1f2;}.fp{fill:#bbbdbf;}.fq{fill:#d0d2d3;}</style></defs><title>scrat-screenaligned-triangle</title><rect class="a" x="8" y="118.1099" width="13.7132" height="13.7145"/><rect class="b" x="8" y="104.395" width="13.7132" height="13.7149"/><rect class="c" x="21.7132" y="90.6799" width="13.7145" height="13.7151"/><rect class="d" x="8" y="90.6799" width="13.7132" height="13.7151"/><rect class="e" x="21.7132" y="104.395" width="13.7145" height="13.7149"/><rect class="f" x="21.7132" y="118.1099" width="13.7145" height="13.7145"/><rect class="g" x="62.8542" y="118.1099" width="13.7156" height="13.7145"/><rect class="h" x="62.8542" y="104.395" width="13.7156" height="13.7149"/><rect class="i" x="76.5698" y="90.6799" width="13.7145" height="13.7151"/><rect class="j" x="62.8542" y="90.6799" width="13.7156" height="13.7151"/><rect class="k" x="76.5698" y="104.395" width="13.7145" height="13.7149"/><rect class="l" x="76.5698" y="118.1099" width="13.7145" height="13.7145"/><rect class="m" x="35.4277" y="118.1099" width="13.7144" height="13.7145"/><rect class="n" x="35.4277" y="104.395" width="13.7144" height="13.7149"/><rect class="o" x="49.1421" y="90.6799" width="13.7121" height="13.7151"/><rect class="p" x="35.4277" y="90.6799" width="13.7144" height="13.7151"/><rect class="q" x="49.1421" y="104.395" width="13.7121" height="13.7149"/><rect class="r" x="49.1421" y="118.1099" width="13.7121" height="13.7145"/><rect class="s" x="90.2843" y="118.1099" width="13.7157" height="13.7145"/><rect class="t" x="90.2843" y="104.395" width="13.7157" height="13.7149"/><rect class="u" x="104" y="90.6799" width="13.7109" height="13.7151"/><rect class="v" x="90.2843" y="90.6799" width="13.7157" height="13.7151"/><rect class="w" x="104" y="104.395" width="13.7109" height="13.7149"/><rect class="x" x="104" y="118.1099" width="13.7109" height="13.7145"/><rect class="y" x="145.1433" y="118.1099" width="13.7133" height="13.7145"/><rect class="z" x="145.1433" y="104.395" width="13.7133" height="13.7149"/><rect class="aa" x="158.8566" y="90.6799" width="13.7132" height="13.7151"/><rect class="ab" x="145.1433" y="90.6799" width="13.7133" height="13.7151"/><rect class="ac" x="158.8566" y="104.395" width="13.7132" height="13.7149"/><rect class="ad" x="158.8566" y="118.1099" width="13.7132" height="13.7145"/><rect class="ae" x="117.7109" y="118.1099" width="13.7168" height="13.7145"/><rect class="af" x="117.7109" y="104.395" width="13.7168" height="13.7149"/><rect class="ag" x="131.4277" y="90.6799" width="13.7156" height="13.7151"/><rect class="ah" x="117.7109" y="90.6799" width="13.7168" height="13.7151"/><rect class="ai" x="131.4277" y="104.395" width="13.7156" height="13.7149"/><rect class="aj" x="131.4277" y="118.1099" width="13.7156" height="13.7145"/><rect class="ak" x="172.5698" y="118.1099" width="13.7134" height="13.7145"/><rect class="al" x="172.5698" y="104.395" width="13.7134" height="13.7149"/><rect class="am" x="186.2832" y="90.6799" width="13.7144" height="13.7151"/><rect class="an" x="172.5698" y="90.6799" width="13.7134" height="13.7151"/><rect class="ao" x="186.2832" y="104.395" width="13.7144" height="13.7149"/><rect class="ap" x="186.2832" y="118.1099" width="13.7144" height="13.7145"/><rect class="aq" x="227.4253" y="118.1099" width="13.7157" height="13.7145"/><rect class="ar" x="227.4253" y="104.395" width="13.7157" height="13.7149"/><rect class="as" x="241.141" y="90.6799" width="13.712" height="13.7151"/><rect class="as" x="227.4253" y="90.6799" width="13.7157" height="13.7151"/><rect class="at" x="241.141" y="104.395" width="13.712" height="13.7149"/><rect class="au" x="241.141" y="118.1099" width="13.712" height="13.7145"/><rect class="av" x="199.9976" y="118.1099" width="13.7156" height="13.7145"/><rect class="aw" x="199.9976" y="104.395" width="13.7156" height="13.7149"/><rect class="ax" x="213.7132" y="90.6799" width="13.7121" height="13.7151"/><rect class="ay" x="199.9976" y="90.6799" width="13.7156" height="13.7151"/><rect class="az" x="213.7132" y="104.395" width="13.7121" height="13.7149"/><rect class="ba" x="213.7132" y="118.1099" width="13.7121" height="13.7145"/><rect class="bb" x="254.853" y="118.1099" width="13.7157" height="13.7145"/><rect class="bc" x="254.853" y="104.395" width="13.7157" height="13.7149"/><rect class="bd" x="268.5687" y="90.6799" width="13.7144" height="13.7151"/><rect class="be" x="254.853" y="90.6799" width="13.7157" height="13.7151"/><rect class="bf" x="268.5687" y="104.395" width="13.7144" height="13.7149"/><rect class="bg" x="268.5687" y="118.1099" width="13.7144" height="13.7145"/><rect class="bh" x="282.2831" y="118.1099" width="13.7133" height="13.7145"/><rect class="bi" x="282.2831" y="104.395" width="13.7133" height="13.7149"/><rect class="bj" x="295.9964" y="90.6799" width="13.7169" height="13.7151"/><rect class="bj" x="282.2831" y="90.6799" width="13.7133" height="13.7151"/><rect class="bk" x="295.9964" y="104.395" width="13.7169" height="13.7149"/><rect class="bl" x="295.9964" y="118.1099" width="13.7169" height="13.7145"/><rect class="bm" x="337.1398" y="118.1099" width="13.7144" height="13.7145"/><rect class="bn" x="337.1398" y="104.395" width="13.7144" height="13.7149"/><rect class="bo" x="350.8542" y="90.6799" width="13.7133" height="13.7151"/><rect class="bo" x="337.1398" y="90.6799" width="13.7144" height="13.7151"/><rect class="bp" x="350.8542" y="104.395" width="13.7133" height="13.7149"/><rect class="bq" x="350.8542" y="118.1099" width="13.7133" height="13.7145"/><rect class="br" x="309.7133" y="118.1099" width="13.7144" height="13.7145"/><rect class="bs" x="309.7133" y="104.395" width="13.7144" height="13.7149"/><rect class="bt" x="323.4277" y="90.6799" width="13.7121" height="13.7151"/><rect class="bu" x="309.7133" y="90.6799" width="13.7144" height="13.7151"/><rect class="bv" x="323.4277" y="104.395" width="13.7121" height="13.7149"/><rect class="bw" x="323.4277" y="118.1099" width="13.7121" height="13.7145"/><rect class="bx" x="364.5652" y="118.1099" width="13.7144" height="13.7145"/><rect class="by" x="364.5652" y="104.395" width="13.7144" height="13.7149"/><rect class="bz" x="378.2796" y="90.6799" width="13.7145" height="13.7151"/><rect class="ca" x="364.5652" y="90.6799" width="13.7144" height="13.7151"/><rect class="cb" x="378.2796" y="104.395" width="13.7145" height="13.7149"/><rect class="cc" x="378.2796" y="118.1099" width="13.7145" height="13.7145"/><rect class="cd" x="8" y="159.2544" width="13.7132" height="13.7145"/><rect class="ce" x="8" y="145.5395" width="13.7132" height="13.7149"/><rect class="cf" x="21.7132" y="131.8244" width="13.7145" height="13.7151"/><rect class="cg" x="8" y="131.8244" width="13.7132" height="13.7151"/><rect class="ch" x="21.7132" y="145.5395" width="13.7145" height="13.7149"/><rect class="ci" x="21.7132" y="159.2544" width="13.7145" height="13.7145"/><rect class="cj" x="62.8542" y="159.2544" width="13.7156" height="13.7145"/><rect class="ck" x="62.8542" y="145.5395" width="13.7156" height="13.7149"/><rect class="cl" x="76.5698" y="131.8244" width="13.7145" height="13.7151"/><rect class="cm" x="62.8542" y="131.8244" width="13.7156" height="13.7151"/><rect class="cn" x="76.5698" y="145.5395" width="13.7145" height="13.7149"/><rect class="co" x="76.5698" y="159.2544" width="13.7145" height="13.7145"/><rect class="cp" x="35.4277" y="159.2544" width="13.7144" height="13.7145"/><rect class="cq" x="35.4277" y="145.5395" width="13.7144" height="13.7149"/><rect class="cr" x="49.1421" y="131.8244" width="13.7121" height="13.7151"/><rect class="cs" x="35.4277" y="131.8244" width="13.7144" height="13.7151"/><rect class="ct" x="49.1421" y="145.5395" width="13.7121" height="13.7149"/><rect class="cu" x="49.1421" y="159.2544" width="13.7121" height="13.7145"/><rect class="cv" x="90.2843" y="159.2544" width="13.7157" height="13.7145"/><rect class="cw" x="90.2843" y="145.5395" width="13.7157" height="13.7149"/><rect class="cx" x="104" y="131.8244" width="13.7109" height="13.7151"/><rect class="cy" x="90.2843" y="131.8244" width="13.7157" height="13.7151"/><rect class="cz" x="104" y="145.5395" width="13.7109" height="13.7149"/><rect class="da" x="104" y="159.2544" width="13.7109" height="13.7145"/><rect class="db" x="145.1433" y="159.2544" width="13.7133" height="13.7145"/><rect class="dc" x="145.1433" y="145.5395" width="13.7133" height="13.7149"/><rect class="dd" x="158.8566" y="131.8244" width="13.7132" height="13.7151"/><rect class="de" x="145.1433" y="131.8244" width="13.7133" height="13.7151"/><rect class="df" x="158.8566" y="145.5395" width="13.7132" height="13.7149"/><rect class="dg" x="158.8566" y="159.2544" width="13.7132" height="13.7145"/><rect class="dh" x="117.7109" y="159.2544" width="13.7168" height="13.7145"/><rect class="di" x="117.7109" y="145.5395" width="13.7168" height="13.7149"/><rect class="dj" x="131.4277" y="131.8244" width="13.7156" height="13.7151"/><rect class="dk" x="117.7109" y="131.8244" width="13.7168" height="13.7151"/><rect class="dl" x="131.4277" y="145.5395" width="13.7156" height="13.7149"/><rect class="dm" x="131.4277" y="159.2544" width="13.7156" height="13.7145"/><rect class="dn" x="172.5698" y="159.2544" width="13.7134" height="13.7145"/><rect class="do" x="172.5698" y="145.5395" width="13.7134" height="13.7149"/><rect class="dp" x="186.2832" y="131.8244" width="13.7144" height="13.7151"/><rect class="dq" x="172.5698" y="131.8244" width="13.7134" height="13.7151"/><rect class="dr" x="186.2832" y="145.5395" width="13.7144" height="13.7149"/><rect class="ds" x="186.2832" y="159.2544" width="13.7144" height="13.7145"/><rect class="dt" x="227.4253" y="159.2544" width="13.7157" height="13.7145"/><rect class="du" x="227.4253" y="145.5395" width="13.7157" height="13.7149"/><rect class="dv" x="241.141" y="131.8244" width="13.712" height="13.7151"/><rect class="dv" x="227.4253" y="131.8244" width="13.7157" height="13.7151"/><rect class="dw" x="241.141" y="145.5395" width="13.712" height="13.7149"/><rect class="dx" x="241.141" y="159.2544" width="13.712" height="13.7145"/><rect class="dy" x="199.9976" y="159.2544" width="13.7156" height="13.7145"/><rect class="dz" x="199.9976" y="145.5395" width="13.7156" height="13.7149"/><rect class="ea" x="213.7132" y="131.8244" width="13.7121" height="13.7151"/><rect class="eb" x="199.9976" y="131.8244" width="13.7156" height="13.7151"/><rect class="ec" x="213.7132" y="145.5395" width="13.7121" height="13.7149"/><rect class="ed" x="213.7132" y="159.2544" width="13.7121" height="13.7145"/><rect class="ee" x="254.853" y="159.2544" width="13.7157" height="13.7145"/><rect class="ef" x="254.853" y="145.5395" width="13.7157" height="13.7149"/><rect class="eg" x="268.5687" y="131.8244" width="13.7144" height="13.7151"/><rect class="eh" x="254.853" y="131.8244" width="13.7157" height="13.7151"/><rect class="ei" x="268.5687" y="145.5395" width="13.7144" height="13.7149"/><rect class="ej" x="268.5687" y="159.2544" width="13.7144" height="13.7145"/><rect class="ek" x="282.2831" y="159.2544" width="13.7133" height="13.7145"/><rect class="el" x="282.2831" y="145.5395" width="13.7133" height="13.7149"/><rect class="em" x="295.9964" y="131.8244" width="13.7169" height="13.7151"/><rect class="em" x="282.2831" y="131.8244" width="13.7133" height="13.7151"/><rect class="en" x="295.9964" y="145.5395" width="13.7169" height="13.7149"/><rect class="eo" x="295.9964" y="159.2544" width="13.7169" height="13.7145"/><line class="ep" x1="227.4253" y1="35.8209" x2="254.853" y2="35.8209"/><line class="ep" x1="227.4253" y1="22.106" x2="254.853" y2="22.106"/><line class="ep" x1="241.141" y1="8.3909" x2="241.141" y2="49.5354"/><rect class="eq" x="227.4253" y="8.3909" width="27.4277" height="41.1445"/><line class="er" x1="254.8548" y1="35.8209" x2="282.2825" y2="35.8209"/><line class="er" x1="254.8548" y1="22.106" x2="282.2825" y2="22.106"/><line class="er" x1="268.5705" y1="8.3909" x2="268.5705" y2="49.5354"/><rect class="es" x="254.8548" y="8.3909" width="27.4277" height="41.1445"/><line class="et" x1="282.2853" y1="35.8209" x2="309.713" y2="35.8209"/><line class="et" x1="282.2853" y1="22.106" x2="309.713" y2="22.106"/><line class="et" x1="296.001" y1="8.3909" x2="296.001" y2="49.5354"/><rect class="eu" x="282.2853" y="8.3909" width="27.4277" height="41.1445"/><line class="ev" x1="309.7137" y1="35.8209" x2="337.1414" y2="35.8209"/><line class="ev" x1="309.7137" y1="22.106" x2="337.1414" y2="22.106"/><line class="ev" x1="323.4294" y1="8.3909" x2="323.4294" y2="49.5354"/><rect class="ew" x="309.7137" y="8.3909" width="27.4277" height="41.1445"/><line class="ex" x1="337.1407" y1="35.8209" x2="364.5684" y2="35.8209"/><line class="ex" x1="337.1407" y1="22.106" x2="364.5684" y2="22.106"/><line class="ex" x1="350.8564" y1="8.3909" x2="350.8564" y2="49.5354"/><rect class="ey" x="337.1407" y="8.3909" width="27.4277" height="41.1445"/><line class="ez" x1="364.5657" y1="35.8209" x2="391.9934" y2="35.8209"/><line class="ez" x1="364.5657" y1="22.106" x2="391.9934" y2="22.106"/><line class="ez" x1="378.2814" y1="8.3909" x2="378.2814" y2="49.5354"/><rect class="fa" x="364.5657" y="8.3909" width="27.4277" height="41.1445"/><line class="ep" x1="172.5728" y1="227.829" x2="145.1451" y2="227.829"/><line class="ep" x1="172.5728" y1="241.5439" x2="145.1451" y2="241.5439"/><line class="ep" x1="158.8571" y1="255.259" x2="158.8571" y2="214.1145"/><rect class="eq" x="145.1451" y="214.1145" width="27.4277" height="41.1445" transform="translate(317.7179 469.3735) rotate(180)"/><line class="er" x1="145.1433" y1="227.829" x2="117.7156" y2="227.829"/><line class="er" x1="145.1433" y1="241.5439" x2="117.7156" y2="241.5439"/><line class="er" x1="131.4276" y1="255.259" x2="131.4276" y2="214.1145"/><rect class="es" x="117.7156" y="214.1145" width="27.4277" height="41.1445" transform="translate(262.8589 469.3735) rotate(180)"/><line class="et" x1="117.7129" y1="227.829" x2="90.2852" y2="227.829"/><line class="et" x1="117.7129" y1="241.5439" x2="90.2852" y2="241.5439"/><line class="et" x1="103.9972" y1="255.259" x2="103.9972" y2="214.1145"/><rect class="eu" x="90.2852" y="214.1145" width="27.4277" height="41.1445" transform="translate(207.9981 469.3735) rotate(180)"/><line class="ev" x1="90.2844" y1="227.829" x2="62.8567" y2="227.829"/><line class="ev" x1="90.2844" y1="241.5439" x2="62.8567" y2="241.5439"/><line class="ev" x1="76.5687" y1="255.259" x2="76.5687" y2="214.1145"/><rect class="ew" x="62.8567" y="214.1145" width="27.4277" height="41.1445" transform="translate(153.1411 469.3735) rotate(180)"/><line class="ex" x1="62.8575" y1="227.829" x2="35.4298" y2="227.829"/><line class="ex" x1="62.8575" y1="241.5439" x2="35.4298" y2="241.5439"/><line class="ex" x1="49.1418" y1="255.259" x2="49.1418" y2="214.1145"/><rect class="ey" x="35.4298" y="214.1145" width="27.4277" height="41.1445" transform="translate(98.2873 469.3735) rotate(180)"/><line class="ez" x1="35.4324" y1="227.829" x2="8.0047" y2="227.829"/><line class="ez" x1="35.4324" y1="241.5439" x2="8.0047" y2="241.5439"/><line class="ez" x1="21.7167" y1="255.259" x2="21.7167" y2="214.1145"/><rect class="fa" x="8.0047" y="214.1145" width="27.4277" height="41.1445" transform="translate(43.4371 469.3735) rotate(180)"/><rect class="m" x="337.1398" y="159.2544" width="13.7144" height="13.7145"/><rect class="fb" x="337.1398" y="145.5395" width="13.7144" height="13.7149"/><rect class="fc" x="350.8542" y="131.8244" width="13.7133" height="13.7151"/><rect class="fc" x="337.1398" y="131.8244" width="13.7144" height="13.7151"/><rect class="fd" x="350.8542" y="145.5395" width="13.7133" height="13.7149"/><rect class="fe" x="350.8542" y="159.2544" width="13.7133" height="13.7145"/><rect class="a" x="309.7133" y="159.2544" width="13.7144" height="13.7145"/><rect class="ff" x="309.7133" y="145.5395" width="13.7144" height="13.7149"/><rect class="fg" x="323.4277" y="131.8244" width="13.7121" height="13.7151"/><rect class="fh" x="309.7133" y="131.8244" width="13.7144" height="13.7151"/><rect class="e" x="323.4277" y="145.5395" width="13.7121" height="13.7149"/><rect class="f" x="323.4277" y="159.2544" width="13.7121" height="13.7145"/><rect class="g" x="364.5652" y="159.2544" width="13.7144" height="13.7145"/><rect class="fi" x="364.5652" y="145.5395" width="13.7144" height="13.7149"/><rect class="fj" x="378.2796" y="131.8244" width="13.7145" height="13.7151"/><rect class="fk" x="364.5652" y="131.8244" width="13.7144" height="13.7151"/><rect class="fl" x="378.2796" y="145.5395" width="13.7145" height="13.7149"/><rect class="fm" x="378.2796" y="159.2544" width="13.7145" height="13.7145"/><path class="fn" d="M265.1235,319.0778h-130.55a6.5535,6.5535,0,0,1-3.1583-.8113l-2.51-1.3806H270.79l-2.5059,1.38A6.5523,6.5523,0,0,1,265.1235,319.0778Z"/><path class="fo" d="M269.2518,317.4774H130.5066c-.69,0-1.7117,0-1.7117-1.149v-1.18H270.9034v1.18C270.9034,317.4774,269.8432,317.4774,269.2518,317.4774Z"/><path class="fp" d="M269.2518,315.8392H130.5066c-.69,0-2.1767,0-1.5688-1.149l3.9193-8.9075a.819.819,0,0,1,.75-.4892H266.1515a.819.819,0,0,1,.75.4892l3.9194,8.9075C271.259,315.8392,269.8432,315.8392,269.2518,315.8392Z"/><path class="fq" d="M208.5308,272.4617v3.447a7.4474,7.4474,0,0,1-7.3718,7.5208h-2.56a7.4473,7.4473,0,0,1-7.3718-7.5208v-3.447H173.566v35.289h52.4216v-35.289Z"/><path d="M396.1714,1.7412H3.8286A2.4573,2.4573,0,0,0,1.3713,4.1985V260.2692H398.6287V4.1985A2.4573,2.4573,0,0,0,396.1714,1.7412Zm-.8191,256.89H4.6477V5.0176H395.3523Z"/><path class="fn" d="M396.5809.9222H3.4191A2.8668,2.8668,0,0,0,.5523,3.789V269.5949a2.8668,2.8668,0,0,0,2.8668,2.8668H396.5809a2.8668,2.8668,0,0,0,2.8668-2.8668V3.789A2.8668,2.8668,0,0,0,396.5809.9222Zm2.0478,259.347H1.3713V4.1985A2.4573,2.4573,0,0,1,3.8286,1.7412H396.1714a2.4573,2.4573,0,0,1,2.4573,2.4573Z"/></svg>