<svg xmlns="http://www.w3.org/2000/svg" viewBox="0 0 400 320"><defs><style>.a{fill:#231f20;}.b{fill:#404041;}.c{fill:#f1f1f2;}.d{fill:#bbbdbf;}.e{fill:#d0d2d3;}.f,.g,.h{fill:none;stroke-linecap:round;stroke-miterlimit:10;}.f{stroke:#231f20;}.g,.h{stroke:#929497;}.h{stroke-dasharray:4.0097 4.0097;}.i{fill:#929497;}</style></defs><title>scrat-approach-rectext</title><path class="a" d="M210.6191,117.4644H3.2764a2.4573,2.4573,0,0,0-2.4573,2.4573V260.2692H213.0764V119.9217A2.4572,2.4572,0,0,0,210.6191,117.4644ZM209.8,258.6311H4.0955v-137.89H209.8Z"/><path class="b" d="M211.0287,116.6453H2.8668A2.8669,2.8669,0,0,0,0,119.5121V269.5949a2.8668,2.8668,0,0,0,2.8668,2.8668H211.0287a2.8669,2.8669,0,0,0,2.8668-2.8668V119.5121A2.8669,2.8669,0,0,0,211.0287,116.6453Zm2.0477,143.6239H.8191V119.9217a2.4573,2.4573,0,0,1,2.4573-2.4573H210.6191a2.4572,2.4572,0,0,1,2.4573,2.4573Z"/><path class="b" d="M172.2236,319.0778H41.6738a6.5535,6.5535,0,0,1-3.1583-.8113l-2.51-1.3806H177.89l-2.5059,1.38A6.5523,6.5523,0,0,1,172.2236,319.0778Z"/><path class="c" d="M176.35,317.4774H37.6051c-.69,0-1.7117,0-1.7117-1.149v-1.18H178.002v1.18C178.002,317.4774,176.9417,317.4774,176.35,317.4774Z"/><path class="d" d="M176.35,315.8392H37.6051c-.69,0-2.1767,0-1.5688-1.149l3.9194-8.9075a.8191.8191,0,0,1,.75-.4893H173.25a.8193.8193,0,0,1,.75.4893l3.9193,8.9075C178.3576,315.8392,176.9417,315.8392,176.35,315.8392Z"/><path class="e" d="M115.7017,272.4617v3.447A7.4475,7.4475,0,0,1,108.33,283.43h-2.56a7.4474,7.4474,0,0,1-7.3718-7.5208v-3.447H80.7369v35.289h52.4216v-35.289Z"/><path class="a" d="M22.76,224.8541H25.961v.58H23.46v16.0439h2.501v.58H22.76Z"/><path class="a" d="M31.18,233.6363h4.4v.78h-4.4Z"/><path class="a" d="M38.0391,238.2369H41.04V227.6344H38.76v-.6a7.6975,7.6975,0,0,0,2.46-.8008h.7207v12.0029h2.78v.78H38.0391Z"/><path class="a" d="M46.9,241.5182a2.7052,2.7052,0,0,0,1.54-2.4209.9992.9992,0,0,1-.24.02.7969.7969,0,0,1-.84-.84.8236.8236,0,0,1,.86-.84c.6006,0,1.02.54,1.02,1.42a3.6858,3.6858,0,0,1-2.06,3.2608Z"/><path class="a" d="M55.1192,233.6363h4.4014v.78H55.1192Z"/><path class="a" d="M61.9786,238.2369H64.98V227.6344h-2.28v-.6a7.6982,7.6982,0,0,0,2.46-.8008H65.88v12.0029h2.78v.78H61.9786Z"/><path class="a" d="M74.2989,241.4781h2.5V225.4342h-2.5v-.58h3.2v17.2041h-3.2Z"/><path class="a" d="M134.1974,137.1119h3.2011v.58h-2.501v16.0439h2.501v.58h-3.2011Z"/><path class="a" d="M146.1974,145.0533h-3.7v-.76h3.7V140.273h.82v4.0206h3.7011v.76h-3.7011v4.0215h-.82Z"/><path class="a" d="M153.0772,150.4947h3.001V139.8922H153.797v-.6a7.7043,7.7043,0,0,0,2.4609-.8008h.72v12.0029h2.7813v.78h-6.6817Z"/><path class="a" d="M161.9366,153.776a2.7051,2.7051,0,0,0,1.54-2.4209.9992.9992,0,0,1-.24.0195.797.797,0,0,1-.84-.84.8236.8236,0,0,1,.86-.84c.6006,0,1.02.54,1.02,1.42a3.6858,3.6858,0,0,1-2.06,3.2608Z"/><path class="a" d="M173.7374,145.0533h-3.7012v-.76h3.7012V140.273h.82v4.0206h3.7v.76h-3.7v4.0215h-.82Z"/><path class="a" d="M180.6163,150.4947h3.001V139.8922H181.336v-.6a7.705,7.705,0,0,0,2.461-.8008h.72v12.0029h2.7812v.78h-6.6816Z"/><path class="a" d="M192.9356,153.7359h2.501V137.692h-2.501v-.58h3.2012V154.316h-3.2012Z"/><line class="f" x1="10.7993" y1="127.4451" x2="200.603" y2="247.1996"/><polygon class="a" points="197.377 248.599 208.096 251.927 200.477 243.685 197.377 248.599"/><line class="f" x1="10.7993" y1="251.927" x2="10.7993" y2="138.3044"/><polygon class="a" points="13.704 140.286 10.799 129.445 7.894 140.286 13.704 140.286"/><line class="g" x1="205.0957" y1="251.927" x2="203.0957" y2="251.927"/><line class="h" x1="199.086" y1="251.927" x2="24.6635" y2="251.927"/><line class="g" x1="22.6586" y1="251.927" x2="20.6586" y2="251.927"/><polygon class="i" points="22.64 249.022 11.799 251.927 22.64 254.832 22.64 249.022"/></svg>