<svg xmlns="http://www.w3.org/2000/svg" xmlns:xlink="http://www.w3.org/1999/xlink" viewBox="0 0 400 187"><defs><style>.a,.hh,.hi,.hz,.ia,.ib{fill:none;}.b{clip-path:url(#a);}.c{fill:#a4a4a4;}.d{fill:#bcbcbc;}.e{fill:#d0d0d0;}.f{fill:#c7c7c7;}.g{fill:#b4b4b4;}.h{fill:#adadad;}.i{fill:#999;}.j{fill:#b1b1b1;}.k{fill:#c5c5c5;}.l{fill:#a9a9a9;}.m{fill:#a2a2a2;}.n{fill:#9e9e9e;}.o{fill:#b6b6b6;}.p{fill:#cacaca;}.q{fill:#c2c2c2;}.r{fill:#aeaeae;}.s{fill:#a7a7a7;}.t{fill:#939393;}.u{fill:#ababab;}.v{fill:#bfbfbf;}.w{fill:#b7b7b7;}.x{fill:#a3a3a3;}.y{fill:#9c9c9c;}.z{fill:#8e8e8e;}.aa{fill:#a6a6a6;}.ab{fill:#bababa;}.ac{fill:#979797;}.ad{fill:#868686;}.ae{fill:#b3b3b3;}.af{fill:#aaa;}.ag{fill:#969696;}.ah{fill:#909090;}.ai{fill:gray;}.aj{fill:#989898;}.ak{fill:#898989;}.al{fill:#737373;}.am{fill:#8b8b8b;}.an{fill:#838383;}.ao{fill:#7d7d7d;}.ap{fill:#7a7a7a;}.aq{fill:#929292;}.ar{fill:#9f9f9f;}.as{fill:#9d9d9d;}.at{fill:#8a8a8a;}.au{fill:#6c6c6c;}.av{fill:#858585;}.aw{fill:#878787;}.ax{fill:#888;}.ay{fill:#767676;}.az{fill:#686868;}.ba{fill:#797979;}.bb{fill:#727272;}.bc{fill:#646464;}.bd{fill:#747474;}.be{fill:#6d6d6d;}.bf{fill:#5e5e5e;}.bg{fill:#707070;}.bh{fill:#717171;}.bi{fill:#6f6f6f;}.bj{fill:#595959;}.bk{fill:#6a6a6a;}.bl{fill:#696969;}.bm{fill:#636363;}.bn{clip-path:url(#b);}.bo{fill:#9fa2a4;}.bp{fill:#7dafbc;}.bq{fill:#61b9d0;}.br{fill:#6db4c7;}.bs{fill:#88aab4;}.bt{fill:#91a7ad;}.bu{fill:#949799;}.bv{fill:#72a3b1;}.bw{fill:#56adc5;}.bx{fill:#62a9bc;}.by{fill:#7d9fa9;}.bz{fill:#869ca2;}.ca{fill:#999c9e;}.cb{fill:#77a8b6;}.cc{fill:#5bb2ca;}.cd{fill:#68aec2;}.ce{fill:#82a4ae;}.cf{fill:#8ba1a7;}.cg{fill:#8e9193;}.ch{fill:#6c9dab;}.ci{fill:#50a7bf;}.cj{fill:#5da3b7;}.ck{fill:#7799a3;}.cl{fill:#80969c;}.cm{fill:#898c8e;}.cn{fill:#6798a6;}.co{fill:#4ba2ba;}.cp{fill:#579eb1;}.cq{fill:#72949e;}.cr{fill:#7b9197;}.cs{fill:#818486;}.ct{fill:#5f909e;}.cu{fill:#449ab3;}.cv{fill:#5096aa;}.cw{fill:#6a8c96;}.cx{fill:#748990;}.cy{fill:#7b7e80;}.cz{fill:#598b98;}.da{fill:#4093a9;}.db{fill:#4990a3;}.dc{fill:#648690;}.dd{fill:#6d8389;}.de{fill:#6e7273;}.df{fill:#4c7f8b;}.dg{fill:#408393;}.dh{fill:#577b83;}.di{fill:#61777d;}.dj{fill:#75787a;}.dk{fill:#538492;}.dl{fill:#408a9f;}.dm{fill:#438a9d;}.dn{fill:#5e808a;}.do{fill:#677d83;}.dp{fill:#676b6c;}.dq{fill:#467885;}.dr{fill:#407987;}.ds{fill:#407a88;}.dt{fill:#51747d;}.du{fill:#5a7076;}.dv{fill:#636768;}.dw{fill:#417480;}.dx{fill:#407480;}.dy{fill:#4d7079;}.dz{fill:#566c72;}.ea{fill:#5f6264;}.eb{fill:#406b79;}.ec{fill:#406c79;}.ed{fill:#406d79;}.ee{fill:#486a74;}.ef{fill:#51676d;}.eg{fill:#595c5e;}.eh{fill:#406470;}.ei{fill:#406471;}.ej{fill:#43646f;}.ek{fill:#4c6168;}.el{fill:#545759;}.em{fill:#405e6a;}.en{fill:#405d68;}.eo{fill:#405d69;}.ep{fill:#405d6a;}.eq{fill:#475b63;}.er{clip-path:url(#c);}.es{fill:#002430;}.et{fill:#002431;}.eu{fill:#03242f;}.ev{fill:#002c39;}.ew{fill:#141719;}.ex{fill:#001e2a;}.ey{fill:#001d28;}.ez{fill:#001d29;}.fa{fill:#001d2a;}.fb{fill:#071b23;}.fc{fill:#003947;}.fd{fill:#003a48;}.fe{fill:#013440;}.ff{fill:#003440;}.fg{fill:#0d3039;}.fh{fill:#162c32;}.fi{fill:#1f2224;}.fj{fill:#002b39;}.fk{fill:#002d39;}.fl{fill:#082a34;}.fm{fill:#11272d;}.fn{fill:#0c3f4b;}.fo{fill:#004353;}.fp{fill:#173b43;}.fq{fill:#21373d;}.fr{fill:#004a5f;}.fs{fill:#034a5d;}.ft{fill:#1e404a;}.fu{fill:#272b2c;}.fv{fill:#063845;}.fw{fill:#11343d;}.fx{fill:#1a3036;}.fy{fill:#1f505e;}.fz{fill:#045a73;}.ga{fill:#10566a;}.gb{fill:#2a4c56;}.gc{fill:#0b627a;}.gd{fill:#3b3e40;}.ge{fill:#194b58;}.gf{fill:#005369;}.gg{fill:#095063;}.gh{fill:#244650;}.gi{fill:#2d4349;}.gj{fill:#166d85;}.gk{fill:#22697c;}.gl{fill:#2c5d6b;}.gm{fill:#10677f;}.gn{fill:#1d6377;}.go{fill:#375963;}.gp{fill:#40565c;}.gq{fill:#494c4e;}.gr{fill:#275866;}.gs{fill:#175e71;}.gt{fill:#32545e;}.gu{fill:#3b5157;}.gv{fill:#217990;}.gw{fill:#2d7487;}.gx{fill:#326371;}.gy{fill:#3d5f69;}.gz{fill:#465c62;}.ha{fill:#376876;}.hb{fill:#1b728a;}.hc{fill:#286e82;}.hd{fill:#42646e;}.he{fill:#4b6167;}.hf{clip-path:url(#d);}.hg{fill:#231f20;}.hh,.hz,.ia,.ib{stroke:#fff;}.hh,.hi,.hz,.ia,.ib{stroke-miterlimit:10;}.hh{stroke-width:4px;}.hi{stroke:#231f20;}.hj{fill:#d0d2d3;}.hk{fill:#064b5f;}.hl{fill:#123a44;}.hm{fill:#014355;}.hn{fill:#07404f;}.ho{fill:#19343c;}.hp{fill:#146d87;}.hq{fill:#14667e;}.hr{fill:#355e6a;}.hs{fill:#14748e;}.ht{fill:#205c6c;}.hu{fill:#146277;}.hv{fill:#1b5869;}.hw{fill:#215260;}.hx{fill:#22454e;}.hy{fill:#1a4c59;}.ia{stroke-dasharray:8.0005 8.0005;}.ib{stroke-width:2px;}</style><clipPath id="a"><polygon class="a" points="0.759 73.142 0.759 148.459 117.913 148.459 0.759 73.142"/></clipPath><clipPath id="b"><polygon class="a" points="0.765 110.801 117.919 186.118 0.765 186.118 0.765 110.801"/></clipPath><clipPath id="c"><polygon class="a" points="117.92 148.459 0.766 73.142 117.92 73.142 117.92 148.459"/></clipPath><clipPath id="d"><polygon class="a" points="117.919 186.118 117.92 110.801 0.765 110.801 117.919 186.118"/></clipPath></defs><title>scrat-rasterization-right</title><g class="b"><rect class="c" x="0.7581" y="81.5108" width="4.1838" height="4.1841"/><rect class="d" x="0.7581" y="77.3264" width="4.1838" height="4.1844"/><rect class="e" x="4.9419" y="73.1421" width="4.1842" height="4.1843"/><rect class="f" x="0.7581" y="73.1421" width="4.1838" height="4.1843"/><rect class="g" x="4.9419" y="77.3264" width="4.1842" height="4.1844"/><rect class="h" x="4.9419" y="81.5108" width="4.1842" height="4.1841"/><rect class="i" x="17.4937" y="81.5108" width="4.1846" height="4.1841"/><rect class="j" x="17.4937" y="77.3264" width="4.1846" height="4.1844"/><rect class="k" x="21.6783" y="73.1421" width="4.1842" height="4.1843"/><rect class="d" x="17.4937" y="73.1421" width="4.1846" height="4.1843"/><rect class="l" x="21.6783" y="77.3264" width="4.1842" height="4.1844"/><rect class="m" x="21.6783" y="81.5108" width="4.1842" height="4.1841"/><rect class="n" x="9.1261" y="81.5108" width="4.1842" height="4.1841"/><rect class="o" x="9.1261" y="77.3264" width="4.1842" height="4.1844"/><rect class="p" x="13.3103" y="73.1421" width="4.1834" height="4.1843"/><rect class="q" x="9.1261" y="73.1421" width="4.1842" height="4.1843"/><rect class="r" x="13.3103" y="77.3264" width="4.1834" height="4.1844"/><rect class="s" x="13.3103" y="81.5108" width="4.1834" height="4.1841"/><rect class="i" x="17.4937" y="94.0636" width="4.1846" height="4.1842"/><rect class="j" x="17.4937" y="89.8793" width="4.1846" height="4.1843"/><rect class="k" x="21.6783" y="85.6949" width="4.1842" height="4.1844"/><rect class="d" x="17.4937" y="85.6949" width="4.1846" height="4.1844"/><rect class="l" x="21.6783" y="89.8793" width="4.1842" height="4.1843"/><rect class="m" x="21.6783" y="94.0636" width="4.1842" height="4.1842"/><rect class="t" x="25.8625" y="94.0636" width="4.1845" height="4.1842"/><rect class="u" x="25.8625" y="89.8793" width="4.1845" height="4.1843"/><rect class="v" x="30.047" y="85.6949" width="4.1831" height="4.1844"/><rect class="w" x="25.8625" y="85.6949" width="4.1845" height="4.1844"/><rect class="x" x="30.047" y="89.8793" width="4.1831" height="4.1843"/><rect class="y" x="30.047" y="94.0636" width="4.1831" height="4.1842"/><rect class="z" x="34.2301" y="94.0636" width="4.1849" height="4.1842"/><rect class="aa" x="34.2301" y="89.8793" width="4.1849" height="4.1843"/><rect class="ab" x="38.415" y="85.6949" width="4.1845" height="4.1844"/><rect class="j" x="34.2301" y="85.6949" width="4.1849" height="4.1844"/><rect class="n" x="38.415" y="89.8793" width="4.1845" height="4.1843"/><rect class="ac" x="38.415" y="94.0636" width="4.1845" height="4.1842"/><rect class="ad" x="42.5995" y="106.6165" width="4.1839" height="4.1842"/><rect class="n" x="42.5995" y="102.4322" width="4.1839" height="4.1843"/><rect class="ae" x="46.7834" y="98.2478" width="4.1838" height="4.1844"/><rect class="af" x="42.5995" y="98.2478" width="4.1839" height="4.1844"/><rect class="ag" x="46.7834" y="102.4322" width="4.1838" height="4.1843"/><rect class="ah" x="46.7834" y="106.6165" width="4.1838" height="4.1842"/><rect class="z" x="34.2301" y="106.6165" width="4.1849" height="4.1842"/><rect class="aa" x="34.2301" y="102.4322" width="4.1849" height="4.1843"/><rect class="ab" x="38.415" y="98.2478" width="4.1845" height="4.1844"/><rect class="j" x="34.2301" y="98.2478" width="4.1849" height="4.1844"/><rect class="n" x="38.415" y="102.4322" width="4.1845" height="4.1843"/><rect class="ac" x="38.415" y="106.6165" width="4.1845" height="4.1842"/><rect class="ai" x="50.9672" y="106.6165" width="4.1838" height="4.1842"/><rect class="aj" x="50.9672" y="102.4322" width="4.1838" height="4.1843"/><rect class="l" x="55.151" y="98.2478" width="4.1842" height="4.1844"/><rect class="x" x="50.9672" y="98.2478" width="4.1838" height="4.1844"/><rect class="ah" x="55.151" y="102.4322" width="4.1842" height="4.1843"/><rect class="ak" x="55.151" y="106.6165" width="4.1842" height="4.1842"/><rect class="al" x="67.7032" y="119.1694" width="4.1845" height="4.1842"/><rect class="am" x="67.7032" y="114.9851" width="4.1845" height="4.1843"/><rect class="t" x="71.8877" y="110.8007" width="4.1835" height="4.1844"/><rect class="t" x="67.7032" y="110.8007" width="4.1845" height="4.1844"/><rect class="an" x="71.8877" y="114.9851" width="4.1835" height="4.1843"/><rect class="ao" x="71.8877" y="119.1694" width="4.1835" height="4.1842"/><rect class="ap" x="59.3352" y="119.1694" width="4.1845" height="4.1842"/><rect class="aq" x="59.3352" y="114.9851" width="4.1845" height="4.1843"/><rect class="ar" x="63.5197" y="110.8007" width="4.1835" height="4.1844"/><rect class="as" x="59.3352" y="110.8007" width="4.1845" height="4.1844"/><rect class="at" x="63.5197" y="114.9851" width="4.1835" height="4.1843"/><rect class="an" x="63.5197" y="119.1694" width="4.1835" height="4.1842"/><rect class="au" x="76.0712" y="119.1694" width="4.1845" height="4.1842"/><rect class="av" x="76.0712" y="114.9851" width="4.1845" height="4.1843"/><rect class="aw" x="80.2557" y="110.8007" width="4.1842" height="4.1844"/><rect class="ax" x="76.0712" y="110.8007" width="4.1845" height="4.1844"/><rect class="ao" x="80.2557" y="114.9851" width="4.1842" height="4.1843"/><rect class="ay" x="80.2557" y="119.1694" width="4.1842" height="4.1842"/><rect class="au" x="76.0712" y="131.7223" width="4.1845" height="4.1842"/><rect class="av" x="76.0712" y="127.538" width="4.1845" height="4.1843"/><rect class="aw" x="80.2557" y="123.3536" width="4.1842" height="4.1844"/><rect class="ax" x="76.0712" y="123.3536" width="4.1845" height="4.1844"/><rect class="ao" x="80.2557" y="127.538" width="4.1842" height="4.1843"/><rect class="ay" x="80.2557" y="131.7223" width="4.1842" height="4.1842"/><rect class="az" x="84.4399" y="131.7223" width="4.1838" height="4.1842"/><rect class="ai" x="84.4399" y="127.538" width="4.1838" height="4.1843"/><rect class="ai" x="88.6237" y="123.3536" width="4.1849" height="4.1844"/><rect class="ai" x="84.4399" y="123.3536" width="4.1838" height="4.1844"/><rect class="ba" x="88.6237" y="127.538" width="4.1849" height="4.1843"/><rect class="bb" x="88.6237" y="131.7223" width="4.1849" height="4.1842"/><rect class="bc" x="92.8086" y="131.7223" width="4.1842" height="4.1842"/><rect class="ba" x="92.8086" y="127.538" width="4.1842" height="4.1843"/><rect class="ba" x="96.9928" y="123.3536" width="4.1834" height="4.1844"/><rect class="ba" x="92.8086" y="123.3536" width="4.1842" height="4.1844"/><rect class="bd" x="96.9928" y="127.538" width="4.1834" height="4.1843"/><rect class="be" x="96.9928" y="131.7223" width="4.1834" height="4.1842"/><rect class="bf" x="101.1762" y="144.2752" width="4.1842" height="4.1842"/><rect class="bg" x="101.1762" y="140.0908" width="4.1842" height="4.1844"/><rect class="bh" x="105.3604" y="135.9065" width="4.1838" height="4.1843"/><rect class="bh" x="101.1762" y="135.9065" width="4.1842" height="4.1843"/><rect class="bi" x="105.3604" y="140.0908" width="4.1838" height="4.1844"/><rect class="az" x="105.3604" y="144.2752" width="4.1838" height="4.1842"/><rect class="bc" x="92.8086" y="144.2752" width="4.1842" height="4.1842"/><rect class="ba" x="92.8086" y="140.0908" width="4.1842" height="4.1844"/><rect class="ba" x="96.9928" y="135.9065" width="4.1834" height="4.1843"/><rect class="ba" x="92.8086" y="135.9065" width="4.1842" height="4.1843"/><rect class="bd" x="96.9928" y="140.0908" width="4.1834" height="4.1844"/><rect class="be" x="96.9928" y="144.2752" width="4.1834" height="4.1842"/><rect class="bj" x="109.5435" y="144.2752" width="4.1842" height="4.1842"/><rect class="bk" x="109.5435" y="140.0908" width="4.1842" height="4.1844"/><rect class="az" x="113.7277" y="135.9065" width="4.1842" height="4.1843"/><rect class="bl" x="109.5435" y="135.9065" width="4.1842" height="4.1843"/><rect class="bk" x="113.7277" y="140.0908" width="4.1842" height="4.1844"/><rect class="bm" x="113.7277" y="144.2752" width="4.1842" height="4.1842"/></g><g class="bn"><rect class="bo" x="0.7652" y="119.1694" width="4.1838" height="4.1842"/><rect class="bp" x="0.7652" y="114.9851" width="4.1838" height="4.1843"/><rect class="bq" x="4.949" y="110.8007" width="4.1842" height="4.1844"/><rect class="br" x="0.7652" y="110.8007" width="4.1838" height="4.1844"/><rect class="bs" x="4.949" y="114.9851" width="4.1842" height="4.1843"/><rect class="bt" x="4.949" y="119.1694" width="4.1842" height="4.1842"/><rect class="bu" x="17.5008" y="119.1694" width="4.1845" height="4.1842"/><rect class="bv" x="17.5008" y="114.9851" width="4.1845" height="4.1843"/><rect class="bw" x="21.6853" y="110.8007" width="4.1842" height="4.1844"/><rect class="bx" x="17.5008" y="110.8007" width="4.1845" height="4.1844"/><rect class="by" x="21.6853" y="114.9851" width="4.1842" height="4.1843"/><rect class="bz" x="21.6853" y="119.1694" width="4.1842" height="4.1842"/><rect class="ca" x="9.1332" y="119.1694" width="4.1841" height="4.1842"/><rect class="cb" x="9.1332" y="114.9851" width="4.1841" height="4.1843"/><rect class="cc" x="13.3173" y="110.8007" width="4.1835" height="4.1844"/><rect class="cd" x="9.1332" y="110.8007" width="4.1841" height="4.1844"/><rect class="ce" x="13.3173" y="114.9851" width="4.1835" height="4.1843"/><rect class="cf" x="13.3173" y="119.1694" width="4.1835" height="4.1842"/><rect class="bu" x="17.5008" y="131.7223" width="4.1845" height="4.1842"/><rect class="bv" x="17.5008" y="127.538" width="4.1845" height="4.1843"/><rect class="bw" x="21.6853" y="123.3536" width="4.1842" height="4.1844"/><rect class="bx" x="17.5008" y="123.3536" width="4.1845" height="4.1844"/><rect class="by" x="21.6853" y="127.538" width="4.1842" height="4.1843"/><rect class="bz" x="21.6853" y="131.7223" width="4.1842" height="4.1842"/><rect class="cg" x="25.8695" y="131.7223" width="4.1846" height="4.1842"/><rect class="ch" x="25.8695" y="127.538" width="4.1846" height="4.1843"/><rect class="ci" x="30.0541" y="123.3536" width="4.1831" height="4.1844"/><rect class="cj" x="25.8695" y="123.3536" width="4.1846" height="4.1844"/><rect class="ck" x="30.0541" y="127.538" width="4.1831" height="4.1843"/><rect class="cl" x="30.0541" y="131.7223" width="4.1831" height="4.1842"/><rect class="cm" x="34.2372" y="131.7223" width="4.1849" height="4.1842"/><rect class="cn" x="34.2372" y="127.538" width="4.1849" height="4.1843"/><rect class="co" x="38.4221" y="123.3536" width="4.1845" height="4.1844"/><rect class="cp" x="34.2372" y="123.3536" width="4.1849" height="4.1844"/><rect class="cq" x="38.4221" y="127.538" width="4.1845" height="4.1843"/><rect class="cr" x="38.4221" y="131.7223" width="4.1845" height="4.1842"/><rect class="cs" x="42.6066" y="144.2752" width="4.1838" height="4.1842"/><rect class="ct" x="42.6066" y="140.0908" width="4.1838" height="4.1844"/><rect class="cu" x="46.7904" y="135.9065" width="4.1838" height="4.1843"/><rect class="cv" x="42.6066" y="135.9065" width="4.1838" height="4.1843"/><rect class="cw" x="46.7904" y="140.0908" width="4.1838" height="4.1844"/><rect class="cx" x="46.7904" y="144.2752" width="4.1838" height="4.1842"/><rect class="cm" x="34.2372" y="144.2752" width="4.1849" height="4.1842"/><rect class="cn" x="34.2372" y="140.0908" width="4.1849" height="4.1844"/><rect class="co" x="38.4221" y="135.9065" width="4.1845" height="4.1843"/><rect class="cp" x="34.2372" y="135.9065" width="4.1849" height="4.1843"/><rect class="cq" x="38.4221" y="140.0908" width="4.1845" height="4.1844"/><rect class="cr" x="38.4221" y="144.2752" width="4.1845" height="4.1842"/><rect class="cy" x="50.9742" y="144.2752" width="4.1839" height="4.1842"/><rect class="cz" x="50.9742" y="140.0908" width="4.1839" height="4.1844"/><rect class="da" x="55.1581" y="135.9065" width="4.1841" height="4.1843"/><rect class="db" x="50.9742" y="135.9065" width="4.1839" height="4.1843"/><rect class="dc" x="55.1581" y="140.0908" width="4.1841" height="4.1844"/><rect class="dd" x="55.1581" y="144.2752" width="4.1841" height="4.1842"/><rect class="de" x="67.7102" y="156.828" width="4.1846" height="4.1842"/><rect class="df" x="67.7102" y="152.6436" width="4.1846" height="4.1844"/><rect class="dg" x="71.8948" y="148.4593" width="4.1834" height="4.1843"/><rect class="dg" x="67.7102" y="148.4593" width="4.1846" height="4.1843"/><rect class="dh" x="71.8948" y="152.6436" width="4.1834" height="4.1844"/><rect class="di" x="71.8948" y="156.828" width="4.1834" height="4.1842"/><rect class="dj" x="59.3422" y="156.828" width="4.1846" height="4.1842"/><rect class="dk" x="59.3422" y="152.6436" width="4.1846" height="4.1844"/><rect class="dl" x="63.5268" y="148.4593" width="4.1834" height="4.1843"/><rect class="dm" x="59.3422" y="148.4593" width="4.1846" height="4.1843"/><rect class="dn" x="63.5268" y="152.6436" width="4.1834" height="4.1844"/><rect class="do" x="63.5268" y="156.828" width="4.1834" height="4.1842"/><rect class="dp" x="76.0782" y="156.828" width="4.1846" height="4.1842"/><rect class="dq" x="76.0782" y="152.6436" width="4.1846" height="4.1844"/><rect class="dr" x="80.2628" y="148.4593" width="4.1841" height="4.1843"/><rect class="ds" x="76.0782" y="148.4593" width="4.1846" height="4.1843"/><rect class="dt" x="80.2628" y="152.6436" width="4.1841" height="4.1844"/><rect class="du" x="80.2628" y="156.828" width="4.1841" height="4.1842"/><rect class="dp" x="76.0782" y="169.3808" width="4.1846" height="4.1842"/><rect class="dq" x="76.0782" y="165.1965" width="4.1846" height="4.1843"/><rect class="dr" x="80.2628" y="161.0122" width="4.1841" height="4.1843"/><rect class="ds" x="76.0782" y="161.0122" width="4.1846" height="4.1843"/><rect class="dt" x="80.2628" y="165.1965" width="4.1841" height="4.1843"/><rect class="du" x="80.2628" y="169.3808" width="4.1841" height="4.1842"/><rect class="dv" x="84.4469" y="169.3808" width="4.1838" height="4.1842"/><rect class="dw" x="84.4469" y="165.1965" width="4.1838" height="4.1843"/><rect class="dx" x="88.6307" y="161.0122" width="4.185" height="4.1843"/><rect class="dx" x="84.4469" y="161.0122" width="4.1838" height="4.1843"/><rect class="dy" x="88.6307" y="165.1965" width="4.185" height="4.1843"/><rect class="dz" x="88.6307" y="169.3808" width="4.185" height="4.1842"/><rect class="ea" x="92.8157" y="169.3808" width="4.1841" height="4.1842"/><rect class="eb" x="92.8157" y="165.1965" width="4.1841" height="4.1843"/><rect class="ec" x="96.9998" y="161.0122" width="4.1835" height="4.1843"/><rect class="ed" x="92.8157" y="161.0122" width="4.1841" height="4.1843"/><rect class="ee" x="96.9998" y="165.1965" width="4.1835" height="4.1843"/><rect class="ef" x="96.9998" y="169.3808" width="4.1835" height="4.1842"/><rect class="eg" x="101.1833" y="181.9337" width="4.1842" height="4.1842"/><rect class="eh" x="101.1833" y="177.7494" width="4.1842" height="4.1843"/><rect class="ei" x="105.3675" y="173.565" width="4.1838" height="4.1844"/><rect class="ei" x="101.1833" y="173.565" width="4.1842" height="4.1844"/><rect class="ej" x="105.3675" y="177.7494" width="4.1838" height="4.1843"/><rect class="ek" x="105.3675" y="181.9337" width="4.1838" height="4.1842"/><rect class="ea" x="92.8157" y="181.9337" width="4.1841" height="4.1842"/><rect class="eb" x="92.8157" y="177.7494" width="4.1841" height="4.1843"/><rect class="ec" x="96.9998" y="173.565" width="4.1835" height="4.1844"/><rect class="ed" x="92.8157" y="173.565" width="4.1841" height="4.1844"/><rect class="ee" x="96.9998" y="177.7494" width="4.1835" height="4.1843"/><rect class="ef" x="96.9998" y="181.9337" width="4.1835" height="4.1842"/><rect class="el" x="109.5506" y="181.9337" width="4.1841" height="4.1842"/><rect class="em" x="109.5506" y="177.7494" width="4.1841" height="4.1843"/><rect class="en" x="113.7347" y="173.565" width="4.1842" height="4.1844"/><rect class="eo" x="109.5506" y="173.565" width="4.1841" height="4.1844"/><rect class="ep" x="113.7347" y="177.7494" width="4.1842" height="4.1843"/><rect class="eq" x="113.7347" y="181.9337" width="4.1842" height="4.1842"/></g><g class="er"><rect class="es" x="101.1833" y="140.0908" width="4.1842" height="4.1843"/><rect class="et" x="105.3675" y="135.9064" width="4.1838" height="4.1844"/><rect class="et" x="101.1833" y="135.9064" width="4.1842" height="4.1844"/><rect class="eu" x="105.3675" y="140.0908" width="4.1838" height="4.1843"/><rect class="ev" x="96.9998" y="135.9064" width="4.1835" height="4.1844"/><rect class="ew" x="109.5506" y="144.2751" width="4.1841" height="4.1842"/><rect class="ex" x="109.5506" y="140.0908" width="4.1841" height="4.1843"/><rect class="ey" x="113.7347" y="135.9064" width="4.1842" height="4.1844"/><rect class="ez" x="109.5506" y="135.9064" width="4.1841" height="4.1844"/><rect class="fa" x="113.7347" y="140.0908" width="4.1842" height="4.1843"/><rect class="fb" x="113.7347" y="144.2751" width="4.1842" height="4.1842"/><rect class="fc" x="80.2628" y="123.3535" width="4.1841" height="4.1844"/><rect class="fd" x="76.0782" y="123.3535" width="4.1846" height="4.1844"/><rect class="fe" x="84.4469" y="127.5379" width="4.1838" height="4.1843"/><rect class="ff" x="88.6307" y="123.3535" width="4.185" height="4.1844"/><rect class="ff" x="84.4469" y="123.3535" width="4.1838" height="4.1844"/><rect class="fg" x="88.6307" y="127.5379" width="4.185" height="4.1843"/><rect class="fh" x="88.6307" y="131.7222" width="4.185" height="4.1842"/><rect class="fi" x="92.8157" y="131.7222" width="4.1841" height="4.1842"/><rect class="fj" x="92.8157" y="127.5379" width="4.1841" height="4.1843"/><rect class="ev" x="96.9998" y="123.3535" width="4.1835" height="4.1844"/><rect class="fk" x="92.8157" y="123.3535" width="4.1841" height="4.1844"/><rect class="fl" x="96.9998" y="127.5379" width="4.1835" height="4.1843"/><rect class="fm" x="96.9998" y="131.7222" width="4.1835" height="4.1842"/><rect class="fn" x="67.7102" y="114.985" width="4.1846" height="4.1844"/><rect class="fo" x="71.8948" y="110.8007" width="4.1834" height="4.1843"/><rect class="fo" x="67.7102" y="110.8007" width="4.1846" height="4.1843"/><rect class="fp" x="71.8948" y="114.985" width="4.1834" height="4.1844"/><rect class="fq" x="71.8948" y="119.1694" width="4.1834" height="4.1841"/><rect class="fr" x="63.5268" y="110.8007" width="4.1834" height="4.1843"/><rect class="fs" x="59.3422" y="110.8007" width="4.1846" height="4.1843"/><rect class="ft" x="63.5268" y="114.985" width="4.1834" height="4.1844"/><rect class="fu" x="76.0782" y="119.1694" width="4.1846" height="4.1841"/><rect class="fv" x="76.0782" y="114.985" width="4.1846" height="4.1844"/><rect class="fc" x="80.2628" y="110.8007" width="4.1841" height="4.1843"/><rect class="fd" x="76.0782" y="110.8007" width="4.1846" height="4.1843"/><rect class="fw" x="80.2628" y="114.985" width="4.1841" height="4.1844"/><rect class="fx" x="80.2628" y="119.1694" width="4.1841" height="4.1841"/><rect class="fy" x="42.6066" y="102.4322" width="4.1838" height="4.1843"/><rect class="fz" x="46.7904" y="98.2478" width="4.1838" height="4.1844"/><rect class="ga" x="42.6066" y="98.2478" width="4.1838" height="4.1844"/><rect class="gb" x="46.7904" y="102.4322" width="4.1838" height="4.1843"/><rect class="gc" x="38.4221" y="98.2478" width="4.1845" height="4.1844"/><rect class="gd" x="50.9742" y="106.6165" width="4.1839" height="4.1842"/><rect class="ge" x="50.9742" y="102.4322" width="4.1839" height="4.1843"/><rect class="gf" x="55.1581" y="98.2478" width="4.1841" height="4.1844"/><rect class="gg" x="50.9742" y="98.2478" width="4.1839" height="4.1844"/><rect class="gh" x="55.1581" y="102.4322" width="4.1841" height="4.1843"/><rect class="gi" x="55.1581" y="106.6165" width="4.1841" height="4.1842"/><rect class="gj" x="21.6853" y="85.6949" width="4.1842" height="4.1844"/><rect class="gk" x="17.5008" y="85.6949" width="4.1845" height="4.1844"/><rect class="gl" x="25.8695" y="89.8793" width="4.1846" height="4.1843"/><rect class="gm" x="30.0541" y="85.6949" width="4.1831" height="4.1844"/><rect class="gn" x="25.8695" y="85.6949" width="4.1846" height="4.1844"/><rect class="go" x="30.0541" y="89.8793" width="4.1831" height="4.1843"/><rect class="gp" x="30.0541" y="94.0636" width="4.1831" height="4.1842"/><rect class="gq" x="34.2372" y="94.0636" width="4.1849" height="4.1842"/><rect class="gr" x="34.2372" y="89.8793" width="4.1849" height="4.1843"/><rect class="gc" x="38.4221" y="85.6949" width="4.1845" height="4.1844"/><rect class="gs" x="34.2372" y="85.6949" width="4.1849" height="4.1844"/><rect class="gt" x="38.4221" y="89.8793" width="4.1845" height="4.1843"/><rect class="gu" x="38.4221" y="94.0636" width="4.1845" height="4.1842"/><rect class="gv" x="4.949" y="73.142" width="4.1842" height="4.1844"/><rect class="gw" x="0.7652" y="73.142" width="4.1838" height="4.1844"/><rect class="ee" x="4.949" y="77.3264" width="4.1842" height="4.1843"/><rect class="el" x="17.5008" y="81.5107" width="4.1845" height="4.1842"/><rect class="gx" x="17.5008" y="77.3264" width="4.1845" height="4.1843"/><rect class="gj" x="21.6853" y="73.142" width="4.1842" height="4.1844"/><rect class="gk" x="17.5008" y="73.142" width="4.1845" height="4.1844"/><rect class="gy" x="21.6853" y="77.3264" width="4.1842" height="4.1843"/><rect class="gz" x="21.6853" y="81.5107" width="4.1842" height="4.1842"/><rect class="ha" x="9.1332" y="77.3264" width="4.1841" height="4.1843"/><rect class="hb" x="13.3173" y="73.142" width="4.1835" height="4.1844"/><rect class="hc" x="9.1332" y="73.142" width="4.1841" height="4.1844"/><rect class="hd" x="13.3173" y="77.3264" width="4.1835" height="4.1843"/><rect class="he" x="13.3173" y="81.5107" width="4.1835" height="4.1842"/></g><g class="hf"><rect class="c" x="0.7643" y="119.1694" width="4.1838" height="4.1842"/><rect class="d" x="0.7643" y="114.9851" width="4.1838" height="4.1843"/><rect class="e" x="4.9481" y="110.8007" width="4.1842" height="4.1844"/><rect class="f" x="0.7643" y="110.8007" width="4.1838" height="4.1844"/><rect class="g" x="4.9481" y="114.9851" width="4.1842" height="4.1843"/><rect class="h" x="4.9481" y="119.1694" width="4.1842" height="4.1842"/><rect class="i" x="17.4999" y="119.1694" width="4.1845" height="4.1842"/><rect class="j" x="17.4999" y="114.9851" width="4.1845" height="4.1843"/><rect class="k" x="21.6844" y="110.8007" width="4.1842" height="4.1844"/><rect class="d" x="17.4999" y="110.8007" width="4.1845" height="4.1844"/><rect class="l" x="21.6844" y="114.9851" width="4.1842" height="4.1843"/><rect class="m" x="21.6844" y="119.1694" width="4.1842" height="4.1842"/><rect class="n" x="9.1323" y="119.1694" width="4.1841" height="4.1842"/><rect class="o" x="9.1323" y="114.9851" width="4.1841" height="4.1843"/><rect class="p" x="13.3164" y="110.8007" width="4.1835" height="4.1844"/><rect class="q" x="9.1323" y="110.8007" width="4.1841" height="4.1844"/><rect class="r" x="13.3164" y="114.9851" width="4.1835" height="4.1843"/><rect class="s" x="13.3164" y="119.1694" width="4.1835" height="4.1842"/><rect class="i" x="17.4999" y="131.7223" width="4.1845" height="4.1842"/><rect class="j" x="17.4999" y="127.538" width="4.1845" height="4.1843"/><rect class="k" x="21.6844" y="123.3536" width="4.1842" height="4.1844"/><rect class="d" x="17.4999" y="123.3536" width="4.1845" height="4.1844"/><rect class="l" x="21.6844" y="127.538" width="4.1842" height="4.1843"/><rect class="m" x="21.6844" y="131.7223" width="4.1842" height="4.1842"/><rect class="t" x="25.8686" y="131.7223" width="4.1846" height="4.1842"/><rect class="u" x="25.8686" y="127.538" width="4.1846" height="4.1843"/><rect class="v" x="30.0532" y="123.3536" width="4.1831" height="4.1844"/><rect class="w" x="25.8686" y="123.3536" width="4.1846" height="4.1844"/><rect class="x" x="30.0532" y="127.538" width="4.1831" height="4.1843"/><rect class="y" x="30.0532" y="131.7223" width="4.1831" height="4.1842"/><rect class="z" x="34.2363" y="131.7223" width="4.1849" height="4.1842"/><rect class="aa" x="34.2363" y="127.538" width="4.1849" height="4.1843"/><rect class="ab" x="38.4212" y="123.3536" width="4.1845" height="4.1844"/><rect class="j" x="34.2363" y="123.3536" width="4.1849" height="4.1844"/><rect class="n" x="38.4212" y="127.538" width="4.1845" height="4.1843"/><rect class="ac" x="38.4212" y="131.7223" width="4.1845" height="4.1842"/><rect class="ad" x="42.6057" y="144.2752" width="4.1838" height="4.1842"/><rect class="n" x="42.6057" y="140.0908" width="4.1838" height="4.1844"/><rect class="ae" x="46.7895" y="135.9065" width="4.1838" height="4.1843"/><rect class="af" x="42.6057" y="135.9065" width="4.1838" height="4.1843"/><rect class="ag" x="46.7895" y="140.0908" width="4.1838" height="4.1844"/><rect class="ah" x="46.7895" y="144.2752" width="4.1838" height="4.1842"/><rect class="z" x="34.2363" y="144.2752" width="4.1849" height="4.1842"/><rect class="aa" x="34.2363" y="140.0908" width="4.1849" height="4.1844"/><rect class="ab" x="38.4212" y="135.9065" width="4.1845" height="4.1843"/><rect class="j" x="34.2363" y="135.9065" width="4.1849" height="4.1843"/><rect class="n" x="38.4212" y="140.0908" width="4.1845" height="4.1844"/><rect class="ac" x="38.4212" y="144.2752" width="4.1845" height="4.1842"/><rect class="ai" x="50.9733" y="144.2752" width="4.1839" height="4.1842"/><rect class="aj" x="50.9733" y="140.0908" width="4.1839" height="4.1844"/><rect class="l" x="55.1572" y="135.9065" width="4.1841" height="4.1843"/><rect class="x" x="50.9733" y="135.9065" width="4.1839" height="4.1843"/><rect class="ah" x="55.1572" y="140.0908" width="4.1841" height="4.1844"/><rect class="ak" x="55.1572" y="144.2752" width="4.1841" height="4.1842"/><rect class="al" x="67.7093" y="156.828" width="4.1846" height="4.1842"/><rect class="am" x="67.7093" y="152.6437" width="4.1846" height="4.1843"/><rect class="t" x="71.8939" y="148.4594" width="4.1834" height="4.1843"/><rect class="t" x="67.7093" y="148.4594" width="4.1846" height="4.1843"/><rect class="an" x="71.8939" y="152.6437" width="4.1834" height="4.1843"/><rect class="ao" x="71.8939" y="156.828" width="4.1834" height="4.1842"/><rect class="ap" x="59.3413" y="156.828" width="4.1846" height="4.1842"/><rect class="aq" x="59.3413" y="152.6437" width="4.1846" height="4.1843"/><rect class="ar" x="63.5259" y="148.4594" width="4.1834" height="4.1843"/><rect class="as" x="59.3413" y="148.4594" width="4.1846" height="4.1843"/><rect class="at" x="63.5259" y="152.6437" width="4.1834" height="4.1843"/><rect class="an" x="63.5259" y="156.828" width="4.1834" height="4.1842"/><rect class="au" x="76.0773" y="156.828" width="4.1846" height="4.1842"/><rect class="av" x="76.0773" y="152.6437" width="4.1846" height="4.1843"/><rect class="aw" x="80.2619" y="148.4594" width="4.1841" height="4.1843"/><rect class="ax" x="76.0773" y="148.4594" width="4.1846" height="4.1843"/><rect class="ao" x="80.2619" y="152.6437" width="4.1841" height="4.1843"/><rect class="ay" x="80.2619" y="156.828" width="4.1841" height="4.1842"/><rect class="au" x="76.0773" y="169.3809" width="4.1846" height="4.1842"/><rect class="av" x="76.0773" y="165.1966" width="4.1846" height="4.1843"/><rect class="aw" x="80.2619" y="161.0122" width="4.1841" height="4.1844"/><rect class="ax" x="76.0773" y="161.0122" width="4.1846" height="4.1844"/><rect class="ao" x="80.2619" y="165.1966" width="4.1841" height="4.1843"/><rect class="ay" x="80.2619" y="169.3809" width="4.1841" height="4.1842"/><rect class="az" x="84.446" y="169.3809" width="4.1838" height="4.1842"/><rect class="ai" x="84.446" y="165.1966" width="4.1838" height="4.1843"/><rect class="ai" x="88.6298" y="161.0122" width="4.185" height="4.1844"/><rect class="ai" x="84.446" y="161.0122" width="4.1838" height="4.1844"/><rect class="ba" x="88.6298" y="165.1966" width="4.185" height="4.1843"/><rect class="bb" x="88.6298" y="169.3809" width="4.185" height="4.1842"/><rect class="bc" x="92.8148" y="169.3809" width="4.1841" height="4.1842"/><rect class="ba" x="92.8148" y="165.1966" width="4.1841" height="4.1843"/><rect class="ba" x="96.9989" y="161.0122" width="4.1835" height="4.1844"/><rect class="ba" x="92.8148" y="161.0122" width="4.1841" height="4.1844"/><rect class="bd" x="96.9989" y="165.1966" width="4.1835" height="4.1843"/><rect class="be" x="96.9989" y="169.3809" width="4.1835" height="4.1842"/><rect class="bf" x="101.1824" y="181.9338" width="4.1842" height="4.1842"/><rect class="bg" x="101.1824" y="177.7495" width="4.1842" height="4.1843"/><rect class="bh" x="105.3666" y="173.5651" width="4.1838" height="4.1844"/><rect class="bh" x="101.1824" y="173.5651" width="4.1842" height="4.1844"/><rect class="bi" x="105.3666" y="177.7495" width="4.1838" height="4.1843"/><rect class="az" x="105.3666" y="181.9338" width="4.1838" height="4.1842"/><rect class="bc" x="92.8148" y="181.9338" width="4.1841" height="4.1842"/><rect class="ba" x="92.8148" y="177.7495" width="4.1841" height="4.1843"/><rect class="ba" x="96.9989" y="173.5651" width="4.1835" height="4.1844"/><rect class="ba" x="92.8148" y="173.5651" width="4.1841" height="4.1844"/><rect class="bd" x="96.9989" y="177.7495" width="4.1835" height="4.1843"/><rect class="be" x="96.9989" y="181.9338" width="4.1835" height="4.1842"/><rect class="bj" x="109.5497" y="181.9338" width="4.1841" height="4.1842"/><rect class="bk" x="109.5497" y="177.7495" width="4.1841" height="4.1843"/><rect class="az" x="113.7338" y="173.5651" width="4.1842" height="4.1844"/><rect class="bl" x="109.5497" y="173.5651" width="4.1841" height="4.1844"/><rect class="bk" x="113.7338" y="177.7495" width="4.1842" height="4.1843"/><rect class="bm" x="113.7338" y="181.9338" width="4.1842" height="4.1842"/></g><path class="hg" d="M1.2651,111.7165l114.9515,73.9014H1.2591l.006-73.9014m-.5-.9158L.759,186.1179h117.16L.7652,110.8007Z"/><path class="hg" d="M117.4151,73.6421l-.0061,73.9014L2.4576,73.6421H117.4151m.5-.5H.7552L117.909,148.4593l.0061-75.3172Z"/><rect class="hh" x="38.2734" y="95.0004" width="25.4016" height="19.048"/><rect class="hi" x="38.2734" y="95.0004" width="25.4016" height="19.048"/><rect class="fz" x="245.1453" y="0.9223" width="30.8608" height="30.865"/><rect class="ga" x="183.4234" y="0.9223" width="30.861" height="30.865"/><rect class="gb" x="245.1453" y="62.6523" width="30.8608" height="30.8646"/><rect class="hj" x="121.6911" y="0.9223" width="30.8662" height="30.865"/><rect class="ge" x="306.8668" y="62.6523" width="30.8612" height="30.8646"/><rect class="gf" x="368.5893" y="0.9223" width="30.8634" height="30.865"/><rect class="gg" x="306.8668" y="0.9223" width="30.8612" height="30.865"/><rect class="gh" x="368.5893" y="62.6523" width="30.8634" height="30.8646"/><rect class="gi" x="368.5893" y="124.3815" width="30.8634" height="30.8636"/><rect class="hk" x="245.1453" y="31.7873" width="30.8608" height="30.865"/><rect class="hj" x="183.4234" y="31.7873" width="30.861" height="30.865"/><rect class="hj" x="245.1453" y="93.5174" width="30.8608" height="30.8645"/><rect class="hj" x="121.6911" y="31.7873" width="30.8662" height="30.865"/><rect class="hl" x="306.8668" y="93.5174" width="30.8612" height="30.8645"/><rect class="hm" x="368.5893" y="31.7873" width="30.8634" height="30.865"/><rect class="hn" x="306.8668" y="31.7873" width="30.8612" height="30.865"/><rect class="ho" x="368.5893" y="93.5174" width="30.8634" height="30.8645"/><rect class="hj" x="368.5893" y="155.2465" width="30.8634" height="30.8637"/><rect class="hj" x="214.2961" y="62.6523" width="30.8609" height="30.8646"/><rect class="hp" x="276.018" y="0.9223" width="30.8607" height="30.865"/><rect class="hq" x="214.2961" y="0.9223" width="30.8609" height="30.865"/><rect class="hr" x="276.018" y="62.6523" width="30.8607" height="30.8646"/><rect class="hs" x="152.5638" y="0.9223" width="30.8661" height="30.865"/><rect class="hj" x="90.8261" y="0.9223" width="30.8689" height="30.865"/><rect class="hj" x="337.7395" y="124.3815" width="30.8612" height="30.8636"/><rect class="ht" x="337.7395" y="62.6523" width="30.8612" height="30.8646"/><rect class="hu" x="337.7395" y="0.9223" width="30.8612" height="30.865"/><rect class="hj" x="214.2927" y="93.5216" width="30.861" height="30.8646"/><rect class="hv" x="276.0146" y="31.7916" width="30.8608" height="30.865"/><rect class="hw" x="214.2927" y="31.7916" width="30.861" height="30.865"/><rect class="hj" x="276.0146" y="93.5216" width="30.8608" height="30.8646"/><rect class="hj" x="152.5604" y="31.7916" width="30.8662" height="30.865"/><rect class="hj" x="90.8227" y="31.7916" width="30.8689" height="30.865"/><rect class="hj" x="337.7361" y="155.2508" width="30.8612" height="30.8636"/><rect class="hx" x="337.7361" y="93.5216" width="30.8612" height="30.8646"/><rect class="hy" x="337.7361" y="31.7916" width="30.8612" height="30.865"/><line class="hz" x1="137.1242" y1="-2.3803" x2="140.4889" y2="-0.2172"/><line class="ia" x1="147.2186" y1="4.1093" x2="399.5821" y2="166.352"/><polyline class="ib" points="399.453 155.251 368.597 155.251 368.589 124.382 306.879 124.381 306.875 93.522 245.145 93.517 245.145 62.652 214.284 62.652 214.296 31.787 152.56 31.792 152.557 0.922"/></svg>