<svg xmlns="http://www.w3.org/2000/svg" xmlns:xlink="http://www.w3.org/1999/xlink" viewBox="0 0 400 187"><defs><style>.a,.an,.ao,.ap,.ip{fill:none;}.b{fill:#818486;}.c{fill:#5f909e;}.d{fill:#d0d2d3;}.e{fill:#748990;}.f{fill:#4ba2ba;}.g{fill:#72949e;}.h{fill:#7b9197;}.i{fill:#7b7e80;}.j{fill:#94989a;}.k{fill:#66a1b2;}.l{fill:#829ca4;}.m{fill:#9ca0a2;}.n{fill:#6ea9ba;}.o{fill:#59aec5;}.p{fill:#7da6b2;}.q{fill:#89a4ab;}.r{fill:#8e9294;}.s{fill:#6e7072;}.t{fill:#587f8a;}.u{fill:#4e8696;}.v{fill:#5f7a82;}.w{fill:#66767c;}.x{fill:#4d93a6;}.y{fill:#67828a;}.z{fill:#6d7e83;}.aa{fill:#686a6c;}.ab{fill:#5f7075;}.ac{fill:#636567;}.ad{fill:#4d747f;}.ae{fill:#546f77;}.af{fill:#5b6b71;}.ag{fill:#6b6d6f;}.ah{fill:#557c87;}.ai{fill:#42889b;}.aj{fill:#4a8392;}.ak{fill:#5c777f;}.al{fill:#627378;}.am{fill:#5d5f61;}.an,.ip{stroke:#fff;}.an,.ao,.ap,.ip{stroke-miterlimit:10;}.an{stroke-width:2px;}.ao,.ap{stroke:#231f20;}.ap{stroke-dasharray:8.0005 8.0005;}.aq{clip-path:url(#a);}.ar{fill:#a4a4a4;}.as{fill:#bcbcbc;}.at{fill:#d0d0d0;}.au{fill:#c7c7c7;}.av{fill:#b4b4b4;}.aw{fill:#adadad;}.ax{fill:#999;}.ay{fill:#b1b1b1;}.az{fill:#c5c5c5;}.ba{fill:#a9a9a9;}.bb{fill:#a2a2a2;}.bc{fill:#9e9e9e;}.bd{fill:#b6b6b6;}.be{fill:#cacaca;}.bf{fill:#c2c2c2;}.bg{fill:#aeaeae;}.bh{fill:#a7a7a7;}.bi{fill:#939393;}.bj{fill:#ababab;}.bk{fill:#bfbfbf;}.bl{fill:#b7b7b7;}.bm{fill:#a3a3a3;}.bn{fill:#9c9c9c;}.bo{fill:#8e8e8e;}.bp{fill:#a6a6a6;}.bq{fill:#bababa;}.br{fill:#979797;}.bs{fill:#868686;}.bt{fill:#b3b3b3;}.bu{fill:#aaa;}.bv{fill:#969696;}.bw{fill:#909090;}.bx{fill:gray;}.by{fill:#989898;}.bz{fill:#898989;}.ca{fill:#737373;}.cb{fill:#8b8b8b;}.cc{fill:#838383;}.cd{fill:#7d7d7d;}.ce{fill:#7a7a7a;}.cf{fill:#929292;}.cg{fill:#9f9f9f;}.ch{fill:#9d9d9d;}.ci{fill:#8a8a8a;}.cj{fill:#6c6c6c;}.ck{fill:#858585;}.cl{fill:#878787;}.cm{fill:#888;}.cn{fill:#767676;}.co{fill:#686868;}.cp{fill:#797979;}.cq{fill:#727272;}.cr{fill:#646464;}.cs{fill:#747474;}.ct{fill:#6d6d6d;}.cu{fill:#5e5e5e;}.cv{fill:#707070;}.cw{fill:#717171;}.cx{fill:#6f6f6f;}.cy{fill:#595959;}.cz{fill:#6a6a6a;}.da{fill:#696969;}.db{fill:#636363;}.dc{clip-path:url(#b);}.dd{fill:#9fa2a4;}.de{fill:#7dafbc;}.df{fill:#61b9d0;}.dg{fill:#6db4c7;}.dh{fill:#88aab4;}.di{fill:#91a7ad;}.dj{fill:#949799;}.dk{fill:#72a3b1;}.dl{fill:#56adc5;}.dm{fill:#62a9bc;}.dn{fill:#7d9fa9;}.do{fill:#869ca2;}.dp{fill:#999c9e;}.dq{fill:#77a8b6;}.dr{fill:#5bb2ca;}.ds{fill:#68aec2;}.dt{fill:#82a4ae;}.du{fill:#8ba1a7;}.dv{fill:#8e9193;}.dw{fill:#6c9dab;}.dx{fill:#50a7bf;}.dy{fill:#5da3b7;}.dz{fill:#7799a3;}.ea{fill:#80969c;}.eb{fill:#898c8e;}.ec{fill:#6798a6;}.ed{fill:#579eb1;}.ee{fill:#449ab3;}.ef{fill:#5096aa;}.eg{fill:#6a8c96;}.eh{fill:#598b98;}.ei{fill:#4093a9;}.ej{fill:#4990a3;}.ek{fill:#648690;}.el{fill:#6d8389;}.em{fill:#6e7273;}.en{fill:#4c7f8b;}.eo{fill:#408393;}.ep{fill:#577b83;}.eq{fill:#61777d;}.er{fill:#75787a;}.es{fill:#538492;}.et{fill:#408a9f;}.eu{fill:#438a9d;}.ev{fill:#5e808a;}.ew{fill:#677d83;}.ex{fill:#676b6c;}.ey{fill:#467885;}.ez{fill:#407987;}.fa{fill:#407a88;}.fb{fill:#51747d;}.fc{fill:#5a7076;}.fd{fill:#636768;}.fe{fill:#417480;}.ff{fill:#407480;}.fg{fill:#4d7079;}.fh{fill:#566c72;}.fi{fill:#5f6264;}.fj{fill:#406b79;}.fk{fill:#406c79;}.fl{fill:#406d79;}.fm{fill:#486a74;}.fn{fill:#51676d;}.fo{fill:#595c5e;}.fp{fill:#406470;}.fq{fill:#406471;}.fr{fill:#43646f;}.fs{fill:#4c6168;}.ft{fill:#545759;}.fu{fill:#405e6a;}.fv{fill:#405d68;}.fw{fill:#405d69;}.fx{fill:#405d6a;}.fy{fill:#475b63;}.fz{clip-path:url(#c);}.ga{fill:#002430;}.gb{fill:#002431;}.gc{fill:#03242f;}.gd{fill:#002c39;}.ge{fill:#141719;}.gf{fill:#001e2a;}.gg{fill:#001d28;}.gh{fill:#001d29;}.gi{fill:#001d2a;}.gj{fill:#071b23;}.gk{fill:#003947;}.gl{fill:#003a48;}.gm{fill:#013440;}.gn{fill:#003440;}.go{fill:#0d3039;}.gp{fill:#162c32;}.gq{fill:#1f2224;}.gr{fill:#002b39;}.gs{fill:#002d39;}.gt{fill:#082a34;}.gu{fill:#11272d;}.gv{fill:#0c3f4b;}.gw{fill:#004353;}.gx{fill:#173b43;}.gy{fill:#21373d;}.gz{fill:#004a5f;}.ha{fill:#034a5d;}.hb{fill:#1e404a;}.hc{fill:#272b2c;}.hd{fill:#063845;}.he{fill:#11343d;}.hf{fill:#1a3036;}.hg{fill:#1f505e;}.hh{fill:#045a73;}.hi{fill:#10566a;}.hj{fill:#2a4c56;}.hk{fill:#0b627a;}.hl{fill:#3b3e40;}.hm{fill:#194b58;}.hn{fill:#005369;}.ho{fill:#095063;}.hp{fill:#244650;}.hq{fill:#2d4349;}.hr{fill:#166d85;}.hs{fill:#22697c;}.ht{fill:#2c5d6b;}.hu{fill:#10677f;}.hv{fill:#1d6377;}.hw{fill:#375963;}.hx{fill:#40565c;}.hy{fill:#494c4e;}.hz{fill:#275866;}.ia{fill:#175e71;}.ib{fill:#32545e;}.ic{fill:#3b5157;}.id{fill:#217990;}.ie{fill:#2d7487;}.if{fill:#326371;}.ig{fill:#3d5f69;}.ih{fill:#465c62;}.ii{fill:#376876;}.ij{fill:#1b728a;}.ik{fill:#286e82;}.il{fill:#42646e;}.im{fill:#4b6167;}.in{clip-path:url(#d);}.io{fill:#231f20;}.ip{stroke-width:4px;}</style><clipPath id="a"><polygon class="a" points="282.287 0.922 282.287 76.239 399.441 76.239 282.287 0.922"/></clipPath><clipPath id="b"><polygon class="a" points="282.293 38.581 399.447 113.898 282.293 113.898 282.293 38.581"/></clipPath><clipPath id="c"><polygon class="a" points="399.448 76.239 282.294 0.922 399.448 0.922 399.448 76.239"/></clipPath><clipPath id="d"><polygon class="a" points="399.447 113.898 399.448 38.581 282.293 38.581 399.447 113.898"/></clipPath></defs><title>scrat-rasterization-left</title><rect class="b" x="93.1574" y="124.3853" width="30.8619" height="30.8645"/><rect class="c" x="93.1574" y="62.6543" width="30.8619" height="30.8655"/><rect class="d" x="154.8812" y="62.6543" width="30.8616" height="30.8655"/><rect class="e" x="154.8812" y="124.3853" width="30.8616" height="30.8645"/><rect class="f" x="31.4233" y="0.9224" width="30.867" height="30.866"/><rect class="g" x="31.4233" y="62.6543" width="30.867" height="30.8655"/><rect class="h" x="31.4233" y="124.3853" width="30.867" height="30.8645"/><rect class="i" x="216.6045" y="124.3853" width="30.8621" height="30.8645"/><rect class="d" x="216.6045" y="62.6543" width="30.8621" height="30.8655"/><rect class="d" x="278.3287" y="124.3853" width="30.8644" height="30.8645"/><rect class="j" x="124.031" y="124.3853" width="30.8618" height="30.8645"/><rect class="k" x="124.031" y="62.6543" width="30.8618" height="30.8655"/><rect class="d" x="185.7547" y="62.6543" width="30.8617" height="30.8655"/><rect class="l" x="185.7547" y="124.3853" width="30.8617" height="30.8645"/><rect class="m" x="0.5573" y="124.3853" width="30.8698" height="30.8645"/><rect class="n" x="0.5573" y="62.6543" width="30.8698" height="30.8655"/><rect class="d" x="62.2968" y="0.9224" width="30.8671" height="30.866"/><rect class="o" x="0.5573" y="0.9224" width="30.8698" height="30.866"/><rect class="p" x="62.2968" y="62.6543" width="30.8671" height="30.8655"/><rect class="q" x="62.2968" y="124.3853" width="30.8671" height="30.8645"/><rect class="r" x="247.478" y="124.3853" width="30.8622" height="30.8645"/><rect class="s" x="93.1574" y="155.2488" width="30.8619" height="30.8645"/><rect class="t" x="93.1574" y="93.5178" width="30.8619" height="30.8655"/><rect class="u" x="93.1574" y="31.7859" width="30.8619" height="30.866"/><rect class="v" x="154.8812" y="93.5178" width="30.8616" height="30.8655"/><rect class="w" x="154.8812" y="155.2488" width="30.8616" height="30.8645"/><rect class="x" x="31.4233" y="31.7859" width="30.867" height="30.866"/><rect class="y" x="31.4233" y="93.5178" width="30.867" height="30.8655"/><rect class="z" x="31.4233" y="155.2488" width="30.867" height="30.8645"/><rect class="aa" x="216.6045" y="155.2488" width="30.8621" height="30.8645"/><rect class="d" x="216.6045" y="93.5178" width="30.8621" height="30.8655"/><rect class="ab" x="278.3287" y="155.2488" width="30.8644" height="30.8645"/><rect class="ac" x="124.0259" y="155.2538" width="30.8619" height="30.8646"/><rect class="ad" x="124.0259" y="93.5228" width="30.8619" height="30.8655"/><rect class="ae" x="185.7497" y="93.5228" width="30.8616" height="30.8655"/><rect class="af" x="185.7497" y="155.2538" width="30.8616" height="30.8646"/><rect class="ag" x="0.5523" y="155.2538" width="30.8698" height="30.8646"/><rect class="ah" x="0.5523" y="93.5228" width="30.8698" height="30.8655"/><rect class="ai" x="62.2918" y="31.791" width="30.8671" height="30.8659"/><rect class="aj" x="0.5523" y="31.791" width="30.8698" height="30.8659"/><rect class="ak" x="62.2918" y="93.5228" width="30.8671" height="30.8655"/><rect class="al" x="62.2918" y="155.2538" width="30.8671" height="30.8646"/><rect class="am" x="247.473" y="155.2538" width="30.8621" height="30.8646"/><rect class="d" x="93.1574" y="0.9224" width="30.8619" height="30.866"/><polyline class="an" points="309.186 155.251 278.33 155.251 278.322 124.382 216.612 124.382 216.608 93.522 154.878 93.517 154.878 62.653 124.017 62.653 124.029 31.787 62.294 31.792 62.29 0.922"/><line class="ao" x1="46.8573" y1="-2.3802" x2="50.2219" y2="-0.217"/><line class="ap" x1="56.9516" y1="4.1094" x2="309.3151" y2="166.3521"/><line class="ao" x1="312.68" y1="168.5153" x2="316.0446" y2="170.6784"/><g class="aq"><rect class="ar" x="282.286" y="9.2909" width="4.1838" height="4.1842"/><rect class="as" x="282.286" y="5.1066" width="4.1838" height="4.1843"/><rect class="at" x="286.4698" y="0.9222" width="4.1842" height="4.1844"/><rect class="au" x="282.286" y="0.9222" width="4.1838" height="4.1844"/><rect class="av" x="286.4698" y="5.1066" width="4.1842" height="4.1843"/><rect class="aw" x="286.4698" y="9.2909" width="4.1842" height="4.1842"/><rect class="ax" x="299.0216" y="9.2909" width="4.1845" height="4.1842"/><rect class="ay" x="299.0216" y="5.1066" width="4.1845" height="4.1843"/><rect class="az" x="303.2061" y="0.9222" width="4.1842" height="4.1844"/><rect class="as" x="299.0216" y="0.9222" width="4.1845" height="4.1844"/><rect class="ba" x="303.2061" y="5.1066" width="4.1842" height="4.1843"/><rect class="bb" x="303.2061" y="9.2909" width="4.1842" height="4.1842"/><rect class="bc" x="290.654" y="9.2909" width="4.1841" height="4.1842"/><rect class="bd" x="290.654" y="5.1066" width="4.1841" height="4.1843"/><rect class="be" x="294.8381" y="0.9222" width="4.1835" height="4.1844"/><rect class="bf" x="290.654" y="0.9222" width="4.1841" height="4.1844"/><rect class="bg" x="294.8381" y="5.1066" width="4.1835" height="4.1843"/><rect class="bh" x="294.8381" y="9.2909" width="4.1835" height="4.1842"/><rect class="ax" x="299.0216" y="21.8438" width="4.1845" height="4.1842"/><rect class="ay" x="299.0216" y="17.6595" width="4.1845" height="4.1843"/><rect class="az" x="303.2061" y="13.4751" width="4.1842" height="4.1844"/><rect class="as" x="299.0216" y="13.4751" width="4.1845" height="4.1844"/><rect class="ba" x="303.2061" y="17.6595" width="4.1842" height="4.1843"/><rect class="bb" x="303.2061" y="21.8438" width="4.1842" height="4.1842"/><rect class="bi" x="307.3903" y="21.8438" width="4.1846" height="4.1842"/><rect class="bj" x="307.3903" y="17.6595" width="4.1846" height="4.1843"/><rect class="bk" x="311.5749" y="13.4751" width="4.1831" height="4.1844"/><rect class="bl" x="307.3903" y="13.4751" width="4.1846" height="4.1844"/><rect class="bm" x="311.5749" y="17.6595" width="4.1831" height="4.1843"/><rect class="bn" x="311.5749" y="21.8438" width="4.1831" height="4.1842"/><rect class="bo" x="315.758" y="21.8438" width="4.1849" height="4.1842"/><rect class="bp" x="315.758" y="17.6595" width="4.1849" height="4.1843"/><rect class="bq" x="319.9429" y="13.4751" width="4.1845" height="4.1844"/><rect class="ay" x="315.758" y="13.4751" width="4.1849" height="4.1844"/><rect class="bc" x="319.9429" y="17.6595" width="4.1845" height="4.1843"/><rect class="br" x="319.9429" y="21.8438" width="4.1845" height="4.1842"/><rect class="bs" x="324.1274" y="34.3967" width="4.1838" height="4.1841"/><rect class="bc" x="324.1274" y="30.2123" width="4.1838" height="4.1844"/><rect class="bt" x="328.3112" y="26.028" width="4.1838" height="4.1843"/><rect class="bu" x="324.1274" y="26.028" width="4.1838" height="4.1843"/><rect class="bv" x="328.3112" y="30.2123" width="4.1838" height="4.1844"/><rect class="bw" x="328.3112" y="34.3967" width="4.1838" height="4.1841"/><rect class="bo" x="315.758" y="34.3967" width="4.1849" height="4.1841"/><rect class="bp" x="315.758" y="30.2123" width="4.1849" height="4.1844"/><rect class="bq" x="319.9429" y="26.028" width="4.1845" height="4.1843"/><rect class="ay" x="315.758" y="26.028" width="4.1849" height="4.1843"/><rect class="bc" x="319.9429" y="30.2123" width="4.1845" height="4.1844"/><rect class="br" x="319.9429" y="34.3967" width="4.1845" height="4.1841"/><rect class="bx" x="332.495" y="34.3967" width="4.1839" height="4.1841"/><rect class="by" x="332.495" y="30.2123" width="4.1839" height="4.1844"/><rect class="ba" x="336.6789" y="26.028" width="4.1841" height="4.1843"/><rect class="bm" x="332.495" y="26.028" width="4.1839" height="4.1843"/><rect class="bw" x="336.6789" y="30.2123" width="4.1841" height="4.1844"/><rect class="bz" x="336.6789" y="34.3967" width="4.1841" height="4.1841"/><rect class="ca" x="349.231" y="46.9495" width="4.1846" height="4.1842"/><rect class="cb" x="349.231" y="42.7652" width="4.1846" height="4.1843"/><rect class="bi" x="353.4156" y="38.5808" width="4.1834" height="4.1844"/><rect class="bi" x="349.231" y="38.5808" width="4.1846" height="4.1844"/><rect class="cc" x="353.4156" y="42.7652" width="4.1834" height="4.1843"/><rect class="cd" x="353.4156" y="46.9495" width="4.1834" height="4.1842"/><rect class="ce" x="340.863" y="46.9495" width="4.1846" height="4.1842"/><rect class="cf" x="340.863" y="42.7652" width="4.1846" height="4.1843"/><rect class="cg" x="345.0476" y="38.5808" width="4.1834" height="4.1844"/><rect class="ch" x="340.863" y="38.5808" width="4.1846" height="4.1844"/><rect class="ci" x="345.0476" y="42.7652" width="4.1834" height="4.1843"/><rect class="cc" x="345.0476" y="46.9495" width="4.1834" height="4.1842"/><rect class="cj" x="357.599" y="46.9495" width="4.1846" height="4.1842"/><rect class="ck" x="357.599" y="42.7652" width="4.1846" height="4.1843"/><rect class="cl" x="361.7836" y="38.5808" width="4.1841" height="4.1844"/><rect class="cm" x="357.599" y="38.5808" width="4.1846" height="4.1844"/><rect class="cd" x="361.7836" y="42.7652" width="4.1841" height="4.1843"/><rect class="cn" x="361.7836" y="46.9495" width="4.1841" height="4.1842"/><rect class="cj" x="357.599" y="59.5024" width="4.1846" height="4.1842"/><rect class="ck" x="357.599" y="55.3181" width="4.1846" height="4.1843"/><rect class="cl" x="361.7836" y="51.1337" width="4.1841" height="4.1844"/><rect class="cm" x="357.599" y="51.1337" width="4.1846" height="4.1844"/><rect class="cd" x="361.7836" y="55.3181" width="4.1841" height="4.1843"/><rect class="cn" x="361.7836" y="59.5024" width="4.1841" height="4.1842"/><rect class="co" x="365.9677" y="59.5024" width="4.1839" height="4.1842"/><rect class="bx" x="365.9677" y="55.3181" width="4.1839" height="4.1843"/><rect class="bx" x="370.1516" y="51.1337" width="4.1849" height="4.1844"/><rect class="bx" x="365.9677" y="51.1337" width="4.1839" height="4.1844"/><rect class="cp" x="370.1516" y="55.3181" width="4.1849" height="4.1843"/><rect class="cq" x="370.1516" y="59.5024" width="4.1849" height="4.1842"/><rect class="cr" x="374.3365" y="59.5024" width="4.1841" height="4.1842"/><rect class="cp" x="374.3365" y="55.3181" width="4.1841" height="4.1843"/><rect class="cp" x="378.5206" y="51.1337" width="4.1835" height="4.1844"/><rect class="cp" x="374.3365" y="51.1337" width="4.1841" height="4.1844"/><rect class="cs" x="378.5206" y="55.3181" width="4.1835" height="4.1843"/><rect class="ct" x="378.5206" y="59.5024" width="4.1835" height="4.1842"/><rect class="cu" x="382.7041" y="72.0553" width="4.1842" height="4.1842"/><rect class="cv" x="382.7041" y="67.871" width="4.1842" height="4.1843"/><rect class="cw" x="386.8883" y="63.6866" width="4.1838" height="4.1844"/><rect class="cw" x="382.7041" y="63.6866" width="4.1842" height="4.1844"/><rect class="cx" x="386.8883" y="67.871" width="4.1838" height="4.1843"/><rect class="co" x="386.8883" y="72.0553" width="4.1838" height="4.1842"/><rect class="cr" x="374.3365" y="72.0553" width="4.1841" height="4.1842"/><rect class="cp" x="374.3365" y="67.871" width="4.1841" height="4.1843"/><rect class="cp" x="378.5206" y="63.6866" width="4.1835" height="4.1844"/><rect class="cp" x="374.3365" y="63.6866" width="4.1841" height="4.1844"/><rect class="cs" x="378.5206" y="67.871" width="4.1835" height="4.1843"/><rect class="ct" x="378.5206" y="72.0553" width="4.1835" height="4.1842"/><rect class="cy" x="391.0714" y="72.0553" width="4.1842" height="4.1842"/><rect class="cz" x="391.0714" y="67.871" width="4.1842" height="4.1843"/><rect class="co" x="395.2556" y="63.6866" width="4.1841" height="4.1844"/><rect class="da" x="391.0714" y="63.6866" width="4.1842" height="4.1844"/><rect class="cz" x="395.2556" y="67.871" width="4.1841" height="4.1843"/><rect class="db" x="395.2556" y="72.0553" width="4.1841" height="4.1842"/></g><g class="dc"><rect class="dd" x="282.293" y="46.9495" width="4.1838" height="4.1842"/><rect class="de" x="282.293" y="42.7652" width="4.1838" height="4.1843"/><rect class="df" x="286.4768" y="38.5808" width="4.1842" height="4.1844"/><rect class="dg" x="282.293" y="38.5808" width="4.1838" height="4.1844"/><rect class="dh" x="286.4768" y="42.7652" width="4.1842" height="4.1843"/><rect class="di" x="286.4768" y="46.9495" width="4.1842" height="4.1842"/><rect class="dj" x="299.0287" y="46.9495" width="4.1845" height="4.1842"/><rect class="dk" x="299.0287" y="42.7652" width="4.1845" height="4.1843"/><rect class="dl" x="303.2132" y="38.5808" width="4.1842" height="4.1844"/><rect class="dm" x="299.0287" y="38.5808" width="4.1845" height="4.1844"/><rect class="dn" x="303.2132" y="42.7652" width="4.1842" height="4.1843"/><rect class="do" x="303.2132" y="46.9495" width="4.1842" height="4.1842"/><rect class="dp" x="290.661" y="46.9495" width="4.1842" height="4.1842"/><rect class="dq" x="290.661" y="42.7652" width="4.1842" height="4.1843"/><rect class="dr" x="294.8452" y="38.5808" width="4.1835" height="4.1844"/><rect class="ds" x="290.661" y="38.5808" width="4.1842" height="4.1844"/><rect class="dt" x="294.8452" y="42.7652" width="4.1835" height="4.1843"/><rect class="du" x="294.8452" y="46.9495" width="4.1835" height="4.1842"/><rect class="dj" x="299.0287" y="59.5024" width="4.1845" height="4.1842"/><rect class="dk" x="299.0287" y="55.3181" width="4.1845" height="4.1843"/><rect class="dl" x="303.2132" y="51.1337" width="4.1842" height="4.1844"/><rect class="dm" x="299.0287" y="51.1337" width="4.1845" height="4.1844"/><rect class="dn" x="303.2132" y="55.3181" width="4.1842" height="4.1843"/><rect class="do" x="303.2132" y="59.5024" width="4.1842" height="4.1842"/><rect class="dv" x="307.3974" y="59.5024" width="4.1845" height="4.1842"/><rect class="dw" x="307.3974" y="55.3181" width="4.1845" height="4.1843"/><rect class="dx" x="311.5819" y="51.1337" width="4.1831" height="4.1844"/><rect class="dy" x="307.3974" y="51.1337" width="4.1845" height="4.1844"/><rect class="dz" x="311.5819" y="55.3181" width="4.1831" height="4.1843"/><rect class="ea" x="311.5819" y="59.5024" width="4.1831" height="4.1842"/><rect class="eb" x="315.765" y="59.5024" width="4.1849" height="4.1842"/><rect class="ec" x="315.765" y="55.3181" width="4.1849" height="4.1843"/><rect class="f" x="319.9499" y="51.1337" width="4.1845" height="4.1844"/><rect class="ed" x="315.765" y="51.1337" width="4.1849" height="4.1844"/><rect class="g" x="319.9499" y="55.3181" width="4.1845" height="4.1843"/><rect class="h" x="319.9499" y="59.5024" width="4.1845" height="4.1842"/><rect class="b" x="324.1344" y="72.0553" width="4.1839" height="4.1842"/><rect class="c" x="324.1344" y="67.871" width="4.1839" height="4.1843"/><rect class="ee" x="328.3183" y="63.6866" width="4.1838" height="4.1844"/><rect class="ef" x="324.1344" y="63.6866" width="4.1839" height="4.1844"/><rect class="eg" x="328.3183" y="67.871" width="4.1838" height="4.1843"/><rect class="e" x="328.3183" y="72.0553" width="4.1838" height="4.1842"/><rect class="eb" x="315.765" y="72.0553" width="4.1849" height="4.1842"/><rect class="ec" x="315.765" y="67.871" width="4.1849" height="4.1843"/><rect class="f" x="319.9499" y="63.6866" width="4.1845" height="4.1844"/><rect class="ed" x="315.765" y="63.6866" width="4.1849" height="4.1844"/><rect class="g" x="319.9499" y="67.871" width="4.1845" height="4.1843"/><rect class="h" x="319.9499" y="72.0553" width="4.1845" height="4.1842"/><rect class="i" x="332.5021" y="72.0553" width="4.1838" height="4.1842"/><rect class="eh" x="332.5021" y="67.871" width="4.1838" height="4.1843"/><rect class="ei" x="336.6859" y="63.6866" width="4.1842" height="4.1844"/><rect class="ej" x="332.5021" y="63.6866" width="4.1838" height="4.1844"/><rect class="ek" x="336.6859" y="67.871" width="4.1842" height="4.1843"/><rect class="el" x="336.6859" y="72.0553" width="4.1842" height="4.1842"/><rect class="em" x="349.2381" y="84.6081" width="4.1845" height="4.1842"/><rect class="en" x="349.2381" y="80.4238" width="4.1845" height="4.1843"/><rect class="eo" x="353.4226" y="76.2394" width="4.1835" height="4.1844"/><rect class="eo" x="349.2381" y="76.2394" width="4.1845" height="4.1844"/><rect class="ep" x="353.4226" y="80.4238" width="4.1835" height="4.1843"/><rect class="eq" x="353.4226" y="84.6081" width="4.1835" height="4.1842"/><rect class="er" x="340.8701" y="84.6081" width="4.1845" height="4.1842"/><rect class="es" x="340.8701" y="80.4238" width="4.1845" height="4.1843"/><rect class="et" x="345.0546" y="76.2394" width="4.1835" height="4.1844"/><rect class="eu" x="340.8701" y="76.2394" width="4.1845" height="4.1844"/><rect class="ev" x="345.0546" y="80.4238" width="4.1835" height="4.1843"/><rect class="ew" x="345.0546" y="84.6081" width="4.1835" height="4.1842"/><rect class="ex" x="357.6061" y="84.6081" width="4.1845" height="4.1842"/><rect class="ey" x="357.6061" y="80.4238" width="4.1845" height="4.1843"/><rect class="ez" x="361.7906" y="76.2394" width="4.1842" height="4.1844"/><rect class="fa" x="357.6061" y="76.2394" width="4.1845" height="4.1844"/><rect class="fb" x="361.7906" y="80.4238" width="4.1842" height="4.1843"/><rect class="fc" x="361.7906" y="84.6081" width="4.1842" height="4.1842"/><rect class="ex" x="357.6061" y="97.161" width="4.1845" height="4.1842"/><rect class="ey" x="357.6061" y="92.9767" width="4.1845" height="4.1843"/><rect class="ez" x="361.7906" y="88.7923" width="4.1842" height="4.1844"/><rect class="fa" x="357.6061" y="88.7923" width="4.1845" height="4.1844"/><rect class="fb" x="361.7906" y="92.9767" width="4.1842" height="4.1843"/><rect class="fc" x="361.7906" y="97.161" width="4.1842" height="4.1842"/><rect class="fd" x="365.9748" y="97.161" width="4.1838" height="4.1842"/><rect class="fe" x="365.9748" y="92.9767" width="4.1838" height="4.1843"/><rect class="ff" x="370.1586" y="88.7923" width="4.1849" height="4.1844"/><rect class="ff" x="365.9748" y="88.7923" width="4.1838" height="4.1844"/><rect class="fg" x="370.1586" y="92.9767" width="4.1849" height="4.1843"/><rect class="fh" x="370.1586" y="97.161" width="4.1849" height="4.1842"/><rect class="fi" x="374.3435" y="97.161" width="4.1842" height="4.1842"/><rect class="fj" x="374.3435" y="92.9767" width="4.1842" height="4.1843"/><rect class="fk" x="378.5277" y="88.7923" width="4.1835" height="4.1844"/><rect class="fl" x="374.3435" y="88.7923" width="4.1842" height="4.1844"/><rect class="fm" x="378.5277" y="92.9767" width="4.1835" height="4.1843"/><rect class="fn" x="378.5277" y="97.161" width="4.1835" height="4.1842"/><rect class="fo" x="382.7112" y="109.7139" width="4.1841" height="4.1842"/><rect class="fp" x="382.7112" y="105.5295" width="4.1841" height="4.1844"/><rect class="fq" x="386.8953" y="101.3452" width="4.1838" height="4.1843"/><rect class="fq" x="382.7112" y="101.3452" width="4.1841" height="4.1843"/><rect class="fr" x="386.8953" y="105.5295" width="4.1838" height="4.1844"/><rect class="fs" x="386.8953" y="109.7139" width="4.1838" height="4.1842"/><rect class="fi" x="374.3435" y="109.7139" width="4.1842" height="4.1842"/><rect class="fj" x="374.3435" y="105.5295" width="4.1842" height="4.1844"/><rect class="fk" x="378.5277" y="101.3452" width="4.1835" height="4.1843"/><rect class="fl" x="374.3435" y="101.3452" width="4.1842" height="4.1843"/><rect class="fm" x="378.5277" y="105.5295" width="4.1835" height="4.1844"/><rect class="fn" x="378.5277" y="109.7139" width="4.1835" height="4.1842"/><rect class="ft" x="391.0784" y="109.7139" width="4.1842" height="4.1842"/><rect class="fu" x="391.0784" y="105.5295" width="4.1842" height="4.1844"/><rect class="fv" x="395.2626" y="101.3452" width="4.1842" height="4.1843"/><rect class="fw" x="391.0784" y="101.3452" width="4.1842" height="4.1843"/><rect class="fx" x="395.2626" y="105.5295" width="4.1842" height="4.1844"/><rect class="fy" x="395.2626" y="109.7139" width="4.1842" height="4.1842"/></g><g class="fz"><rect class="ga" x="382.7112" y="67.8709" width="4.1841" height="4.1844"/><rect class="gb" x="386.8953" y="63.6866" width="4.1838" height="4.1843"/><rect class="gb" x="382.7112" y="63.6866" width="4.1841" height="4.1843"/><rect class="gc" x="386.8953" y="67.8709" width="4.1838" height="4.1844"/><rect class="gd" x="378.5277" y="63.6866" width="4.1835" height="4.1843"/><rect class="ge" x="391.0784" y="72.0553" width="4.1842" height="4.1842"/><rect class="gf" x="391.0784" y="67.8709" width="4.1842" height="4.1844"/><rect class="gg" x="395.2626" y="63.6866" width="4.1842" height="4.1843"/><rect class="gh" x="391.0784" y="63.6866" width="4.1842" height="4.1843"/><rect class="gi" x="395.2626" y="67.8709" width="4.1842" height="4.1844"/><rect class="gj" x="395.2626" y="72.0553" width="4.1842" height="4.1842"/><rect class="gk" x="361.7906" y="51.1337" width="4.1842" height="4.1844"/><rect class="gl" x="357.6061" y="51.1337" width="4.1845" height="4.1844"/><rect class="gm" x="365.9748" y="55.3181" width="4.1838" height="4.1843"/><rect class="gn" x="370.1586" y="51.1337" width="4.1849" height="4.1844"/><rect class="gn" x="365.9748" y="51.1337" width="4.1838" height="4.1844"/><rect class="go" x="370.1586" y="55.3181" width="4.1849" height="4.1843"/><rect class="gp" x="370.1586" y="59.5024" width="4.1849" height="4.1842"/><rect class="gq" x="374.3435" y="59.5024" width="4.1842" height="4.1842"/><rect class="gr" x="374.3435" y="55.3181" width="4.1842" height="4.1843"/><rect class="gd" x="378.5277" y="51.1337" width="4.1835" height="4.1844"/><rect class="gs" x="374.3435" y="51.1337" width="4.1842" height="4.1844"/><rect class="gt" x="378.5277" y="55.3181" width="4.1835" height="4.1843"/><rect class="gu" x="378.5277" y="59.5024" width="4.1835" height="4.1842"/><rect class="gv" x="349.2381" y="42.7652" width="4.1845" height="4.1843"/><rect class="gw" x="353.4226" y="38.5808" width="4.1835" height="4.1844"/><rect class="gw" x="349.2381" y="38.5808" width="4.1845" height="4.1844"/><rect class="gx" x="353.4226" y="42.7652" width="4.1835" height="4.1843"/><rect class="gy" x="353.4226" y="46.9495" width="4.1835" height="4.1842"/><rect class="gz" x="345.0546" y="38.5808" width="4.1835" height="4.1844"/><rect class="ha" x="340.8701" y="38.5808" width="4.1845" height="4.1844"/><rect class="hb" x="345.0546" y="42.7652" width="4.1835" height="4.1843"/><rect class="hc" x="357.6061" y="46.9495" width="4.1845" height="4.1842"/><rect class="hd" x="357.6061" y="42.7652" width="4.1845" height="4.1843"/><rect class="gk" x="361.7906" y="38.5808" width="4.1842" height="4.1844"/><rect class="gl" x="357.6061" y="38.5808" width="4.1845" height="4.1844"/><rect class="he" x="361.7906" y="42.7652" width="4.1842" height="4.1843"/><rect class="hf" x="361.7906" y="46.9495" width="4.1842" height="4.1842"/><rect class="hg" x="324.1344" y="30.2123" width="4.1839" height="4.1843"/><rect class="hh" x="328.3183" y="26.0279" width="4.1838" height="4.1844"/><rect class="hi" x="324.1344" y="26.0279" width="4.1839" height="4.1844"/><rect class="hj" x="328.3183" y="30.2123" width="4.1838" height="4.1843"/><rect class="hk" x="319.9499" y="26.0279" width="4.1845" height="4.1844"/><rect class="hl" x="332.5021" y="34.3966" width="4.1838" height="4.1842"/><rect class="hm" x="332.5021" y="30.2123" width="4.1838" height="4.1843"/><rect class="hn" x="336.6859" y="26.0279" width="4.1842" height="4.1844"/><rect class="ho" x="332.5021" y="26.0279" width="4.1838" height="4.1844"/><rect class="hp" x="336.6859" y="30.2123" width="4.1842" height="4.1843"/><rect class="hq" x="336.6859" y="34.3966" width="4.1842" height="4.1842"/><rect class="hr" x="303.2132" y="13.475" width="4.1842" height="4.1844"/><rect class="hs" x="299.0287" y="13.475" width="4.1845" height="4.1844"/><rect class="ht" x="307.3974" y="17.6594" width="4.1845" height="4.1843"/><rect class="hu" x="311.5819" y="13.475" width="4.1831" height="4.1844"/><rect class="hv" x="307.3974" y="13.475" width="4.1845" height="4.1844"/><rect class="hw" x="311.5819" y="17.6594" width="4.1831" height="4.1843"/><rect class="hx" x="311.5819" y="21.8437" width="4.1831" height="4.1842"/><rect class="hy" x="315.765" y="21.8437" width="4.1849" height="4.1842"/><rect class="hz" x="315.765" y="17.6594" width="4.1849" height="4.1843"/><rect class="hk" x="319.9499" y="13.475" width="4.1845" height="4.1844"/><rect class="ia" x="315.765" y="13.475" width="4.1849" height="4.1844"/><rect class="ib" x="319.9499" y="17.6594" width="4.1845" height="4.1843"/><rect class="ic" x="319.9499" y="21.8437" width="4.1845" height="4.1842"/><rect class="id" x="286.4768" y="0.9222" width="4.1842" height="4.1843"/><rect class="ie" x="282.293" y="0.9222" width="4.1838" height="4.1843"/><rect class="fm" x="286.4768" y="5.1065" width="4.1842" height="4.1843"/><rect class="ft" x="299.0287" y="9.2908" width="4.1845" height="4.1842"/><rect class="if" x="299.0287" y="5.1065" width="4.1845" height="4.1843"/><rect class="hr" x="303.2132" y="0.9222" width="4.1842" height="4.1843"/><rect class="hs" x="299.0287" y="0.9222" width="4.1845" height="4.1843"/><rect class="ig" x="303.2132" y="5.1065" width="4.1842" height="4.1843"/><rect class="ih" x="303.2132" y="9.2908" width="4.1842" height="4.1842"/><rect class="ii" x="290.661" y="5.1065" width="4.1842" height="4.1843"/><rect class="ij" x="294.8452" y="0.9222" width="4.1835" height="4.1843"/><rect class="ik" x="290.661" y="0.9222" width="4.1842" height="4.1843"/><rect class="il" x="294.8452" y="5.1065" width="4.1835" height="4.1843"/><rect class="im" x="294.8452" y="9.2908" width="4.1835" height="4.1842"/></g><g class="in"><rect class="ar" x="282.2921" y="46.9495" width="4.1838" height="4.1842"/><rect class="as" x="282.2921" y="42.7652" width="4.1838" height="4.1843"/><rect class="at" x="286.4759" y="38.5808" width="4.1842" height="4.1844"/><rect class="au" x="282.2921" y="38.5808" width="4.1838" height="4.1844"/><rect class="av" x="286.4759" y="42.7652" width="4.1842" height="4.1843"/><rect class="aw" x="286.4759" y="46.9495" width="4.1842" height="4.1842"/><rect class="ax" x="299.0278" y="46.9495" width="4.1845" height="4.1842"/><rect class="ay" x="299.0278" y="42.7652" width="4.1845" height="4.1843"/><rect class="az" x="303.2123" y="38.5808" width="4.1842" height="4.1844"/><rect class="as" x="299.0278" y="38.5808" width="4.1845" height="4.1844"/><rect class="ba" x="303.2123" y="42.7652" width="4.1842" height="4.1843"/><rect class="bb" x="303.2123" y="46.9495" width="4.1842" height="4.1842"/><rect class="bc" x="290.6601" y="46.9495" width="4.1842" height="4.1842"/><rect class="bd" x="290.6601" y="42.7652" width="4.1842" height="4.1843"/><rect class="be" x="294.8443" y="38.5808" width="4.1835" height="4.1844"/><rect class="bf" x="290.6601" y="38.5808" width="4.1842" height="4.1844"/><rect class="bg" x="294.8443" y="42.7652" width="4.1835" height="4.1843"/><rect class="bh" x="294.8443" y="46.9495" width="4.1835" height="4.1842"/><rect class="ax" x="299.0278" y="59.5024" width="4.1845" height="4.1842"/><rect class="ay" x="299.0278" y="55.3181" width="4.1845" height="4.1843"/><rect class="az" x="303.2123" y="51.1337" width="4.1842" height="4.1844"/><rect class="as" x="299.0278" y="51.1337" width="4.1845" height="4.1844"/><rect class="ba" x="303.2123" y="55.3181" width="4.1842" height="4.1843"/><rect class="bb" x="303.2123" y="59.5024" width="4.1842" height="4.1842"/><rect class="bi" x="307.3965" y="59.5024" width="4.1845" height="4.1842"/><rect class="bj" x="307.3965" y="55.3181" width="4.1845" height="4.1843"/><rect class="bk" x="311.581" y="51.1337" width="4.1831" height="4.1844"/><rect class="bl" x="307.3965" y="51.1337" width="4.1845" height="4.1844"/><rect class="bm" x="311.581" y="55.3181" width="4.1831" height="4.1843"/><rect class="bn" x="311.581" y="59.5024" width="4.1831" height="4.1842"/><rect class="bo" x="315.7641" y="59.5024" width="4.1849" height="4.1842"/><rect class="bp" x="315.7641" y="55.3181" width="4.1849" height="4.1843"/><rect class="bq" x="319.949" y="51.1337" width="4.1845" height="4.1844"/><rect class="ay" x="315.7641" y="51.1337" width="4.1849" height="4.1844"/><rect class="bc" x="319.949" y="55.3181" width="4.1845" height="4.1843"/><rect class="br" x="319.949" y="59.5024" width="4.1845" height="4.1842"/><rect class="bs" x="324.1335" y="72.0553" width="4.1839" height="4.1842"/><rect class="bc" x="324.1335" y="67.871" width="4.1839" height="4.1843"/><rect class="bt" x="328.3174" y="63.6866" width="4.1838" height="4.1844"/><rect class="bu" x="324.1335" y="63.6866" width="4.1839" height="4.1844"/><rect class="bv" x="328.3174" y="67.871" width="4.1838" height="4.1843"/><rect class="bw" x="328.3174" y="72.0553" width="4.1838" height="4.1842"/><rect class="bo" x="315.7641" y="72.0553" width="4.1849" height="4.1842"/><rect class="bp" x="315.7641" y="67.871" width="4.1849" height="4.1843"/><rect class="bq" x="319.949" y="63.6866" width="4.1845" height="4.1844"/><rect class="ay" x="315.7641" y="63.6866" width="4.1849" height="4.1844"/><rect class="bc" x="319.949" y="67.871" width="4.1845" height="4.1843"/><rect class="br" x="319.949" y="72.0553" width="4.1845" height="4.1842"/><rect class="bx" x="332.5012" y="72.0553" width="4.1838" height="4.1842"/><rect class="by" x="332.5012" y="67.871" width="4.1838" height="4.1843"/><rect class="ba" x="336.685" y="63.6866" width="4.1842" height="4.1844"/><rect class="bm" x="332.5012" y="63.6866" width="4.1838" height="4.1844"/><rect class="bw" x="336.685" y="67.871" width="4.1842" height="4.1843"/><rect class="bz" x="336.685" y="72.0553" width="4.1842" height="4.1842"/><rect class="ca" x="349.2372" y="84.6082" width="4.1845" height="4.1842"/><rect class="cb" x="349.2372" y="80.4239" width="4.1845" height="4.1843"/><rect class="bi" x="353.4217" y="76.2395" width="4.1835" height="4.1844"/><rect class="bi" x="349.2372" y="76.2395" width="4.1845" height="4.1844"/><rect class="cc" x="353.4217" y="80.4239" width="4.1835" height="4.1843"/><rect class="cd" x="353.4217" y="84.6082" width="4.1835" height="4.1842"/><rect class="ce" x="340.8692" y="84.6082" width="4.1845" height="4.1842"/><rect class="cf" x="340.8692" y="80.4239" width="4.1845" height="4.1843"/><rect class="cg" x="345.0537" y="76.2395" width="4.1835" height="4.1844"/><rect class="ch" x="340.8692" y="76.2395" width="4.1845" height="4.1844"/><rect class="ci" x="345.0537" y="80.4239" width="4.1835" height="4.1843"/><rect class="cc" x="345.0537" y="84.6082" width="4.1835" height="4.1842"/><rect class="cj" x="357.6052" y="84.6082" width="4.1845" height="4.1842"/><rect class="ck" x="357.6052" y="80.4239" width="4.1845" height="4.1843"/><rect class="cl" x="361.7897" y="76.2395" width="4.1842" height="4.1844"/><rect class="cm" x="357.6052" y="76.2395" width="4.1845" height="4.1844"/><rect class="cd" x="361.7897" y="80.4239" width="4.1842" height="4.1843"/><rect class="cn" x="361.7897" y="84.6082" width="4.1842" height="4.1842"/><rect class="cj" x="357.6052" y="97.1611" width="4.1845" height="4.1842"/><rect class="ck" x="357.6052" y="92.9767" width="4.1845" height="4.1844"/><rect class="cl" x="361.7897" y="88.7924" width="4.1842" height="4.1843"/><rect class="cm" x="357.6052" y="88.7924" width="4.1845" height="4.1843"/><rect class="cd" x="361.7897" y="92.9767" width="4.1842" height="4.1844"/><rect class="cn" x="361.7897" y="97.1611" width="4.1842" height="4.1842"/><rect class="co" x="365.9739" y="97.1611" width="4.1838" height="4.1842"/><rect class="bx" x="365.9739" y="92.9767" width="4.1838" height="4.1844"/><rect class="bx" x="370.1577" y="88.7924" width="4.1849" height="4.1843"/><rect class="bx" x="365.9739" y="88.7924" width="4.1838" height="4.1843"/><rect class="cp" x="370.1577" y="92.9767" width="4.1849" height="4.1844"/><rect class="cq" x="370.1577" y="97.1611" width="4.1849" height="4.1842"/><rect class="cr" x="374.3426" y="97.1611" width="4.1842" height="4.1842"/><rect class="cp" x="374.3426" y="92.9767" width="4.1842" height="4.1844"/><rect class="cp" x="378.5268" y="88.7924" width="4.1835" height="4.1843"/><rect class="cp" x="374.3426" y="88.7924" width="4.1842" height="4.1843"/><rect class="cs" x="378.5268" y="92.9767" width="4.1835" height="4.1844"/><rect class="ct" x="378.5268" y="97.1611" width="4.1835" height="4.1842"/><rect class="cu" x="382.7103" y="109.7139" width="4.1841" height="4.1842"/><rect class="cv" x="382.7103" y="105.5296" width="4.1841" height="4.1843"/><rect class="cw" x="386.8944" y="101.3453" width="4.1838" height="4.1843"/><rect class="cw" x="382.7103" y="101.3453" width="4.1841" height="4.1843"/><rect class="cx" x="386.8944" y="105.5296" width="4.1838" height="4.1843"/><rect class="co" x="386.8944" y="109.7139" width="4.1838" height="4.1842"/><rect class="cr" x="374.3426" y="109.7139" width="4.1842" height="4.1842"/><rect class="cp" x="374.3426" y="105.5296" width="4.1842" height="4.1843"/><rect class="cp" x="378.5268" y="101.3453" width="4.1835" height="4.1843"/><rect class="cp" x="374.3426" y="101.3453" width="4.1842" height="4.1843"/><rect class="cs" x="378.5268" y="105.5296" width="4.1835" height="4.1843"/><rect class="ct" x="378.5268" y="109.7139" width="4.1835" height="4.1842"/><rect class="cy" x="391.0775" y="109.7139" width="4.1842" height="4.1842"/><rect class="cz" x="391.0775" y="105.5296" width="4.1842" height="4.1843"/><rect class="co" x="395.2617" y="101.3453" width="4.1842" height="4.1843"/><rect class="da" x="391.0775" y="101.3453" width="4.1842" height="4.1843"/><rect class="cz" x="395.2617" y="105.5296" width="4.1842" height="4.1843"/><rect class="db" x="395.2617" y="109.7139" width="4.1842" height="4.1842"/></g><path class="io" d="M282.793,39.4966,397.7445,113.398H282.7869l.0061-73.9014m-.5-.9158-.0061,75.3172h117.16L282.293,38.5808Z"/><path class="io" d="M398.943,1.4222l-.0061,73.9014L283.9854,1.4222H398.943m.5-.5h-117.16L399.4368,76.2394,399.443.9222Z"/><rect class="ip" x="319.8013" y="60.4391" width="25.4016" height="19.048"/><rect class="ao" x="319.8013" y="60.4391" width="25.4016" height="19.048"/></svg>