<svg xmlns="http://www.w3.org/2000/svg" xmlns:xlink="http://www.w3.org/1999/xlink" viewBox="0 0 400 320"><defs><style>.a,.br,.eu,.ev,.ew,.ex,.ey,.ez,.fa,.fb,.fc,.fd,.fe,.ff{fill:none;}.b{clip-path:url(#a);}.c{fill:#002430;}.d{fill:#002431;}.e{fill:#03242f;}.f{fill:#002c39;}.g{fill:#141719;}.h{fill:#001e2a;}.i{fill:#001d28;}.j{fill:#001d29;}.k{fill:#001d2a;}.l{fill:#071b23;}.m{fill:#003947;}.n{fill:#003a48;}.o{fill:#013440;}.p{fill:#003440;}.q{fill:#0d3039;}.r{fill:#162c32;}.s{fill:#1f2224;}.t{fill:#002b39;}.u{fill:#002d39;}.v{fill:#082a34;}.w{fill:#11272d;}.x{fill:#0c3f4b;}.y{fill:#004353;}.z{fill:#173b43;}.aa{fill:#21373d;}.ab{fill:#004a5f;}.ac{fill:#034a5d;}.ad{fill:#1e404a;}.ae{fill:#272b2c;}.af{fill:#063845;}.ag{fill:#11343d;}.ah{fill:#1a3036;}.ai{fill:#1f505e;}.aj{fill:#045a73;}.ak{fill:#10566a;}.al{fill:#2a4c56;}.am{fill:#0b627a;}.an{fill:#3b3e40;}.ao{fill:#194b58;}.ap{fill:#005369;}.aq{fill:#095063;}.ar{fill:#244650;}.as{fill:#2d4349;}.at{fill:#166d85;}.au{fill:#22697c;}.av{fill:#2c5d6b;}.aw{fill:#10677f;}.ax{fill:#1d6377;}.ay{fill:#375963;}.az{fill:#40565c;}.ba{fill:#494c4e;}.bb{fill:#275866;}.bc{fill:#175e71;}.bd{fill:#32545e;}.be{fill:#3b5157;}.bf{fill:#217990;}.bg{fill:#2d7487;}.bh{fill:#486a74;}.bi{fill:#545759;}.bj{fill:#326371;}.bk{fill:#3d5f69;}.bl{fill:#465c62;}.bm{fill:#376876;}.bn{fill:#1b728a;}.bo{fill:#286e82;}.bp{fill:#42646e;}.bq{fill:#4b6167;}.br{stroke:#fff;}.br,.eu,.ev,.ew,.ex,.ey,.ez,.fa,.fb,.fc,.fd,.fe,.ff{stroke-miterlimit:10;}.bs{clip-path:url(#b);}.bt{fill:#9fa2a4;}.bu{fill:#7dafbc;}.bv{fill:#61b9d0;}.bw{fill:#6db4c7;}.bx{fill:#88aab4;}.by{fill:#91a7ad;}.bz{fill:#949799;}.ca{fill:#72a3b1;}.cb{fill:#56adc5;}.cc{fill:#62a9bc;}.cd{fill:#7d9fa9;}.ce{fill:#869ca2;}.cf{fill:#999c9e;}.cg{fill:#77a8b6;}.ch{fill:#5bb2ca;}.ci{fill:#68aec2;}.cj{fill:#82a4ae;}.ck{fill:#8ba1a7;}.cl{fill:#8e9193;}.cm{fill:#6c9dab;}.cn{fill:#50a7bf;}.co{fill:#5da3b7;}.cp{fill:#7799a3;}.cq{fill:#80969c;}.cr{fill:#898c8e;}.cs{fill:#6798a6;}.ct{fill:#4ba2ba;}.cu{fill:#579eb1;}.cv{fill:#72949e;}.cw{fill:#7b9197;}.cx{fill:#818486;}.cy{fill:#5f909e;}.cz{fill:#449ab3;}.da{fill:#5096aa;}.db{fill:#6a8c96;}.dc{fill:#748990;}.dd{fill:#7b7e80;}.de{fill:#598b98;}.df{fill:#4093a9;}.dg{fill:#4990a3;}.dh{fill:#648690;}.di{fill:#6d8389;}.dj{fill:#6e7273;}.dk{fill:#4c7f8b;}.dl{fill:#408393;}.dm{fill:#577b83;}.dn{fill:#61777d;}.do{fill:#75787a;}.dp{fill:#538492;}.dq{fill:#408a9f;}.dr{fill:#438a9d;}.ds{fill:#5e808a;}.dt{fill:#677d83;}.du{fill:#676b6c;}.dv{fill:#467885;}.dw{fill:#407987;}.dx{fill:#407a88;}.dy{fill:#51747d;}.dz{fill:#5a7076;}.ea{fill:#636768;}.eb{fill:#417480;}.ec{fill:#407480;}.ed{fill:#4d7079;}.ee{fill:#566c72;}.ef{fill:#5f6264;}.eg{fill:#406b79;}.eh{fill:#406c79;}.ei{fill:#406d79;}.ej{fill:#51676d;}.ek{fill:#595c5e;}.el{fill:#406470;}.em{fill:#406471;}.en{fill:#43646f;}.eo{fill:#4c6168;}.ep{fill:#405e6a;}.eq{fill:#405d68;}.er{fill:#405d69;}.es{fill:#405d6a;}.et{fill:#475b63;}.eu,.ev{stroke:#e6e7e8;}.eu,.ev,.ew,.ex,.ey,.ez,.fa,.fb,.fc,.fd,.fe,.ff{stroke-width:0.5px;}.eu,.ew,.ey,.fa,.fc,.fe{stroke-dasharray:1;}.ew,.ex{stroke:#bbbdbf;}.ey,.ez{stroke:#929497;}.fa,.fb{stroke:#6d6e70;}.fc,.fd{stroke:#404041;}.fe,.ff{stroke:#231f20;}.fg{clip-path:url(#c);}.fh{fill:#a4a4a4;}.fi{fill:#bcbcbc;}.fj{fill:#d0d0d0;}.fk{fill:#c7c7c7;}.fl{fill:#b4b4b4;}.fm{fill:#adadad;}.fn{fill:#999;}.fo{fill:#b1b1b1;}.fp{fill:#c5c5c5;}.fq{fill:#a9a9a9;}.fr{fill:#a2a2a2;}.fs{fill:#9e9e9e;}.ft{fill:#b6b6b6;}.fu{fill:#cacaca;}.fv{fill:#c2c2c2;}.fw{fill:#aeaeae;}.fx{fill:#a7a7a7;}.fy{fill:#939393;}.fz{fill:#ababab;}.ga{fill:#bfbfbf;}.gb{fill:#b7b7b7;}.gc{fill:#a3a3a3;}.gd{fill:#9c9c9c;}.ge{fill:#8e8e8e;}.gf{fill:#a6a6a6;}.gg{fill:#bababa;}.gh{fill:#979797;}.gi{fill:#868686;}.gj{fill:#b3b3b3;}.gk{fill:#aaa;}.gl{fill:#969696;}.gm{fill:#909090;}.gn{fill:gray;}.go{fill:#989898;}.gp{fill:#898989;}.gq{fill:#737373;}.gr{fill:#8b8b8b;}.gs{fill:#838383;}.gt{fill:#7d7d7d;}.gu{fill:#7a7a7a;}.gv{fill:#929292;}.gw{fill:#9f9f9f;}.gx{fill:#9d9d9d;}.gy{fill:#8a8a8a;}.gz{fill:#6c6c6c;}.ha{fill:#858585;}.hb{fill:#878787;}.hc{fill:#888;}.hd{fill:#767676;}.he{fill:#686868;}.hf{fill:#797979;}.hg{fill:#727272;}.hh{fill:#646464;}.hi{fill:#747474;}.hj{fill:#6d6d6d;}.hk{fill:#5e5e5e;}.hl{fill:#707070;}.hm{fill:#717171;}.hn{fill:#6f6f6f;}.ho{fill:#595959;}.hp{fill:#6a6a6a;}.hq{fill:#696969;}.hr{fill:#636363;}.hs{clip-path:url(#d);}.ht{clip-path:url(#e);}.hu{clip-path:url(#f);}.hv{fill:#231f20;}.hw{fill:#404041;}.hx{fill:#f1f1f2;}.hy{fill:#bbbdbf;}.hz{fill:#d0d2d3;}</style><clipPath id="a"><polygon class="a" points="391.997 255.258 8.003 8.391 391.997 8.391 391.997 255.258"/></clipPath><clipPath id="b"><polygon class="a" points="8 8.391 391.994 255.258 8 255.258 8 8.391"/></clipPath><clipPath id="c"><polygon class="a" points="282.287 0.922 282.287 76.239 399.441 76.239 282.287 0.922"/></clipPath><clipPath id="d"><polygon class="a" points="282.293 38.581 399.447 113.898 282.293 113.898 282.293 38.581"/></clipPath><clipPath id="e"><polygon class="a" points="399.448 76.239 282.294 0.922 399.448 0.922 399.448 76.239"/></clipPath><clipPath id="f"><polygon class="a" points="399.447 113.898 399.448 38.581 282.293 38.581 399.447 113.898"/></clipPath></defs><title>scrat-screenaligned-quad</title><g class="b"><rect class="c" x="337.1398" y="227.8285" width="13.7144" height="13.7149"/><rect class="d" x="350.8542" y="214.1134" width="13.7133" height="13.7151"/><rect class="d" x="337.1398" y="214.1134" width="13.7144" height="13.7151"/><rect class="e" x="350.8542" y="227.8285" width="13.7133" height="13.7149"/><rect class="f" x="323.4277" y="214.1134" width="13.7121" height="13.7151"/><rect class="g" x="364.5652" y="241.5434" width="13.7144" height="13.7145"/><rect class="h" x="364.5652" y="227.8285" width="13.7144" height="13.7149"/><rect class="i" x="378.2796" y="214.1134" width="13.7145" height="13.7151"/><rect class="j" x="364.5652" y="214.1134" width="13.7144" height="13.7151"/><rect class="k" x="378.2796" y="227.8285" width="13.7145" height="13.7149"/><rect class="l" x="378.2796" y="241.5434" width="13.7145" height="13.7145"/><rect class="m" x="268.5687" y="172.9689" width="13.7144" height="13.7151"/><rect class="n" x="254.853" y="172.9689" width="13.7157" height="13.7151"/><rect class="o" x="282.2831" y="186.684" width="13.7133" height="13.7149"/><rect class="p" x="295.9964" y="172.9689" width="13.7169" height="13.7151"/><rect class="p" x="282.2831" y="172.9689" width="13.7133" height="13.7151"/><rect class="q" x="295.9964" y="186.684" width="13.7169" height="13.7149"/><rect class="r" x="295.9964" y="200.3989" width="13.7169" height="13.7145"/><rect class="s" x="309.7133" y="200.3989" width="13.7144" height="13.7145"/><rect class="t" x="309.7133" y="186.684" width="13.7144" height="13.7149"/><rect class="f" x="323.4277" y="172.9689" width="13.7121" height="13.7151"/><rect class="u" x="309.7133" y="172.9689" width="13.7144" height="13.7151"/><rect class="v" x="323.4277" y="186.684" width="13.7121" height="13.7149"/><rect class="w" x="323.4277" y="200.3989" width="13.7121" height="13.7145"/><rect class="x" x="227.4253" y="145.5395" width="13.7157" height="13.7149"/><rect class="y" x="241.141" y="131.8244" width="13.712" height="13.7151"/><rect class="y" x="227.4253" y="131.8244" width="13.7157" height="13.7151"/><rect class="z" x="241.141" y="145.5395" width="13.712" height="13.7149"/><rect class="aa" x="241.141" y="159.2544" width="13.712" height="13.7145"/><rect class="ab" x="213.7132" y="131.8244" width="13.7121" height="13.7151"/><rect class="ac" x="199.9976" y="131.8244" width="13.7156" height="13.7151"/><rect class="ad" x="213.7132" y="145.5395" width="13.7121" height="13.7149"/><rect class="ae" x="254.853" y="159.2544" width="13.7157" height="13.7145"/><rect class="af" x="254.853" y="145.5395" width="13.7157" height="13.7149"/><rect class="m" x="268.5687" y="131.8244" width="13.7144" height="13.7151"/><rect class="n" x="254.853" y="131.8244" width="13.7157" height="13.7151"/><rect class="ag" x="268.5687" y="145.5395" width="13.7144" height="13.7149"/><rect class="ah" x="268.5687" y="159.2544" width="13.7144" height="13.7145"/><rect class="ai" x="145.1433" y="104.395" width="13.7133" height="13.7149"/><rect class="aj" x="158.8566" y="90.6799" width="13.7132" height="13.7151"/><rect class="ak" x="145.1433" y="90.6799" width="13.7133" height="13.7151"/><rect class="al" x="158.8566" y="104.395" width="13.7132" height="13.7149"/><rect class="am" x="131.4277" y="90.6799" width="13.7156" height="13.7151"/><rect class="an" x="172.5698" y="118.1099" width="13.7134" height="13.7145"/><rect class="ao" x="172.5698" y="104.395" width="13.7134" height="13.7149"/><rect class="ap" x="186.2832" y="90.6799" width="13.7144" height="13.7151"/><rect class="aq" x="172.5698" y="90.6799" width="13.7134" height="13.7151"/><rect class="ar" x="186.2832" y="104.395" width="13.7144" height="13.7149"/><rect class="as" x="186.2832" y="118.1099" width="13.7144" height="13.7145"/><rect class="at" x="76.5698" y="49.5354" width="13.7145" height="13.7151"/><rect class="au" x="62.8542" y="49.5354" width="13.7156" height="13.7151"/><rect class="av" x="90.2843" y="63.2505" width="13.7157" height="13.7149"/><rect class="aw" x="104" y="49.5354" width="13.7109" height="13.7151"/><rect class="ax" x="90.2843" y="49.5354" width="13.7157" height="13.7151"/><rect class="ay" x="104" y="63.2505" width="13.7109" height="13.7149"/><rect class="az" x="104" y="76.9654" width="13.7109" height="13.7145"/><rect class="ba" x="117.7109" y="76.9654" width="13.7168" height="13.7145"/><rect class="bb" x="117.7109" y="63.2505" width="13.7168" height="13.7149"/><rect class="am" x="131.4277" y="49.5354" width="13.7156" height="13.7151"/><rect class="bc" x="117.7109" y="49.5354" width="13.7168" height="13.7151"/><rect class="bd" x="131.4277" y="63.2505" width="13.7156" height="13.7149"/><rect class="be" x="131.4277" y="76.9654" width="13.7156" height="13.7145"/><rect class="bf" x="21.7132" y="8.3909" width="13.7145" height="13.7151"/><rect class="bg" x="8" y="8.3909" width="13.7132" height="13.7151"/><rect class="bh" x="21.7132" y="22.106" width="13.7145" height="13.7149"/><rect class="bi" x="62.8542" y="35.8209" width="13.7156" height="13.7145"/><rect class="bj" x="62.8542" y="22.106" width="13.7156" height="13.7149"/><rect class="at" x="76.5698" y="8.3909" width="13.7145" height="13.7151"/><rect class="au" x="62.8542" y="8.3909" width="13.7156" height="13.7151"/><rect class="bk" x="76.5698" y="22.106" width="13.7145" height="13.7149"/><rect class="bl" x="76.5698" y="35.8209" width="13.7145" height="13.7145"/><rect class="bm" x="35.4277" y="22.106" width="13.7144" height="13.7149"/><rect class="bn" x="49.1421" y="8.3909" width="13.7121" height="13.7151"/><rect class="bo" x="35.4277" y="8.3909" width="13.7144" height="13.7151"/><rect class="bp" x="49.1421" y="22.106" width="13.7121" height="13.7149"/><rect class="bq" x="49.1421" y="35.8209" width="13.7121" height="13.7145"/><line class="br" x1="8.0029" y1="8.3909" x2="391.997" y2="255.2579"/></g><g class="bs"><rect class="bt" x="8" y="35.821" width="13.7132" height="13.7145"/><rect class="bu" x="8" y="22.1061" width="13.7132" height="13.7149"/><rect class="bv" x="21.7132" y="8.391" width="13.7145" height="13.7151"/><rect class="bw" x="8" y="8.391" width="13.7132" height="13.7151"/><rect class="bx" x="21.7132" y="22.1061" width="13.7145" height="13.7149"/><rect class="by" x="21.7132" y="35.821" width="13.7145" height="13.7145"/><rect class="bz" x="62.8542" y="35.821" width="13.7156" height="13.7145"/><rect class="ca" x="62.8542" y="22.1061" width="13.7156" height="13.7149"/><rect class="cb" x="76.5698" y="8.391" width="13.7145" height="13.7151"/><rect class="cc" x="62.8542" y="8.391" width="13.7156" height="13.7151"/><rect class="cd" x="76.5698" y="22.1061" width="13.7145" height="13.7149"/><rect class="ce" x="76.5698" y="35.821" width="13.7145" height="13.7145"/><rect class="cf" x="35.4277" y="35.821" width="13.7144" height="13.7145"/><rect class="cg" x="35.4277" y="22.1061" width="13.7144" height="13.7149"/><rect class="ch" x="49.1421" y="8.391" width="13.7121" height="13.7151"/><rect class="ci" x="35.4277" y="8.391" width="13.7144" height="13.7151"/><rect class="cj" x="49.1421" y="22.1061" width="13.7121" height="13.7149"/><rect class="ck" x="49.1421" y="35.821" width="13.7121" height="13.7145"/><rect class="bz" x="62.8542" y="76.9655" width="13.7156" height="13.7145"/><rect class="ca" x="62.8542" y="63.2506" width="13.7156" height="13.7149"/><rect class="cb" x="76.5698" y="49.5355" width="13.7145" height="13.7151"/><rect class="cc" x="62.8542" y="49.5355" width="13.7156" height="13.7151"/><rect class="cd" x="76.5698" y="63.2506" width="13.7145" height="13.7149"/><rect class="ce" x="76.5698" y="76.9655" width="13.7145" height="13.7145"/><rect class="cl" x="90.2843" y="76.9655" width="13.7157" height="13.7145"/><rect class="cm" x="90.2843" y="63.2506" width="13.7157" height="13.7149"/><rect class="cn" x="104" y="49.5355" width="13.7109" height="13.7151"/><rect class="co" x="90.2843" y="49.5355" width="13.7157" height="13.7151"/><rect class="cp" x="104" y="63.2506" width="13.7109" height="13.7149"/><rect class="cq" x="104" y="76.9655" width="13.7109" height="13.7145"/><rect class="cr" x="117.7109" y="76.9655" width="13.7168" height="13.7145"/><rect class="cs" x="117.7109" y="63.2506" width="13.7168" height="13.7149"/><rect class="ct" x="131.4277" y="49.5355" width="13.7156" height="13.7151"/><rect class="cu" x="117.7109" y="49.5355" width="13.7168" height="13.7151"/><rect class="cv" x="131.4277" y="63.2506" width="13.7156" height="13.7149"/><rect class="cw" x="131.4277" y="76.9655" width="13.7156" height="13.7145"/><rect class="cx" x="145.1433" y="118.11" width="13.7133" height="13.7145"/><rect class="cy" x="145.1433" y="104.3951" width="13.7133" height="13.7149"/><rect class="cz" x="158.8566" y="90.68" width="13.7132" height="13.7151"/><rect class="da" x="145.1433" y="90.68" width="13.7133" height="13.7151"/><rect class="db" x="158.8566" y="104.3951" width="13.7132" height="13.7149"/><rect class="dc" x="158.8566" y="118.11" width="13.7132" height="13.7145"/><rect class="cr" x="117.7109" y="118.11" width="13.7168" height="13.7145"/><rect class="cs" x="117.7109" y="104.3951" width="13.7168" height="13.7149"/><rect class="ct" x="131.4277" y="90.68" width="13.7156" height="13.7151"/><rect class="cu" x="117.7109" y="90.68" width="13.7168" height="13.7151"/><rect class="cv" x="131.4277" y="104.3951" width="13.7156" height="13.7149"/><rect class="cw" x="131.4277" y="118.11" width="13.7156" height="13.7145"/><rect class="dd" x="172.5698" y="118.11" width="13.7134" height="13.7145"/><rect class="de" x="172.5698" y="104.3951" width="13.7134" height="13.7149"/><rect class="df" x="186.2832" y="90.68" width="13.7144" height="13.7151"/><rect class="dg" x="172.5698" y="90.68" width="13.7134" height="13.7151"/><rect class="dh" x="186.2832" y="104.3951" width="13.7144" height="13.7149"/><rect class="di" x="186.2832" y="118.11" width="13.7144" height="13.7145"/><rect class="dj" x="227.4253" y="159.2542" width="13.7157" height="13.7145"/><rect class="dk" x="227.4253" y="145.5393" width="13.7157" height="13.7149"/><rect class="dl" x="241.141" y="131.8242" width="13.712" height="13.7151"/><rect class="dl" x="227.4253" y="131.8242" width="13.7157" height="13.7151"/><rect class="dm" x="241.141" y="145.5393" width="13.712" height="13.7149"/><rect class="dn" x="241.141" y="159.2542" width="13.712" height="13.7145"/><rect class="do" x="199.9976" y="159.2542" width="13.7156" height="13.7145"/><rect class="dp" x="199.9976" y="145.5393" width="13.7156" height="13.7149"/><rect class="dq" x="213.7132" y="131.8242" width="13.7121" height="13.7151"/><rect class="dr" x="199.9976" y="131.8242" width="13.7156" height="13.7151"/><rect class="ds" x="213.7132" y="145.5393" width="13.7121" height="13.7149"/><rect class="dt" x="213.7132" y="159.2542" width="13.7121" height="13.7145"/><rect class="du" x="254.853" y="159.2542" width="13.7157" height="13.7145"/><rect class="dv" x="254.853" y="145.5393" width="13.7157" height="13.7149"/><rect class="dw" x="268.5687" y="131.8242" width="13.7144" height="13.7151"/><rect class="dx" x="254.853" y="131.8242" width="13.7157" height="13.7151"/><rect class="dy" x="268.5687" y="145.5393" width="13.7144" height="13.7149"/><rect class="dz" x="268.5687" y="159.2542" width="13.7144" height="13.7145"/><rect class="du" x="254.853" y="200.3987" width="13.7157" height="13.7145"/><rect class="dv" x="254.853" y="186.6838" width="13.7157" height="13.7149"/><rect class="dw" x="268.5687" y="172.9687" width="13.7144" height="13.7151"/><rect class="dx" x="254.853" y="172.9687" width="13.7157" height="13.7151"/><rect class="dy" x="268.5687" y="186.6838" width="13.7144" height="13.7149"/><rect class="dz" x="268.5687" y="200.3987" width="13.7144" height="13.7145"/><rect class="ea" x="282.2831" y="200.3987" width="13.7133" height="13.7145"/><rect class="eb" x="282.2831" y="186.6838" width="13.7133" height="13.7149"/><rect class="ec" x="295.9964" y="172.9687" width="13.7169" height="13.7151"/><rect class="ec" x="282.2831" y="172.9687" width="13.7133" height="13.7151"/><rect class="ed" x="295.9964" y="186.6838" width="13.7169" height="13.7149"/><rect class="ee" x="295.9964" y="200.3987" width="13.7169" height="13.7145"/><rect class="ef" x="309.7133" y="200.3987" width="13.7144" height="13.7145"/><rect class="eg" x="309.7133" y="186.6838" width="13.7144" height="13.7149"/><rect class="eh" x="323.4277" y="172.9687" width="13.7121" height="13.7151"/><rect class="ei" x="309.7133" y="172.9687" width="13.7144" height="13.7151"/><rect class="bh" x="323.4277" y="186.6838" width="13.7121" height="13.7149"/><rect class="ej" x="323.4277" y="200.3987" width="13.7121" height="13.7145"/><rect class="ek" x="337.1398" y="241.5432" width="13.7144" height="13.7145"/><rect class="el" x="337.1398" y="227.8283" width="13.7144" height="13.7149"/><rect class="em" x="350.8542" y="214.1132" width="13.7133" height="13.7151"/><rect class="em" x="337.1398" y="214.1132" width="13.7144" height="13.7151"/><rect class="en" x="350.8542" y="227.8283" width="13.7133" height="13.7149"/><rect class="eo" x="350.8542" y="241.5432" width="13.7133" height="13.7145"/><rect class="ef" x="309.7133" y="241.5432" width="13.7144" height="13.7145"/><rect class="eg" x="309.7133" y="227.8283" width="13.7144" height="13.7149"/><rect class="eh" x="323.4277" y="214.1132" width="13.7121" height="13.7151"/><rect class="ei" x="309.7133" y="214.1132" width="13.7144" height="13.7151"/><rect class="bh" x="323.4277" y="227.8283" width="13.7121" height="13.7149"/><rect class="ej" x="323.4277" y="241.5432" width="13.7121" height="13.7145"/><rect class="bi" x="364.5652" y="241.5432" width="13.7144" height="13.7145"/><rect class="ep" x="364.5652" y="227.8283" width="13.7144" height="13.7149"/><rect class="eq" x="378.2796" y="214.1132" width="13.7145" height="13.7151"/><rect class="er" x="364.5652" y="214.1132" width="13.7144" height="13.7151"/><rect class="es" x="378.2796" y="227.8283" width="13.7145" height="13.7149"/><rect class="et" x="378.2796" y="241.5432" width="13.7145" height="13.7145"/></g><line class="eu" x1="254.8569" y1="22.1054" x2="227.4292" y2="22.1054"/><line class="eu" x1="254.8569" y1="35.8203" x2="227.4292" y2="35.8203"/><line class="eu" x1="241.1412" y1="49.5354" x2="241.1412" y2="8.3909"/><rect class="ev" x="227.4292" y="8.3909" width="27.4277" height="41.1445" transform="translate(482.2861 57.9263) rotate(180)"/><line class="ew" x1="227.4274" y1="22.1054" x2="199.9997" y2="22.1054"/><line class="ew" x1="227.4274" y1="35.8203" x2="199.9997" y2="35.8203"/><line class="ew" x1="213.7117" y1="49.5354" x2="213.7117" y2="8.3909"/><rect class="ex" x="199.9997" y="8.3909" width="27.4277" height="41.1445" transform="translate(427.4271 57.9263) rotate(180)"/><line class="ey" x1="199.9969" y1="22.1054" x2="172.5692" y2="22.1054"/><line class="ey" x1="199.9969" y1="35.8203" x2="172.5692" y2="35.8203"/><line class="ey" x1="186.2812" y1="49.5354" x2="186.2812" y2="8.3909"/><rect class="ez" x="172.5692" y="8.3909" width="27.4277" height="41.1445" transform="translate(372.5661 57.9263) rotate(180)"/><line class="fa" x1="172.5685" y1="22.1054" x2="145.1408" y2="22.1054"/><line class="fa" x1="172.5685" y1="35.8203" x2="145.1408" y2="35.8203"/><line class="fa" x1="158.8528" y1="49.5354" x2="158.8528" y2="8.3909"/><rect class="fb" x="145.1408" y="8.3909" width="27.4277" height="41.1445" transform="translate(317.7093 57.9263) rotate(180)"/><line class="fc" x1="145.1415" y1="22.1054" x2="117.7138" y2="22.1054"/><line class="fc" x1="145.1415" y1="35.8203" x2="117.7138" y2="35.8203"/><line class="fc" x1="131.4259" y1="49.5354" x2="131.4259" y2="8.3909"/><rect class="fd" x="117.7138" y="8.3909" width="27.4277" height="41.1445" transform="translate(262.8553 57.9263) rotate(180)"/><line class="fe" x1="117.7165" y1="22.1054" x2="90.2888" y2="22.1054"/><line class="fe" x1="117.7165" y1="35.8203" x2="90.2888" y2="35.8203"/><line class="fe" x1="104.0008" y1="49.5354" x2="104.0008" y2="8.3909"/><rect class="ff" x="90.2888" y="8.3909" width="27.4277" height="41.1445" transform="translate(208.0053 57.9263) rotate(180)"/><line class="eu" x1="172.5728" y1="227.829" x2="145.1451" y2="227.829"/><line class="eu" x1="172.5728" y1="241.5439" x2="145.1451" y2="241.5439"/><line class="eu" x1="158.8571" y1="255.259" x2="158.8571" y2="214.1145"/><rect class="ev" x="145.1451" y="214.1145" width="27.4277" height="41.1445" transform="translate(317.7179 469.3735) rotate(180)"/><line class="ew" x1="145.1433" y1="227.829" x2="117.7156" y2="227.829"/><line class="ew" x1="145.1433" y1="241.5439" x2="117.7156" y2="241.5439"/><line class="ew" x1="131.4276" y1="255.259" x2="131.4276" y2="214.1145"/><rect class="ex" x="117.7156" y="214.1145" width="27.4277" height="41.1445" transform="translate(262.8589 469.3735) rotate(180)"/><line class="ey" x1="117.7129" y1="227.829" x2="90.2852" y2="227.829"/><line class="ey" x1="117.7129" y1="241.5439" x2="90.2852" y2="241.5439"/><line class="ey" x1="103.9972" y1="255.259" x2="103.9972" y2="214.1145"/><rect class="ez" x="90.2852" y="214.1145" width="27.4277" height="41.1445" transform="translate(207.9981 469.3735) rotate(180)"/><line class="fa" x1="90.2844" y1="227.829" x2="62.8567" y2="227.829"/><line class="fa" x1="90.2844" y1="241.5439" x2="62.8567" y2="241.5439"/><line class="fa" x1="76.5687" y1="255.259" x2="76.5687" y2="214.1145"/><rect class="fb" x="62.8567" y="214.1145" width="27.4277" height="41.1445" transform="translate(153.1411 469.3735) rotate(180)"/><line class="fc" x1="62.8575" y1="227.829" x2="35.4298" y2="227.829"/><line class="fc" x1="62.8575" y1="241.5439" x2="35.4298" y2="241.5439"/><line class="fc" x1="49.1418" y1="255.259" x2="49.1418" y2="214.1145"/><rect class="fd" x="35.4298" y="214.1145" width="27.4277" height="41.1445" transform="translate(98.2873 469.3735) rotate(180)"/><line class="fe" x1="35.4324" y1="227.829" x2="8.0047" y2="227.829"/><line class="fe" x1="35.4324" y1="241.5439" x2="8.0047" y2="241.5439"/><line class="fe" x1="21.7167" y1="255.259" x2="21.7167" y2="214.1145"/><rect class="ff" x="8.0047" y="214.1145" width="27.4277" height="41.1445" transform="translate(43.4371 469.3735) rotate(180)"/><g class="fg"><rect class="fh" x="282.286" y="9.2909" width="4.1838" height="4.1842"/><rect class="fi" x="282.286" y="5.1066" width="4.1838" height="4.1843"/><rect class="fj" x="286.4698" y="0.9222" width="4.1842" height="4.1844"/><rect class="fk" x="282.286" y="0.9222" width="4.1838" height="4.1844"/><rect class="fl" x="286.4698" y="5.1066" width="4.1842" height="4.1843"/><rect class="fm" x="286.4698" y="9.2909" width="4.1842" height="4.1842"/><rect class="fn" x="299.0216" y="9.2909" width="4.1845" height="4.1842"/><rect class="fo" x="299.0216" y="5.1066" width="4.1845" height="4.1843"/><rect class="fp" x="303.2061" y="0.9222" width="4.1842" height="4.1844"/><rect class="fi" x="299.0216" y="0.9222" width="4.1845" height="4.1844"/><rect class="fq" x="303.2061" y="5.1066" width="4.1842" height="4.1843"/><rect class="fr" x="303.2061" y="9.2909" width="4.1842" height="4.1842"/><rect class="fs" x="290.654" y="9.2909" width="4.1841" height="4.1842"/><rect class="ft" x="290.654" y="5.1066" width="4.1841" height="4.1843"/><rect class="fu" x="294.8381" y="0.9222" width="4.1835" height="4.1844"/><rect class="fv" x="290.654" y="0.9222" width="4.1841" height="4.1844"/><rect class="fw" x="294.8381" y="5.1066" width="4.1835" height="4.1843"/><rect class="fx" x="294.8381" y="9.2909" width="4.1835" height="4.1842"/><rect class="fn" x="299.0216" y="21.8438" width="4.1845" height="4.1842"/><rect class="fo" x="299.0216" y="17.6595" width="4.1845" height="4.1843"/><rect class="fp" x="303.2061" y="13.4751" width="4.1842" height="4.1844"/><rect class="fi" x="299.0216" y="13.4751" width="4.1845" height="4.1844"/><rect class="fq" x="303.2061" y="17.6595" width="4.1842" height="4.1843"/><rect class="fr" x="303.2061" y="21.8438" width="4.1842" height="4.1842"/><rect class="fy" x="307.3903" y="21.8438" width="4.1846" height="4.1842"/><rect class="fz" x="307.3903" y="17.6595" width="4.1846" height="4.1843"/><rect class="ga" x="311.5749" y="13.4751" width="4.1831" height="4.1844"/><rect class="gb" x="307.3903" y="13.4751" width="4.1846" height="4.1844"/><rect class="gc" x="311.5749" y="17.6595" width="4.1831" height="4.1843"/><rect class="gd" x="311.5749" y="21.8438" width="4.1831" height="4.1842"/><rect class="ge" x="315.758" y="21.8438" width="4.1849" height="4.1842"/><rect class="gf" x="315.758" y="17.6595" width="4.1849" height="4.1843"/><rect class="gg" x="319.9429" y="13.4751" width="4.1845" height="4.1844"/><rect class="fo" x="315.758" y="13.4751" width="4.1849" height="4.1844"/><rect class="fs" x="319.9429" y="17.6595" width="4.1845" height="4.1843"/><rect class="gh" x="319.9429" y="21.8438" width="4.1845" height="4.1842"/><rect class="gi" x="324.1274" y="34.3967" width="4.1838" height="4.1841"/><rect class="fs" x="324.1274" y="30.2123" width="4.1838" height="4.1844"/><rect class="gj" x="328.3112" y="26.028" width="4.1838" height="4.1843"/><rect class="gk" x="324.1274" y="26.028" width="4.1838" height="4.1843"/><rect class="gl" x="328.3112" y="30.2123" width="4.1838" height="4.1844"/><rect class="gm" x="328.3112" y="34.3967" width="4.1838" height="4.1841"/><rect class="ge" x="315.758" y="34.3967" width="4.1849" height="4.1841"/><rect class="gf" x="315.758" y="30.2123" width="4.1849" height="4.1844"/><rect class="gg" x="319.9429" y="26.028" width="4.1845" height="4.1843"/><rect class="fo" x="315.758" y="26.028" width="4.1849" height="4.1843"/><rect class="fs" x="319.9429" y="30.2123" width="4.1845" height="4.1844"/><rect class="gh" x="319.9429" y="34.3967" width="4.1845" height="4.1841"/><rect class="gn" x="332.495" y="34.3967" width="4.1839" height="4.1841"/><rect class="go" x="332.495" y="30.2123" width="4.1839" height="4.1844"/><rect class="fq" x="336.6789" y="26.028" width="4.1841" height="4.1843"/><rect class="gc" x="332.495" y="26.028" width="4.1839" height="4.1843"/><rect class="gm" x="336.6789" y="30.2123" width="4.1841" height="4.1844"/><rect class="gp" x="336.6789" y="34.3967" width="4.1841" height="4.1841"/><rect class="gq" x="349.231" y="46.9495" width="4.1846" height="4.1842"/><rect class="gr" x="349.231" y="42.7652" width="4.1846" height="4.1843"/><rect class="fy" x="353.4156" y="38.5808" width="4.1834" height="4.1844"/><rect class="fy" x="349.231" y="38.5808" width="4.1846" height="4.1844"/><rect class="gs" x="353.4156" y="42.7652" width="4.1834" height="4.1843"/><rect class="gt" x="353.4156" y="46.9495" width="4.1834" height="4.1842"/><rect class="gu" x="340.863" y="46.9495" width="4.1846" height="4.1842"/><rect class="gv" x="340.863" y="42.7652" width="4.1846" height="4.1843"/><rect class="gw" x="345.0476" y="38.5808" width="4.1834" height="4.1844"/><rect class="gx" x="340.863" y="38.5808" width="4.1846" height="4.1844"/><rect class="gy" x="345.0476" y="42.7652" width="4.1834" height="4.1843"/><rect class="gs" x="345.0476" y="46.9495" width="4.1834" height="4.1842"/><rect class="gz" x="357.599" y="46.9495" width="4.1846" height="4.1842"/><rect class="ha" x="357.599" y="42.7652" width="4.1846" height="4.1843"/><rect class="hb" x="361.7836" y="38.5808" width="4.1841" height="4.1844"/><rect class="hc" x="357.599" y="38.5808" width="4.1846" height="4.1844"/><rect class="gt" x="361.7836" y="42.7652" width="4.1841" height="4.1843"/><rect class="hd" x="361.7836" y="46.9495" width="4.1841" height="4.1842"/><rect class="gz" x="357.599" y="59.5024" width="4.1846" height="4.1842"/><rect class="ha" x="357.599" y="55.3181" width="4.1846" height="4.1843"/><rect class="hb" x="361.7836" y="51.1337" width="4.1841" height="4.1844"/><rect class="hc" x="357.599" y="51.1337" width="4.1846" height="4.1844"/><rect class="gt" x="361.7836" y="55.3181" width="4.1841" height="4.1843"/><rect class="hd" x="361.7836" y="59.5024" width="4.1841" height="4.1842"/><rect class="he" x="365.9677" y="59.5024" width="4.1839" height="4.1842"/><rect class="gn" x="365.9677" y="55.3181" width="4.1839" height="4.1843"/><rect class="gn" x="370.1516" y="51.1337" width="4.1849" height="4.1844"/><rect class="gn" x="365.9677" y="51.1337" width="4.1839" height="4.1844"/><rect class="hf" x="370.1516" y="55.3181" width="4.1849" height="4.1843"/><rect class="hg" x="370.1516" y="59.5024" width="4.1849" height="4.1842"/><rect class="hh" x="374.3365" y="59.5024" width="4.1841" height="4.1842"/><rect class="hf" x="374.3365" y="55.3181" width="4.1841" height="4.1843"/><rect class="hf" x="378.5206" y="51.1337" width="4.1835" height="4.1844"/><rect class="hf" x="374.3365" y="51.1337" width="4.1841" height="4.1844"/><rect class="hi" x="378.5206" y="55.3181" width="4.1835" height="4.1843"/><rect class="hj" x="378.5206" y="59.5024" width="4.1835" height="4.1842"/><rect class="hk" x="382.7041" y="72.0553" width="4.1842" height="4.1842"/><rect class="hl" x="382.7041" y="67.871" width="4.1842" height="4.1843"/><rect class="hm" x="386.8883" y="63.6866" width="4.1838" height="4.1844"/><rect class="hm" x="382.7041" y="63.6866" width="4.1842" height="4.1844"/><rect class="hn" x="386.8883" y="67.871" width="4.1838" height="4.1843"/><rect class="he" x="386.8883" y="72.0553" width="4.1838" height="4.1842"/><rect class="hh" x="374.3365" y="72.0553" width="4.1841" height="4.1842"/><rect class="hf" x="374.3365" y="67.871" width="4.1841" height="4.1843"/><rect class="hf" x="378.5206" y="63.6866" width="4.1835" height="4.1844"/><rect class="hf" x="374.3365" y="63.6866" width="4.1841" height="4.1844"/><rect class="hi" x="378.5206" y="67.871" width="4.1835" height="4.1843"/><rect class="hj" x="378.5206" y="72.0553" width="4.1835" height="4.1842"/><rect class="ho" x="391.0714" y="72.0553" width="4.1842" height="4.1842"/><rect class="hp" x="391.0714" y="67.871" width="4.1842" height="4.1843"/><rect class="he" x="395.2556" y="63.6866" width="4.1841" height="4.1844"/><rect class="hq" x="391.0714" y="63.6866" width="4.1842" height="4.1844"/><rect class="hp" x="395.2556" y="67.871" width="4.1841" height="4.1843"/><rect class="hr" x="395.2556" y="72.0553" width="4.1841" height="4.1842"/></g><g class="hs"><rect class="bt" x="282.293" y="46.9495" width="4.1838" height="4.1842"/><rect class="bu" x="282.293" y="42.7652" width="4.1838" height="4.1843"/><rect class="bv" x="286.4768" y="38.5808" width="4.1842" height="4.1844"/><rect class="bw" x="282.293" y="38.5808" width="4.1838" height="4.1844"/><rect class="bx" x="286.4768" y="42.7652" width="4.1842" height="4.1843"/><rect class="by" x="286.4768" y="46.9495" width="4.1842" height="4.1842"/><rect class="bz" x="299.0287" y="46.9495" width="4.1845" height="4.1842"/><rect class="ca" x="299.0287" y="42.7652" width="4.1845" height="4.1843"/><rect class="cb" x="303.2132" y="38.5808" width="4.1842" height="4.1844"/><rect class="cc" x="299.0287" y="38.5808" width="4.1845" height="4.1844"/><rect class="cd" x="303.2132" y="42.7652" width="4.1842" height="4.1843"/><rect class="ce" x="303.2132" y="46.9495" width="4.1842" height="4.1842"/><rect class="cf" x="290.661" y="46.9495" width="4.1842" height="4.1842"/><rect class="cg" x="290.661" y="42.7652" width="4.1842" height="4.1843"/><rect class="ch" x="294.8452" y="38.5808" width="4.1835" height="4.1844"/><rect class="ci" x="290.661" y="38.5808" width="4.1842" height="4.1844"/><rect class="cj" x="294.8452" y="42.7652" width="4.1835" height="4.1843"/><rect class="ck" x="294.8452" y="46.9495" width="4.1835" height="4.1842"/><rect class="bz" x="299.0287" y="59.5024" width="4.1845" height="4.1842"/><rect class="ca" x="299.0287" y="55.3181" width="4.1845" height="4.1843"/><rect class="cb" x="303.2132" y="51.1337" width="4.1842" height="4.1844"/><rect class="cc" x="299.0287" y="51.1337" width="4.1845" height="4.1844"/><rect class="cd" x="303.2132" y="55.3181" width="4.1842" height="4.1843"/><rect class="ce" x="303.2132" y="59.5024" width="4.1842" height="4.1842"/><rect class="cl" x="307.3974" y="59.5024" width="4.1845" height="4.1842"/><rect class="cm" x="307.3974" y="55.3181" width="4.1845" height="4.1843"/><rect class="cn" x="311.5819" y="51.1337" width="4.1831" height="4.1844"/><rect class="co" x="307.3974" y="51.1337" width="4.1845" height="4.1844"/><rect class="cp" x="311.5819" y="55.3181" width="4.1831" height="4.1843"/><rect class="cq" x="311.5819" y="59.5024" width="4.1831" height="4.1842"/><rect class="cr" x="315.765" y="59.5024" width="4.1849" height="4.1842"/><rect class="cs" x="315.765" y="55.3181" width="4.1849" height="4.1843"/><rect class="ct" x="319.9499" y="51.1337" width="4.1845" height="4.1844"/><rect class="cu" x="315.765" y="51.1337" width="4.1849" height="4.1844"/><rect class="cv" x="319.9499" y="55.3181" width="4.1845" height="4.1843"/><rect class="cw" x="319.9499" y="59.5024" width="4.1845" height="4.1842"/><rect class="cx" x="324.1344" y="72.0553" width="4.1839" height="4.1842"/><rect class="cy" x="324.1344" y="67.871" width="4.1839" height="4.1843"/><rect class="cz" x="328.3183" y="63.6866" width="4.1838" height="4.1844"/><rect class="da" x="324.1344" y="63.6866" width="4.1839" height="4.1844"/><rect class="db" x="328.3183" y="67.871" width="4.1838" height="4.1843"/><rect class="dc" x="328.3183" y="72.0553" width="4.1838" height="4.1842"/><rect class="cr" x="315.765" y="72.0553" width="4.1849" height="4.1842"/><rect class="cs" x="315.765" y="67.871" width="4.1849" height="4.1843"/><rect class="ct" x="319.9499" y="63.6866" width="4.1845" height="4.1844"/><rect class="cu" x="315.765" y="63.6866" width="4.1849" height="4.1844"/><rect class="cv" x="319.9499" y="67.871" width="4.1845" height="4.1843"/><rect class="cw" x="319.9499" y="72.0553" width="4.1845" height="4.1842"/><rect class="dd" x="332.5021" y="72.0553" width="4.1838" height="4.1842"/><rect class="de" x="332.5021" y="67.871" width="4.1838" height="4.1843"/><rect class="df" x="336.6859" y="63.6866" width="4.1842" height="4.1844"/><rect class="dg" x="332.5021" y="63.6866" width="4.1838" height="4.1844"/><rect class="dh" x="336.6859" y="67.871" width="4.1842" height="4.1843"/><rect class="di" x="336.6859" y="72.0553" width="4.1842" height="4.1842"/><rect class="dj" x="349.2381" y="84.6081" width="4.1845" height="4.1842"/><rect class="dk" x="349.2381" y="80.4238" width="4.1845" height="4.1843"/><rect class="dl" x="353.4226" y="76.2394" width="4.1835" height="4.1844"/><rect class="dl" x="349.2381" y="76.2394" width="4.1845" height="4.1844"/><rect class="dm" x="353.4226" y="80.4238" width="4.1835" height="4.1843"/><rect class="dn" x="353.4226" y="84.6081" width="4.1835" height="4.1842"/><rect class="do" x="340.8701" y="84.6081" width="4.1845" height="4.1842"/><rect class="dp" x="340.8701" y="80.4238" width="4.1845" height="4.1843"/><rect class="dq" x="345.0546" y="76.2394" width="4.1835" height="4.1844"/><rect class="dr" x="340.8701" y="76.2394" width="4.1845" height="4.1844"/><rect class="ds" x="345.0546" y="80.4238" width="4.1835" height="4.1843"/><rect class="dt" x="345.0546" y="84.6081" width="4.1835" height="4.1842"/><rect class="du" x="357.6061" y="84.6081" width="4.1845" height="4.1842"/><rect class="dv" x="357.6061" y="80.4238" width="4.1845" height="4.1843"/><rect class="dw" x="361.7906" y="76.2394" width="4.1842" height="4.1844"/><rect class="dx" x="357.6061" y="76.2394" width="4.1845" height="4.1844"/><rect class="dy" x="361.7906" y="80.4238" width="4.1842" height="4.1843"/><rect class="dz" x="361.7906" y="84.6081" width="4.1842" height="4.1842"/><rect class="du" x="357.6061" y="97.161" width="4.1845" height="4.1842"/><rect class="dv" x="357.6061" y="92.9767" width="4.1845" height="4.1843"/><rect class="dw" x="361.7906" y="88.7923" width="4.1842" height="4.1844"/><rect class="dx" x="357.6061" y="88.7923" width="4.1845" height="4.1844"/><rect class="dy" x="361.7906" y="92.9767" width="4.1842" height="4.1843"/><rect class="dz" x="361.7906" y="97.161" width="4.1842" height="4.1842"/><rect class="ea" x="365.9748" y="97.161" width="4.1838" height="4.1842"/><rect class="eb" x="365.9748" y="92.9767" width="4.1838" height="4.1843"/><rect class="ec" x="370.1586" y="88.7923" width="4.1849" height="4.1844"/><rect class="ec" x="365.9748" y="88.7923" width="4.1838" height="4.1844"/><rect class="ed" x="370.1586" y="92.9767" width="4.1849" height="4.1843"/><rect class="ee" x="370.1586" y="97.161" width="4.1849" height="4.1842"/><rect class="ef" x="374.3435" y="97.161" width="4.1842" height="4.1842"/><rect class="eg" x="374.3435" y="92.9767" width="4.1842" height="4.1843"/><rect class="eh" x="378.5277" y="88.7923" width="4.1835" height="4.1844"/><rect class="ei" x="374.3435" y="88.7923" width="4.1842" height="4.1844"/><rect class="bh" x="378.5277" y="92.9767" width="4.1835" height="4.1843"/><rect class="ej" x="378.5277" y="97.161" width="4.1835" height="4.1842"/><rect class="ek" x="382.7112" y="109.7139" width="4.1841" height="4.1842"/><rect class="el" x="382.7112" y="105.5295" width="4.1841" height="4.1844"/><rect class="em" x="386.8953" y="101.3452" width="4.1838" height="4.1843"/><rect class="em" x="382.7112" y="101.3452" width="4.1841" height="4.1843"/><rect class="en" x="386.8953" y="105.5295" width="4.1838" height="4.1844"/><rect class="eo" x="386.8953" y="109.7139" width="4.1838" height="4.1842"/><rect class="ef" x="374.3435" y="109.7139" width="4.1842" height="4.1842"/><rect class="eg" x="374.3435" y="105.5295" width="4.1842" height="4.1844"/><rect class="eh" x="378.5277" y="101.3452" width="4.1835" height="4.1843"/><rect class="ei" x="374.3435" y="101.3452" width="4.1842" height="4.1843"/><rect class="bh" x="378.5277" y="105.5295" width="4.1835" height="4.1844"/><rect class="ej" x="378.5277" y="109.7139" width="4.1835" height="4.1842"/><rect class="bi" x="391.0784" y="109.7139" width="4.1842" height="4.1842"/><rect class="ep" x="391.0784" y="105.5295" width="4.1842" height="4.1844"/><rect class="eq" x="395.2626" y="101.3452" width="4.1842" height="4.1843"/><rect class="er" x="391.0784" y="101.3452" width="4.1842" height="4.1843"/><rect class="es" x="395.2626" y="105.5295" width="4.1842" height="4.1844"/><rect class="et" x="395.2626" y="109.7139" width="4.1842" height="4.1842"/></g><g class="ht"><rect class="c" x="382.7112" y="67.8709" width="4.1841" height="4.1843"/><rect class="d" x="386.8953" y="63.6866" width="4.1838" height="4.1843"/><rect class="d" x="382.7112" y="63.6866" width="4.1841" height="4.1843"/><rect class="e" x="386.8953" y="67.8709" width="4.1838" height="4.1843"/><rect class="f" x="378.5277" y="63.6866" width="4.1835" height="4.1843"/><rect class="g" x="391.0784" y="72.0553" width="4.1842" height="4.1842"/><rect class="h" x="391.0784" y="67.8709" width="4.1842" height="4.1843"/><rect class="i" x="395.2626" y="63.6866" width="4.1842" height="4.1843"/><rect class="j" x="391.0784" y="63.6866" width="4.1842" height="4.1843"/><rect class="k" x="395.2626" y="67.8709" width="4.1842" height="4.1843"/><rect class="l" x="395.2626" y="72.0553" width="4.1842" height="4.1842"/><rect class="m" x="361.7906" y="51.1337" width="4.1842" height="4.1844"/><rect class="n" x="357.6061" y="51.1337" width="4.1845" height="4.1844"/><rect class="o" x="365.9748" y="55.3181" width="4.1838" height="4.1843"/><rect class="p" x="370.1586" y="51.1337" width="4.1849" height="4.1844"/><rect class="p" x="365.9748" y="51.1337" width="4.1838" height="4.1844"/><rect class="q" x="370.1586" y="55.3181" width="4.1849" height="4.1843"/><rect class="r" x="370.1586" y="59.5024" width="4.1849" height="4.1842"/><rect class="s" x="374.3435" y="59.5024" width="4.1842" height="4.1842"/><rect class="t" x="374.3435" y="55.3181" width="4.1842" height="4.1843"/><rect class="f" x="378.5277" y="51.1337" width="4.1835" height="4.1844"/><rect class="u" x="374.3435" y="51.1337" width="4.1842" height="4.1844"/><rect class="v" x="378.5277" y="55.3181" width="4.1835" height="4.1843"/><rect class="w" x="378.5277" y="59.5024" width="4.1835" height="4.1842"/><rect class="x" x="349.2381" y="42.7652" width="4.1845" height="4.1843"/><rect class="y" x="353.4226" y="38.5808" width="4.1835" height="4.1844"/><rect class="y" x="349.2381" y="38.5808" width="4.1845" height="4.1844"/><rect class="z" x="353.4226" y="42.7652" width="4.1835" height="4.1843"/><rect class="aa" x="353.4226" y="46.9495" width="4.1835" height="4.1842"/><rect class="ab" x="345.0546" y="38.5808" width="4.1835" height="4.1844"/><rect class="ac" x="340.8701" y="38.5808" width="4.1845" height="4.1844"/><rect class="ad" x="345.0546" y="42.7652" width="4.1835" height="4.1843"/><rect class="ae" x="357.6061" y="46.9495" width="4.1845" height="4.1842"/><rect class="af" x="357.6061" y="42.7652" width="4.1845" height="4.1843"/><rect class="m" x="361.7906" y="38.5808" width="4.1842" height="4.1844"/><rect class="n" x="357.6061" y="38.5808" width="4.1845" height="4.1844"/><rect class="ag" x="361.7906" y="42.7652" width="4.1842" height="4.1843"/><rect class="ah" x="361.7906" y="46.9495" width="4.1842" height="4.1842"/><rect class="ai" x="324.1344" y="30.2123" width="4.1839" height="4.1843"/><rect class="aj" x="328.3183" y="26.0279" width="4.1838" height="4.1844"/><rect class="ak" x="324.1344" y="26.0279" width="4.1839" height="4.1844"/><rect class="al" x="328.3183" y="30.2123" width="4.1838" height="4.1843"/><rect class="am" x="319.9499" y="26.0279" width="4.1845" height="4.1844"/><rect class="an" x="332.5021" y="34.3966" width="4.1838" height="4.1842"/><rect class="ao" x="332.5021" y="30.2123" width="4.1838" height="4.1843"/><rect class="ap" x="336.6859" y="26.0279" width="4.1842" height="4.1844"/><rect class="aq" x="332.5021" y="26.0279" width="4.1838" height="4.1844"/><rect class="ar" x="336.6859" y="30.2123" width="4.1842" height="4.1843"/><rect class="as" x="336.6859" y="34.3966" width="4.1842" height="4.1842"/><rect class="at" x="303.2132" y="13.475" width="4.1842" height="4.1844"/><rect class="au" x="299.0287" y="13.475" width="4.1845" height="4.1844"/><rect class="av" x="307.3974" y="17.6594" width="4.1845" height="4.1843"/><rect class="aw" x="311.5819" y="13.475" width="4.1831" height="4.1844"/><rect class="ax" x="307.3974" y="13.475" width="4.1845" height="4.1844"/><rect class="ay" x="311.5819" y="17.6594" width="4.1831" height="4.1843"/><rect class="az" x="311.5819" y="21.8437" width="4.1831" height="4.1842"/><rect class="ba" x="315.765" y="21.8437" width="4.1849" height="4.1842"/><rect class="bb" x="315.765" y="17.6594" width="4.1849" height="4.1843"/><rect class="am" x="319.9499" y="13.475" width="4.1845" height="4.1844"/><rect class="bc" x="315.765" y="13.475" width="4.1849" height="4.1844"/><rect class="bd" x="319.9499" y="17.6594" width="4.1845" height="4.1843"/><rect class="be" x="319.9499" y="21.8437" width="4.1845" height="4.1842"/><rect class="bf" x="286.4768" y="0.9222" width="4.1842" height="4.1843"/><rect class="bg" x="282.293" y="0.9222" width="4.1838" height="4.1843"/><rect class="bh" x="286.4768" y="5.1065" width="4.1842" height="4.1843"/><rect class="bi" x="299.0287" y="9.2908" width="4.1845" height="4.1842"/><rect class="bj" x="299.0287" y="5.1065" width="4.1845" height="4.1843"/><rect class="at" x="303.2132" y="0.9222" width="4.1842" height="4.1843"/><rect class="au" x="299.0287" y="0.9222" width="4.1845" height="4.1843"/><rect class="bk" x="303.2132" y="5.1065" width="4.1842" height="4.1843"/><rect class="bl" x="303.2132" y="9.2908" width="4.1842" height="4.1842"/><rect class="bm" x="290.661" y="5.1065" width="4.1842" height="4.1843"/><rect class="bn" x="294.8452" y="0.9222" width="4.1835" height="4.1843"/><rect class="bo" x="290.661" y="0.9222" width="4.1842" height="4.1843"/><rect class="bp" x="294.8452" y="5.1065" width="4.1835" height="4.1843"/><rect class="bq" x="294.8452" y="9.2908" width="4.1835" height="4.1842"/></g><g class="hu"><rect class="fh" x="282.2921" y="46.9495" width="4.1838" height="4.1842"/><rect class="fi" x="282.2921" y="42.7652" width="4.1838" height="4.1843"/><rect class="fj" x="286.4759" y="38.5808" width="4.1842" height="4.1844"/><rect class="fk" x="282.2921" y="38.5808" width="4.1838" height="4.1844"/><rect class="fl" x="286.4759" y="42.7652" width="4.1842" height="4.1843"/><rect class="fm" x="286.4759" y="46.9495" width="4.1842" height="4.1842"/><rect class="fn" x="299.0278" y="46.9495" width="4.1845" height="4.1842"/><rect class="fo" x="299.0278" y="42.7652" width="4.1845" height="4.1843"/><rect class="fp" x="303.2123" y="38.5808" width="4.1842" height="4.1844"/><rect class="fi" x="299.0278" y="38.5808" width="4.1845" height="4.1844"/><rect class="fq" x="303.2123" y="42.7652" width="4.1842" height="4.1843"/><rect class="fr" x="303.2123" y="46.9495" width="4.1842" height="4.1842"/><rect class="fs" x="290.6601" y="46.9495" width="4.1842" height="4.1842"/><rect class="ft" x="290.6601" y="42.7652" width="4.1842" height="4.1843"/><rect class="fu" x="294.8443" y="38.5808" width="4.1835" height="4.1844"/><rect class="fv" x="290.6601" y="38.5808" width="4.1842" height="4.1844"/><rect class="fw" x="294.8443" y="42.7652" width="4.1835" height="4.1843"/><rect class="fx" x="294.8443" y="46.9495" width="4.1835" height="4.1842"/><rect class="fn" x="299.0278" y="59.5024" width="4.1845" height="4.1842"/><rect class="fo" x="299.0278" y="55.3181" width="4.1845" height="4.1843"/><rect class="fp" x="303.2123" y="51.1337" width="4.1842" height="4.1844"/><rect class="fi" x="299.0278" y="51.1337" width="4.1845" height="4.1844"/><rect class="fq" x="303.2123" y="55.3181" width="4.1842" height="4.1843"/><rect class="fr" x="303.2123" y="59.5024" width="4.1842" height="4.1842"/><rect class="fy" x="307.3965" y="59.5024" width="4.1845" height="4.1842"/><rect class="fz" x="307.3965" y="55.3181" width="4.1845" height="4.1843"/><rect class="ga" x="311.581" y="51.1337" width="4.1831" height="4.1844"/><rect class="gb" x="307.3965" y="51.1337" width="4.1845" height="4.1844"/><rect class="gc" x="311.581" y="55.3181" width="4.1831" height="4.1843"/><rect class="gd" x="311.581" y="59.5024" width="4.1831" height="4.1842"/><rect class="ge" x="315.7641" y="59.5024" width="4.1849" height="4.1842"/><rect class="gf" x="315.7641" y="55.3181" width="4.1849" height="4.1843"/><rect class="gg" x="319.949" y="51.1337" width="4.1845" height="4.1844"/><rect class="fo" x="315.7641" y="51.1337" width="4.1849" height="4.1844"/><rect class="fs" x="319.949" y="55.3181" width="4.1845" height="4.1843"/><rect class="gh" x="319.949" y="59.5024" width="4.1845" height="4.1842"/><rect class="gi" x="324.1335" y="72.0553" width="4.1839" height="4.1842"/><rect class="fs" x="324.1335" y="67.871" width="4.1839" height="4.1843"/><rect class="gj" x="328.3174" y="63.6866" width="4.1838" height="4.1844"/><rect class="gk" x="324.1335" y="63.6866" width="4.1839" height="4.1844"/><rect class="gl" x="328.3174" y="67.871" width="4.1838" height="4.1843"/><rect class="gm" x="328.3174" y="72.0553" width="4.1838" height="4.1842"/><rect class="ge" x="315.7641" y="72.0553" width="4.1849" height="4.1842"/><rect class="gf" x="315.7641" y="67.871" width="4.1849" height="4.1843"/><rect class="gg" x="319.949" y="63.6866" width="4.1845" height="4.1844"/><rect class="fo" x="315.7641" y="63.6866" width="4.1849" height="4.1844"/><rect class="fs" x="319.949" y="67.871" width="4.1845" height="4.1843"/><rect class="gh" x="319.949" y="72.0553" width="4.1845" height="4.1842"/><rect class="gn" x="332.5012" y="72.0553" width="4.1838" height="4.1842"/><rect class="go" x="332.5012" y="67.871" width="4.1838" height="4.1843"/><rect class="fq" x="336.685" y="63.6866" width="4.1842" height="4.1844"/><rect class="gc" x="332.5012" y="63.6866" width="4.1838" height="4.1844"/><rect class="gm" x="336.685" y="67.871" width="4.1842" height="4.1843"/><rect class="gp" x="336.685" y="72.0553" width="4.1842" height="4.1842"/><rect class="gq" x="349.2372" y="84.6082" width="4.1845" height="4.1842"/><rect class="gr" x="349.2372" y="80.4239" width="4.1845" height="4.1843"/><rect class="fy" x="353.4217" y="76.2395" width="4.1835" height="4.1844"/><rect class="fy" x="349.2372" y="76.2395" width="4.1845" height="4.1844"/><rect class="gs" x="353.4217" y="80.4239" width="4.1835" height="4.1843"/><rect class="gt" x="353.4217" y="84.6082" width="4.1835" height="4.1842"/><rect class="gu" x="340.8692" y="84.6082" width="4.1845" height="4.1842"/><rect class="gv" x="340.8692" y="80.4239" width="4.1845" height="4.1843"/><rect class="gw" x="345.0537" y="76.2395" width="4.1835" height="4.1844"/><rect class="gx" x="340.8692" y="76.2395" width="4.1845" height="4.1844"/><rect class="gy" x="345.0537" y="80.4239" width="4.1835" height="4.1843"/><rect class="gs" x="345.0537" y="84.6082" width="4.1835" height="4.1842"/><rect class="gz" x="357.6052" y="84.6082" width="4.1845" height="4.1842"/><rect class="ha" x="357.6052" y="80.4239" width="4.1845" height="4.1843"/><rect class="hb" x="361.7897" y="76.2395" width="4.1842" height="4.1844"/><rect class="hc" x="357.6052" y="76.2395" width="4.1845" height="4.1844"/><rect class="gt" x="361.7897" y="80.4239" width="4.1842" height="4.1843"/><rect class="hd" x="361.7897" y="84.6082" width="4.1842" height="4.1842"/><rect class="gz" x="357.6052" y="97.1611" width="4.1845" height="4.1842"/><rect class="ha" x="357.6052" y="92.9767" width="4.1845" height="4.1844"/><rect class="hb" x="361.7897" y="88.7924" width="4.1842" height="4.1843"/><rect class="hc" x="357.6052" y="88.7924" width="4.1845" height="4.1843"/><rect class="gt" x="361.7897" y="92.9767" width="4.1842" height="4.1844"/><rect class="hd" x="361.7897" y="97.1611" width="4.1842" height="4.1842"/><rect class="he" x="365.9739" y="97.1611" width="4.1838" height="4.1842"/><rect class="gn" x="365.9739" y="92.9767" width="4.1838" height="4.1844"/><rect class="gn" x="370.1577" y="88.7924" width="4.1849" height="4.1843"/><rect class="gn" x="365.9739" y="88.7924" width="4.1838" height="4.1843"/><rect class="hf" x="370.1577" y="92.9767" width="4.1849" height="4.1844"/><rect class="hg" x="370.1577" y="97.1611" width="4.1849" height="4.1842"/><rect class="hh" x="374.3426" y="97.1611" width="4.1842" height="4.1842"/><rect class="hf" x="374.3426" y="92.9767" width="4.1842" height="4.1844"/><rect class="hf" x="378.5268" y="88.7924" width="4.1835" height="4.1843"/><rect class="hf" x="374.3426" y="88.7924" width="4.1842" height="4.1843"/><rect class="hi" x="378.5268" y="92.9767" width="4.1835" height="4.1844"/><rect class="hj" x="378.5268" y="97.1611" width="4.1835" height="4.1842"/><rect class="hk" x="382.7103" y="109.7139" width="4.1841" height="4.1842"/><rect class="hl" x="382.7103" y="105.5296" width="4.1841" height="4.1843"/><rect class="hm" x="386.8944" y="101.3453" width="4.1838" height="4.1843"/><rect class="hm" x="382.7103" y="101.3453" width="4.1841" height="4.1843"/><rect class="hn" x="386.8944" y="105.5296" width="4.1838" height="4.1843"/><rect class="he" x="386.8944" y="109.7139" width="4.1838" height="4.1842"/><rect class="hh" x="374.3426" y="109.7139" width="4.1842" height="4.1842"/><rect class="hf" x="374.3426" y="105.5296" width="4.1842" height="4.1843"/><rect class="hf" x="378.5268" y="101.3453" width="4.1835" height="4.1843"/><rect class="hf" x="374.3426" y="101.3453" width="4.1842" height="4.1843"/><rect class="hi" x="378.5268" y="105.5296" width="4.1835" height="4.1843"/><rect class="hj" x="378.5268" y="109.7139" width="4.1835" height="4.1842"/><rect class="ho" x="391.0775" y="109.7139" width="4.1842" height="4.1842"/><rect class="hp" x="391.0775" y="105.5296" width="4.1842" height="4.1843"/><rect class="he" x="395.2617" y="101.3453" width="4.1842" height="4.1843"/><rect class="hq" x="391.0775" y="101.3453" width="4.1842" height="4.1843"/><rect class="hp" x="395.2617" y="105.5296" width="4.1842" height="4.1843"/><rect class="hr" x="395.2617" y="109.7139" width="4.1842" height="4.1842"/></g><path class="hv" d="M282.793,39.4967l114.9515,73.9014H282.7869l.0061-73.9014m-.5-.9159-.0061,75.3173h117.16L282.293,38.5808Z"/><path class="hv" d="M398.943,1.4222l-.0061,73.9014L283.9854,1.4222H398.943m.5-.5h-117.16L399.4368,76.2394,399.443.9222Z"/><path class="hw" d="M265.1235,319.0778h-130.55a6.5535,6.5535,0,0,1-3.1583-.8113l-2.51-1.3806H270.79l-2.5059,1.38A6.5523,6.5523,0,0,1,265.1235,319.0778Z"/><path class="hx" d="M269.2518,317.4774H130.5066c-.69,0-1.7117,0-1.7117-1.149v-1.18H270.9034v1.18C270.9034,317.4774,269.8432,317.4774,269.2518,317.4774Z"/><path class="hy" d="M269.2518,315.8392H130.5066c-.69,0-2.1767,0-1.5688-1.149l3.9193-8.9075a.819.819,0,0,1,.75-.4892H266.1515a.819.819,0,0,1,.75.4892l3.9194,8.9075C271.259,315.8392,269.8432,315.8392,269.2518,315.8392Z"/><path class="hz" d="M208.5308,272.4617v3.447a7.4474,7.4474,0,0,1-7.3718,7.5208h-2.56a7.4473,7.4473,0,0,1-7.3718-7.5208v-3.447H173.566v35.289h52.4216v-35.289Z"/><path class="hv" d="M395.3523,121.5513v137.08H4.6477V5.0176H274.6328V1.7412H3.8286A2.4573,2.4573,0,0,0,1.3713,4.1985V260.2692H398.6287V121.5513Z"/><path class="hw" d="M398.6287,121.5513V260.2692H1.3713V4.1985A2.4573,2.4573,0,0,1,3.8286,1.7412H274.6328V.9222H3.4191A2.8668,2.8668,0,0,0,.5523,3.789V269.5949a2.8668,2.8668,0,0,0,2.8668,2.8668H396.5809a2.8668,2.8668,0,0,0,2.8668-2.8668V121.5513Z"/></svg>