<svg xmlns="http://www.w3.org/2000/svg" viewBox="0 0 400 320"><defs><style>.a{fill:#231f20;}.b{fill:#404041;}.c{fill:#f1f1f2;}.d{fill:#bbbdbf;}.e{fill:#d0d2d3;}.f,.g,.h,.i{fill:none;stroke-linecap:round;stroke-miterlimit:10;}.f{stroke:#fff;stroke-width:3px;}.g{stroke:#231f20;}.h,.i{stroke:#929497;}.i{stroke-dasharray:3.9971 3.9971;}.j{fill:#929497;}</style></defs><title>scrat-approach-triangle</title><path class="a" d="M210.6192,117.4644H3.2764a2.4573,2.4573,0,0,0-2.4573,2.4573V260.2692H213.0764V119.9217A2.4572,2.4572,0,0,0,210.6192,117.4644ZM209.8,258.6311H4.0955v-137.89H209.8Z"/><path class="b" d="M211.0287,116.6453H2.8668A2.8669,2.8669,0,0,0,0,119.5121V269.5949a2.8668,2.8668,0,0,0,2.8668,2.8668H211.0287a2.8668,2.8668,0,0,0,2.8668-2.8668V119.5121A2.8669,2.8669,0,0,0,211.0287,116.6453Zm2.0477,143.6239H.8191V119.9217a2.4573,2.4573,0,0,1,2.4573-2.4573H210.6192a2.4572,2.4572,0,0,1,2.4572,2.4573Z"/><path class="b" d="M172.2236,319.0778H41.6738a6.5535,6.5535,0,0,1-3.1583-.8113l-2.51-1.3806H177.89l-2.5059,1.38A6.5523,6.5523,0,0,1,172.2236,319.0778Z"/><path class="c" d="M176.35,317.4774H37.6051c-.69,0-1.7116,0-1.7116-1.149v-1.18H178.002v1.18C178.002,317.4774,176.9417,317.4774,176.35,317.4774Z"/><path class="d" d="M176.35,315.8392H37.6051c-.69,0-2.1767,0-1.5688-1.149l3.9194-8.9075a.8191.8191,0,0,1,.75-.4893H173.25a.8193.8193,0,0,1,.75.4893l3.9193,8.9075C178.3576,315.8392,176.9417,315.8392,176.35,315.8392Z"/><path class="e" d="M115.7017,272.4617v3.447A7.4475,7.4475,0,0,1,108.33,283.43h-2.56a7.4474,7.4474,0,0,1-7.3718-7.5208v-3.447H80.7369v35.289h52.4216v-35.289Z"/><line class="f" x1="389.3913" y1="251.9269" x2="12.7993" y2="251.9269"/><path class="a" d="M22.76,224.8541H25.961v.58H23.46v16.0439h2.501v.58H22.76Z"/><path class="a" d="M31.18,233.6363h4.4v.78h-4.4Z"/><path class="a" d="M38.0391,238.2369H41.04V227.6344H38.76v-.6a7.6973,7.6973,0,0,0,2.46-.8008h.7207v12.0029h2.78v.78H38.0391Z"/><path class="a" d="M46.9,241.5182a2.7052,2.7052,0,0,0,1.54-2.4209,1,1,0,0,1-.24.02.797.797,0,0,1-.84-.84.8237.8237,0,0,1,.86-.84c.6006,0,1.02.54,1.02,1.42a3.6858,3.6858,0,0,1-2.06,3.2608Z"/><path class="a" d="M55.1192,233.6363h4.4014v.78H55.1192Z"/><path class="a" d="M61.9786,238.2369H64.98V227.6344h-2.28v-.6a7.699,7.699,0,0,0,2.46-.8008H65.88v12.0029h2.78v.78H61.9786Z"/><path class="a" d="M74.2989,241.4781h2.5V225.4342h-2.5v-.58h3.2v17.2041h-3.2Z"/><path class="a" d="M56.8536,3.7408h3.2012v.58h-2.501V20.3648h2.501v.58H56.8536Z"/><path class="a" d="M65.2735,12.523h4.4v.78h-4.4Z"/><path class="a" d="M72.1329,17.1236h3.001V6.5211h-2.28v-.6a7.699,7.699,0,0,0,2.46-.8008h.7207V17.1236h2.78v.78H72.1329Z"/><path class="a" d="M80.9932,20.4049a2.705,2.705,0,0,0,1.54-2.4209,1,1,0,0,1-.24.0195.797.797,0,0,1-.84-.84.8237.8237,0,0,1,.86-.84c.6005,0,1.0205.54,1.0205,1.42a3.6859,3.6859,0,0,1-2.0606,3.2608Z"/><path class="a" d="M92.794,11.6822H89.0928v-.76H92.794V6.902h.82v4.02h3.7v.76h-3.7v4.0215h-.82Z"/><path class="a" d="M98.5723,16.3434l.52-.62a4.4669,4.4669,0,0,0,3.5411,1.6407,2.775,2.775,0,0,0,2.98-2.82c0-1.7608-1.2607-2.961-4.4609-2.961v-.78c2.96,0,4.001-1.24,4.001-2.78a2.3368,2.3368,0,0,0-2.5811-2.3809,4.1241,4.1241,0,0,0-2.94,1.4l-.5205-.6006a4.8507,4.8507,0,0,1,3.4609-1.56c1.98,0,3.501,1.12,3.501,3.08a3.2309,3.2309,0,0,1-2.44,3.1612v.08a3.4159,3.4159,0,0,1,2.9,3.32,3.6073,3.6073,0,0,1-3.9,3.6211A5.2974,5.2974,0,0,1,98.5723,16.3434Z"/><path class="a" d="M111.9923,20.3648h2.5V4.3209h-2.5v-.58h3.2V20.9449h-3.2Z"/><path class="a" d="M277.4259,224.8541h3.2011v.58h-2.5009v16.0439h2.5009v.58h-3.2011Z"/><path class="a" d="M289.4259,232.7955h-3.7v-.76h3.7v-4.02h.82v4.02h3.7011v.76h-3.7011v4.0215h-.82Z"/><path class="a" d="M295.2052,237.4566l.5205-.62a4.4668,4.4668,0,0,0,3.541,1.6406,2.7749,2.7749,0,0,0,2.98-2.82c0-1.7607-1.2607-2.9609-4.4609-2.9609v-.78c2.96,0,4.001-1.24,4.001-2.78a2.3368,2.3368,0,0,0-2.5811-2.3809,4.1241,4.1241,0,0,0-2.94,1.4l-.52-.6006a4.8511,4.8511,0,0,1,3.4609-1.56c1.9805,0,3.501,1.12,3.501,3.08a3.2307,3.2307,0,0,1-2.44,3.1611v.08a3.4158,3.4158,0,0,1,2.9,3.32,3.6073,3.6073,0,0,1-3.9,3.6211A5.2969,5.2969,0,0,1,295.2052,237.4566Z"/><path class="a" d="M305.1651,241.5182a2.7053,2.7053,0,0,0,1.54-2.4209,1,1,0,0,1-.24.02.797.797,0,0,1-.84-.84.8236.8236,0,0,1,.86-.84c.6006,0,1.02.54,1.02,1.42a3.6858,3.6858,0,0,1-2.06,3.2608Z"/><path class="a" d="M313.3848,233.6363h4.4014v.78h-4.4014Z"/><path class="a" d="M320.2452,238.2369h3.001V227.6344h-2.2813v-.6a7.705,7.705,0,0,0,2.461-.8008h.72v12.0029h2.7812v.78h-6.6816Z"/><path class="a" d="M332.5645,241.4781h2.5V225.4342h-2.5v-.58h3.2v17.2041h-3.2Z"/><line class="f" x1="10.7993" y1="2.9638" x2="395.3913" y2="251.9269"/><line class="g" x1="10.7993" y1="2.9638" x2="387.9542" y2="247.1126"/><polygon class="a" points="384.712 248.475 395.391 251.927 387.87 243.597 384.712 248.475"/><line class="f" x1="10.7993" y1="251.9269" x2="10.7993" y2="6.9638"/><line class="g" x1="10.7993" y1="251.927" x2="10.7993" y2="15.8232"/><polygon class="a" points="13.704 17.805 10.799 6.964 7.894 17.805 13.704 17.805"/><line class="h" x1="389.3913" y1="251.927" x2="387.3913" y2="251.927"/><line class="i" x1="383.3942" y1="251.927" x2="25.6572" y2="251.927"/><line class="h" x1="23.6586" y1="251.927" x2="21.6586" y2="251.927"/><polygon class="j" points="23.64 249.022 12.799 251.927 23.64 254.832 23.64 249.022"/></svg>