<svg xmlns="http://www.w3.org/2000/svg" viewBox="0 0 400 320"><defs><style>.a,.b,.d,.f{fill:none;stroke-linecap:round;stroke-miterlimit:10;}.a,.b,.f{stroke:#929497;}.b{stroke-dasharray:3.9208 3.9208;}.c{fill:#929497;}.d{stroke:#231f20;}.e{fill:#231f20;}.f{stroke-dasharray:4.0799 4.0799;}.g{fill:#404041;}.h{fill:#f1f1f2;}.i{fill:#bbbdbf;}.j{fill:#d0d2d3;}</style></defs><title>scrat-approach-quad</title><line class="a" x1="203.0957" y1="127.4451" x2="201.0957" y2="127.4451"/><line class="b" x1="197.1749" y1="127.4451" x2="26.6191" y2="127.4451"/><line class="a" x1="24.6586" y1="127.4451" x2="22.6586" y2="127.4451"/><polygon class="c" points="24.64 124.54 13.799 127.445 24.64 130.35 24.64 124.54"/><line class="d" x1="203.0957" y1="249.927" x2="203.0957" y2="137.3045"/><polygon class="e" points="206.001 139.286 203.096 128.445 200.191 139.286 206.001 139.286"/><line class="d" x1="10.7993" y1="127.4451" x2="195.6586" y2="247.1126"/><polygon class="e" points="192.417 248.475 203.096 251.927 195.574 243.597 192.417 248.475"/><line class="d" x1="10.7993" y1="251.927" x2="10.7993" y2="138.3044"/><polygon class="e" points="13.705 140.286 10.799 129.445 7.894 140.286 13.705 140.286"/><line class="a" x1="200.0957" y1="251.927" x2="198.0957" y2="251.927"/><line class="f" x1="194.0158" y1="251.927" x2="24.6986" y2="251.927"/><line class="a" x1="22.6586" y1="251.927" x2="20.6586" y2="251.927"/><polygon class="c" points="22.64 249.022 11.799 251.927 22.64 254.832 22.64 249.022"/><path class="e" d="M129.1978,137.1119h3.2007v.58H129.898v16.0439h2.5005v.58h-3.2007Z"/><path class="e" d="M141.1978,145.0533h-3.7007v-.76h3.7007V140.273h.82v4.0206h3.7007v.76h-3.7007v4.0215h-.82Z"/><path class="e" d="M148.0772,150.4947h3.001V139.8922h-2.2808v-.6a7.7007,7.7007,0,0,0,2.46-.8008h.72v12.0029h2.7808v.78h-6.6817Z"/><path class="e" d="M156.9366,153.776a2.7047,2.7047,0,0,0,1.5405-2.4209,1,1,0,0,1-.24.0195.797.797,0,0,1-.84-.84.8236.8236,0,0,1,.86-.84c.6006,0,1.02.54,1.02,1.42a3.6858,3.6858,0,0,1-2.06,3.2608Z"/><path class="e" d="M168.7374,145.0533h-3.7007v-.76h3.7007V140.273h.82v4.0206h3.7007v.76h-3.7007v4.0215h-.82Z"/><path class="e" d="M175.6163,150.4947h3.001V139.8922h-2.2808v-.6a7.7009,7.7009,0,0,0,2.46-.8008h.72v12.0029h2.7807v.78h-6.6816Z"/><path class="e" d="M187.9361,153.7359h2.5V137.692h-2.5v-.58h3.2007V154.316h-3.2007Z"/><path class="e" d="M22.76,224.8541H25.961v.58h-2.5v16.0439h2.5v.58H22.76Z"/><path class="e" d="M31.18,233.6363h4.4008v.78H31.18Z"/><path class="e" d="M38.04,238.2369h3.001V227.6344H38.76v-.6a7.7007,7.7007,0,0,0,2.4605-.8008h.72v12.0029h2.7808v.78H38.04Z"/><path class="e" d="M46.9,241.5182a2.7048,2.7048,0,0,0,1.54-2.4209,1,1,0,0,1-.24.02.797.797,0,0,1-.84-.84.8236.8236,0,0,1,.86-.84c.6006,0,1.02.54,1.02,1.42a3.6858,3.6858,0,0,1-2.06,3.2608Z"/><path class="e" d="M55.12,233.6363h4.4009v.78H55.12Z"/><path class="e" d="M61.9791,238.2369H64.98V227.6344H62.6993v-.6a7.7009,7.7009,0,0,0,2.46-.8008h.72v12.0029h2.7807v.78H61.9791Z"/><path class="e" d="M74.2989,241.4781h2.5005V225.4342H74.2989v-.58H77.5v17.2041H74.2989Z"/><path class="e" d="M210.6192,117.4644H3.2764a2.4573,2.4573,0,0,0-2.4573,2.4573V260.2692H213.0764V119.9217A2.4572,2.4572,0,0,0,210.6192,117.4644ZM209.8,258.6311H4.0955v-137.89H209.8Z"/><path class="g" d="M211.0287,116.6453H2.8668A2.8669,2.8669,0,0,0,0,119.5121V269.5949a2.8668,2.8668,0,0,0,2.8668,2.8668H211.0287a2.8668,2.8668,0,0,0,2.8668-2.8668V119.5121A2.8669,2.8669,0,0,0,211.0287,116.6453Zm2.0477,143.6239H.8191V119.9217a2.4573,2.4573,0,0,1,2.4573-2.4573H210.6192a2.4572,2.4572,0,0,1,2.4572,2.4573Z"/><path class="g" d="M172.2236,319.0778H41.6738a6.5535,6.5535,0,0,1-3.1583-.8113l-2.51-1.3806H177.89l-2.5059,1.38A6.5523,6.5523,0,0,1,172.2236,319.0778Z"/><path class="h" d="M176.35,317.4774H37.6051c-.69,0-1.7116,0-1.7116-1.149v-1.18H178.002v1.18C178.002,317.4774,176.9417,317.4774,176.35,317.4774Z"/><path class="i" d="M176.35,315.8392H37.6051c-.69,0-2.1767,0-1.5688-1.149l3.9194-8.9075a.8191.8191,0,0,1,.75-.4893H173.25a.8191.8191,0,0,1,.75.4893l3.9193,8.9075C178.3576,315.8392,176.9417,315.8392,176.35,315.8392Z"/><path class="j" d="M115.7017,272.4617v3.447A7.4475,7.4475,0,0,1,108.33,283.43h-2.56a7.4474,7.4474,0,0,1-7.3718-7.5208v-3.447H80.7369v35.289h52.4216v-35.289Z"/></svg>