<?xml version="1.0" encoding="utf-8"?>
<!-- Generator: Adobe Illustrator 19.1.0, SVG Export Plug-In . SVG Version: 6.00 Build 0)  -->
<svg version="1.1" id="Layer_1" xmlns="http://www.w3.org/2000/svg" xmlns:xlink="http://www.w3.org/1999/xlink" x="0px" y="0px"
	 viewBox="0 0 158.740158 28.346457" enable-background="new 0 0 158.740158 28.346457" xml:space="preserve">
<g>
	<polygon fill="#DADADA" points="29.383818,19.715633 32.582561,14.175159 30.983213,11.404922 27.78437,16.945396 	"/>
	<g>
		<g>
			<path fill="#585858" d="M43.761311,5.859263h0.806641v16.626953h-0.806641V5.859263z"/>
			<path fill="#585858" d="M49.403889,5.859263h0.857422l7.355469,12.193359l1.915039,3.274414h0.100586
				c-0.050781-1.612305-0.100586-3.123047-0.100586-4.685547V5.859263h0.755859v16.626953h-0.856445l-7.356445-12.193358
				l-1.915039-3.274415h-0.100586c0.050781,1.561524,0.100586,2.972657,0.100586,4.53418v10.933593h-0.755859V5.859263z"/>
			<path fill="#585858" d="M68.751549,6.564341H63.36092V5.859263h11.587894v0.705078h-5.390625v15.921875h-0.806641V6.564341z"/>
			<path fill="#585858" d="M78.023033,5.859263h8.917969v0.705078h-8.112305v6.701172h6.801758v0.706055h-6.801758v7.809569
				h8.364258v0.705078h-9.169922V5.859263z"/>
			<path fill="#585858" d="M99.889244,22.486216l-4.685547-7.860351h-3.728516v7.860351h-0.805664V5.859263h4.584961
				c3.274414,0,5.339844,1.208984,5.339844,4.283204c0,2.644531-1.712891,4.181641-4.483398,4.433594l4.735352,7.910155H99.889244z
				 M94.951744,13.920787c3.073242,0,4.786133-1.208984,4.786133-3.77832c0-2.620118-1.712891-3.578125-4.786133-3.578125h-3.476563
				v7.356446H94.951744z"/>
			<path fill="#585858" d="M104.372643,5.859263h0.857422l7.355469,12.193359l1.915039,3.274414h0.100586
				c-0.050781-1.612305-0.100586-3.123047-0.100586-4.685547V5.859263h0.755859v16.626953h-0.856445l-7.356445-12.193358
				l-1.915039-3.274415h-0.100586c0.050781,1.561524,0.100586,2.972657,0.100586,4.53418v10.933593h-0.755859V5.859263z"/>
			<path fill="#585858" d="M127.499596,16.540903h-6.777344l-2.09082,5.945313h-0.805664l5.945313-16.626953h0.705078
				l5.945305,16.626953h-0.856445L127.499596,16.540903z M127.247643,15.835826l-1.15918-3.326172
				c-0.705078-2.014648-1.30957-3.727539-1.914063-5.793946h-0.101563c-0.604492,2.066407-1.208984,3.779297-1.914063,5.793946
				l-1.18457,3.326172H127.247643z"/>
			<path fill="#585858" d="M132.991776,5.859263h0.805664v15.921875h7.80957v0.705078h-8.615234V5.859263z"/>
			<path fill="#585858" d="M143.16951,19.714731c1.208984,1.411133,2.972656,2.318359,4.987305,2.318359
				c2.670898,0,4.383789-1.461914,4.383789-3.577148c0-2.217773-1.411133-2.922851-3.073242-3.67871l-2.569336-1.15918
				c-1.411133-0.628906-3.375977-1.611328-3.375977-4.081055c0-2.368165,2.014648-3.979493,4.685547-3.979493
				c2.015625,0,3.577148,0.931641,4.53418,1.964844l-0.503906,0.553711c-0.957031-1.057618-2.317383-1.763672-4.030273-1.763672
				c-2.317383,0-3.879883,1.259766-3.879883,3.174805c0,2.06543,1.738281,2.84668,2.922852,3.375977l2.569336,1.158203
				c1.838867,0.832031,3.527344,1.814453,3.527344,4.383788c0,2.519531-2.066406,4.383789-5.19043,4.383789
				c-2.46875,0-4.282227-1.058594-5.541992-2.519531L143.16951,19.714731z"/>
		</g>
	</g>
	<polygon fill="#585858" points="22.986229,8.634686 21.386831,5.864448 18.188038,5.864448 19.787434,8.634686 	"/>
	<polygon fill="#404040" points="35.781406,8.634686 37.380802,5.864448 21.386831,5.864448 22.986229,8.634686 	"/>
	<polygon fill="#737373" points="19.787434,8.634686 22.986229,8.634686 27.78442,16.945396 26.185022,19.715633 	"/>
	<polygon fill="#B1B1B1" points="27.78442,22.48587 29.383818,19.715633 27.78437,16.945396 26.185022,19.715633 	"/>
	<polygon fill="#404040" points="10.191051,19.715633 16.588688,8.634686 14.989291,5.864448 6.992305,19.715633 	"/>
	<polygon fill="#DADADA" points="24.585625,22.48587 22.986229,19.715633 10.191051,19.715633 8.591654,22.48587 	"/>
	<polygon fill="#737373" points="5.392908,22.48587 8.591654,22.48587 10.191051,19.715633 6.992305,19.715633 	"/>
</g>
</svg>
