<?xml version="1.0" encoding="utf-8"?>
<!-- Generator: Adobe Illustrator 19.1.0, SVG Export Plug-In . SVG Version: 6.00 Build 0)  -->
<svg version="1.1" id="Layer_1" xmlns="http://www.w3.org/2000/svg" xmlns:xlink="http://www.w3.org/1999/xlink" x="0px" y="0px"
	 viewBox="0 0 90.708664 68.031494" enable-background="new 0 0 90.708664 68.031494" xml:space="preserve">
<g>
	<g>
		<path fill="#186D94" d="M9.045523,50.447777h0.531738v10.967285H9.045523V50.447777z"/>
		<path fill="#186D94" d="M12.767202,50.447777h0.564941l4.852051,8.042969l1.263184,2.160156h0.066406
			c-0.033203-1.063477-0.066406-2.060547-0.066406-3.09082v-7.112305h0.498535v10.967285h-0.56543l-4.852051-8.04248
			l-1.262695-2.160156h-0.066406c0.033203,1.030273,0.066406,1.960938,0.066406,2.990723v7.211914h-0.498535V50.447777z"/>
		<path fill="#186D94" d="M25.526968,50.913109h-3.555664v-0.465332h7.643555v0.465332h-3.555664v10.501953h-0.532227V50.913109z"/>
		<path fill="#186D94" d="M31.640738,50.447777h5.882326v0.465332h-5.350586v4.42041h4.486328v0.464844h-4.486328v5.151367h5.516602
			v0.465332h-6.048342V50.447777z"/>
		<path fill="#186D94" d="M46.062614,61.415062l-3.090332-5.18457H40.51281v5.18457h-0.531738V50.447777h3.024414
			c2.160156,0,3.522461,0.797852,3.522461,2.825195c0,1.744629-1.129883,2.758301-2.95752,2.924316l3.124023,5.217773H46.062614z
			 M42.805779,55.76516c2.027344,0,3.157227-0.797363,3.157227-2.492188c0-1.728516-1.129883-2.359863-3.157227-2.359863H40.51281
			v4.852051H42.805779z"/>
		<path fill="#186D94" d="M49.019157,50.447777h0.564941l4.852051,8.042969l1.263184,2.160156h0.066406
			c-0.033203-1.063477-0.066406-2.060547-0.066406-3.09082v-7.112305h0.498535v10.967285h-0.56543l-4.852051-8.04248
			l-1.262695-2.160156h-0.066406c0.033203,1.030273,0.066406,1.960938,0.066406,2.990723v7.211914h-0.498535V50.447777z"/>
		<path fill="#186D94" d="M64.271599,57.493675h-4.469727l-1.379395,3.921387h-0.531738l3.921875-10.967285h0.464844
			l3.921875,10.967285h-0.564941L64.271599,57.493675z M64.105583,57.028343l-0.764648-2.193359
			c-0.464844-1.32959-0.86377-2.459473-1.262695-3.822266h-0.066406c-0.398926,1.362793-0.797852,2.492676-1.262695,3.822266
			l-0.78125,2.193359H64.105583z"/>
		<path fill="#186D94" d="M67.892693,50.447777h0.531738V60.94973h5.151367v0.465332h-5.683105V50.447777z"/>
		<path fill="#186D94" d="M74.604607,59.587425c0.797852,0.930176,1.960938,1.52832,3.290039,1.52832
			c1.761719,0,2.891602-0.963379,2.891602-2.359375c0-1.462402-0.930664-1.927734-2.027344-2.42627l-1.694824-0.76416
			c-0.930664-0.415527-2.226563-1.063477-2.226563-2.691895c0-1.562012,1.329102-2.625488,3.090332-2.625488
			c1.32959,0,2.359863,0.614746,2.991211,1.295898l-0.33252,0.365723c-0.631348-0.697754-1.528809-1.163086-2.658691-1.163086
			c-1.528809,0-2.559082,0.830566-2.559082,2.09375c0,1.362305,1.146973,1.877441,1.927734,2.226563l1.694824,0.76416
			c1.213379,0.548828,2.32666,1.196777,2.32666,2.891602c0,1.661621-1.362793,2.891113-3.42334,2.891113
			c-1.628418,0-2.824707-0.697754-3.655762-1.661621L74.604607,59.587425z"/>
	</g>
</g>
<polygon fill="#BBE5F3" points="63.512295,37.855522 70.772522,25.280199 67.142464,18.992537 59.882015,31.56786 "/>
<polygon fill="#186D94" points="48.991619,12.704876 45.36145,6.417215 38.101112,6.417215 41.731281,12.704876 "/>
<polygon fill="#00557C" points="78.032967,12.704876 81.663139,6.417215 45.36145,6.417215 48.991619,12.704876 "/>
<polygon fill="#3488AD" points="41.731281,12.704876 48.991619,12.704876 59.882126,31.56786 56.251957,37.855522 "/>
<polygon fill="#81C1DC" points="59.882126,44.143181 63.512295,37.855522 59.882015,31.56786 56.251957,37.855522 "/>
<polygon fill="#00557C" points="19.950268,37.855522 34.471054,12.704876 30.840885,6.417215 12.690042,37.855522 "/>
<polygon fill="#BBE5F3" points="52.621788,44.143181 48.991619,37.855522 19.950268,37.855522 16.320099,44.143181 "/>
<polygon fill="#3488AD" points="9.059873,44.143181 16.320099,44.143181 19.950268,37.855522 12.690042,37.855522 "/>
</svg>
