<?xml version="1.0" encoding="utf-8"?>
<!-- Generator: Adobe Illustrator 19.1.0, SVG Export Plug-In . SVG Version: 6.00 Build 0)  -->
<svg version="1.1" id="Layer_1" xmlns="http://www.w3.org/2000/svg" xmlns:xlink="http://www.w3.org/1999/xlink" x="0px" y="0px"
	 viewBox="0 0 90.708664 68.031494" enable-background="new 0 0 90.708664 68.031494" xml:space="preserve">
<g>
	<g>
		<g>
			<path fill="#585858" d="M9.045737,50.448364h0.531738v10.966797H9.045737V50.448364z"/>
			<path fill="#585858" d="M12.767417,50.448364h0.564941l4.852052,8.041992l1.263184,2.160156H19.514
				c-0.033203-1.063477-0.066406-2.060547-0.066406-3.09082v-7.111328h0.498047v10.966797h-0.564941l-4.852052-8.042969
				l-1.262695-2.160156h-0.066406c0.033203,1.030273,0.066406,1.960938,0.066406,2.991211v7.211914h-0.498535V50.448364z"/>
			<path fill="#585858" d="M25.527672,50.913208h-3.556152v-0.464844h7.643555v0.464844h-3.556152v10.501953h-0.53125V50.913208z"/>
			<path fill="#585858" d="M31.640953,50.448364h5.882324v0.464844h-5.350586v4.419922h4.486328v0.46582h-4.486328v5.151367
				h5.516602v0.464844h-6.04834V50.448364z"/>
			<path fill="#585858" d="M46.062828,61.415161l-3.090332-5.18457h-2.459473v5.18457h-0.531738V50.448364h3.024414
				c2.160156,0,3.522461,0.796875,3.522461,2.824219c0,1.745117-1.129883,2.758789-2.95752,2.924805l3.124023,5.217773H46.062828z
				 M42.805992,55.765747c2.027344,0,3.157227-0.797852,3.157227-2.493164c0-1.727539-1.129883-2.359375-3.157227-2.359375
				h-2.292969v4.852539H42.805992z"/>
			<path fill="#585858" d="M49.019371,50.448364h0.564941l4.852051,8.041992l1.263184,2.160156h0.066406
				c-0.033203-1.063477-0.066406-2.060547-0.066406-3.09082v-7.111328h0.498047v10.966797h-0.564941l-4.852051-8.042969
				l-1.262695-2.160156H49.4515c0.033203,1.030273,0.066406,1.960938,0.066406,2.991211v7.211914h-0.498535V50.448364z"/>
			<path fill="#585858" d="M64.271812,57.493286h-4.469727l-1.379395,3.921875h-0.531738l3.921875-10.966797h0.464844
				l3.921875,10.966797h-0.564941L64.271812,57.493286z M64.105797,57.028442l-0.764648-2.193359
				c-0.464844-1.329102-0.86377-2.458984-1.262695-3.822266h-0.066406c-0.398926,1.363281-0.797852,2.493164-1.262695,3.822266
				l-0.78125,2.193359H64.105797z"/>
			<path fill="#585858" d="M67.892906,50.448364h0.531738v10.501953h5.151367v0.464844h-5.683105V50.448364z"/>
			<path fill="#585858" d="M74.605309,59.587036c0.797852,0.930664,1.960938,1.529297,3.290039,1.529297
				c1.761719,0,2.891602-0.963867,2.891602-2.359375c0-1.462891-0.930664-1.927734-2.027344-2.426758l-1.694824-0.764648
				c-0.930664-0.415039-2.226563-1.0625-2.226563-2.691406c0-1.5625,1.329102-2.625,3.090332-2.625
				c1.32959,0,2.359863,0.614258,2.991211,1.295898l-0.33252,0.365234c-0.631348-0.698242-1.528809-1.163086-2.658691-1.163086
				c-1.528809,0-2.559082,0.831055-2.559082,2.09375c0,1.362305,1.146973,1.87793,1.927734,2.226563l1.694824,0.764648
				c1.213379,0.547852,2.32666,1.196289,2.32666,2.890625c0,1.662109-1.362793,2.891602-3.42334,2.891602
				c-1.628418,0-2.824707-0.697266-3.655762-1.661133L74.605309,59.587036z"/>
		</g>
	</g>
	<polygon fill="#DADADA" points="63.512138,37.855194 70.772339,25.279963 67.142296,18.992346 59.88187,31.567579 	"/>
	<polygon fill="#585858" points="48.991508,12.70473 45.361351,6.417113 38.10104,6.417113 41.731194,12.70473 	"/>
	<polygon fill="#404040" points="78.032768,12.70473 81.662926,6.417113 45.361351,6.417113 48.991508,12.70473 	"/>
	<polygon fill="#737373" points="41.731194,12.70473 48.991508,12.70473 59.881981,31.567579 56.251823,37.855194 	"/>
	<polygon fill="#B1B1B1" points="59.881981,44.142811 63.512138,37.855194 59.88187,31.567579 56.251823,37.855194 	"/>
	<polygon fill="#404040" points="19.950251,37.855194 34.470989,12.70473 30.840834,6.417113 12.690047,37.855194 	"/>
	<polygon fill="#DADADA" points="52.621666,44.142811 48.991508,37.855194 19.950251,37.855194 16.320093,44.142811 	"/>
	<polygon fill="#737373" points="9.05989,44.142811 16.320093,44.142811 19.950251,37.855194 12.690047,37.855194 	"/>
</g>
</svg>
