<?xml version="1.0" encoding="utf-8"?>
<!-- Generator: Adobe Illustrator 19.1.0, SVG Export Plug-In . SVG Version: 6.00 Build 0)  -->
<svg version="1.1" id="Layer_1" xmlns="http://www.w3.org/2000/svg" xmlns:xlink="http://www.w3.org/1999/xlink" x="0px" y="0px"
	 viewBox="0 0 158.740158 28.346457" enable-background="new 0 0 158.740158 28.346457" xml:space="preserve">
<g>
	<polygon fill="#BBE5F3" points="29.383757,19.715824 32.582497,14.175355 30.983152,11.405121 27.784311,16.945589 	"/>
	<g>
		<g>
			<path fill="#186D94" d="M43.761349,5.859752h0.806641v16.626953h-0.806641V5.859752z"/>
			<path fill="#186D94" d="M49.403927,5.859752h0.857422l7.355469,12.192871l1.915039,3.275391h0.100586
				c-0.050781-1.612305-0.100586-3.124023-0.100586-4.686035V5.859752h0.755859v16.626953h-0.856445l-7.356445-12.192871
				l-1.915039-3.275391H50.0592c0.050781,1.562012,0.100586,2.972657,0.100586,4.534668v10.933594h-0.755859V5.859752z"/>
			<path fill="#186D94" d="M68.751587,6.565319h-5.390629V5.859752h11.587894v0.705566h-5.390625v15.921387h-0.806641V6.565319z"/>
			<path fill="#186D94" d="M78.023071,5.859752h8.917969v0.705566h-8.112305v6.701172h6.801758v0.705078h-6.801758v7.80957h8.364258
				v0.705566h-9.169922V5.859752z"/>
			<path fill="#186D94" d="M99.889282,22.486706l-4.685547-7.859863H91.47522v7.859863h-0.805664V5.859752h4.584961
				c3.274414,0,5.339844,1.209473,5.339844,4.282715c0,2.64502-1.712891,4.182129-4.483398,4.434082l4.735352,7.910156H99.889282z
				 M94.951782,13.921276c3.073242,0,4.786133-1.208984,4.786133-3.778809c0-2.620118-1.712891-3.577149-4.786133-3.577149H91.47522
				v7.355958H94.951782z"/>
			<path fill="#186D94" d="M104.372681,5.859752h0.857422l7.355469,12.192871l1.915039,3.275391h0.100586
				c-0.050781-1.612305-0.100586-3.124023-0.100586-4.686035V5.859752h0.755859v16.626953h-0.856445l-7.356445-12.192871
				l-1.915039-3.275391h-0.100586c0.050781,1.562012,0.100586,2.972657,0.100586,4.534668v10.933594h-0.755859V5.859752z"/>
			<path fill="#186D94" d="M127.499634,16.541393h-6.777344l-2.09082,5.945313h-0.805664l5.945313-16.626953h0.705078
				l5.945313,16.626953h-0.856445L127.499634,16.541393z M127.247681,15.835827l-1.15918-3.325195
				c-0.705078-2.015625-1.30957-3.728516-1.914063-5.794434h-0.101563c-0.604492,2.065918-1.208984,3.778809-1.914063,5.794434
				l-1.18457,3.325195H127.247681z"/>
			<path fill="#186D94" d="M132.991821,5.859752h0.805664v15.921387h7.80957v0.705566h-8.615234V5.859752z"/>
			<path fill="#186D94" d="M143.169556,19.71571c1.208984,1.410645,2.972656,2.317383,4.987305,2.317383
				c2.670898,0,4.383789-1.460938,4.383789-3.577148c0-2.216797-1.411133-2.922363-3.073242-3.678223l-2.569336-1.158691
				c-1.411133-0.629883-3.375977-1.612305-3.375977-4.081055c0-2.368165,2.014648-3.980469,4.685547-3.980469
				c2.015625,0,3.577148,0.932129,4.53418,1.964844l-0.503906,0.5542c-0.957031-1.058106-2.317383-1.763184-4.030273-1.763184
				c-2.317383,0-3.879883,1.259766-3.879883,3.174317c0,2.06543,1.738281,2.84668,2.922852,3.375488l2.569336,1.15918
				c1.838867,0.831055,3.527344,1.813477,3.527344,4.383301c0,2.519043-2.066406,4.383301-5.19043,4.383301
				c-2.46875,0-4.282227-1.058105-5.541992-2.519043L143.169556,19.71571z"/>
		</g>
	</g>
	<polygon fill="#186D94" points="22.986174,8.634887 21.386778,5.864652 18.187986,5.864652 19.787382,8.634887 	"/>
	<polygon fill="#00557C" points="35.781338,8.634887 37.380733,5.864652 21.386778,5.864652 22.986174,8.634887 	"/>
	<polygon fill="#3488AD" points="19.787382,8.634887 22.986174,8.634887 27.784361,16.945589 26.184965,19.715824 	"/>
	<polygon fill="#81C1DC" points="27.784361,22.486057 29.383757,19.715824 27.784311,16.945589 26.184965,19.715824 	"/>
	<polygon fill="#00557C" points="10.191009,19.715824 16.58864,8.634887 14.989244,5.864652 6.992267,19.715824 	"/>
	<polygon fill="#BBE5F3" points="24.585569,22.486057 22.986174,19.715824 10.191009,19.715824 8.591613,22.486057 	"/>
	<polygon fill="#3488AD" points="5.392871,22.486057 8.591613,22.486057 10.191009,19.715824 6.992267,19.715824 	"/>
</g>
</svg>
