<?xml version="1.0" encoding="utf-8"?>
<!-- Generator: Adobe Illustrator 19.1.0, SVG Export Plug-In . SVG Version: 6.00 Build 0)  -->
<svg version="1.1" id="Layer_1" xmlns="http://www.w3.org/2000/svg" xmlns:xlink="http://www.w3.org/1999/xlink" x="0px" y="0px"
	 viewBox="0 0 90.708664 68.031494" enable-background="new 0 0 90.708664 68.031494" xml:space="preserve">
<g>
	<g>
		<g>
			<path fill="#231F20" d="M9.045863,50.447887h0.531738v10.966797H9.045863V50.447887z"/>
			<path fill="#231F20" d="M12.767543,50.447887h0.564941l4.85205,8.041992l1.263184,2.160156h0.066406
				c-0.033203-1.063477-0.066406-2.060547-0.066406-3.09082v-7.111328h0.498535v10.966797h-0.56543l-4.85205-8.042969
				l-1.262695-2.160156h-0.066406c0.033203,1.030273,0.066406,1.960938,0.066406,2.991211v7.211914h-0.498535V50.447887z"/>
			<path fill="#231F20" d="M25.527308,50.912731h-3.555664v-0.464844h7.643555v0.464844h-3.555664v10.501953h-0.532227V50.912731z"
				/>
			<path fill="#231F20" d="M31.641077,50.447887h5.882326v0.464844h-5.350586v4.419922h4.486328v0.46582h-4.486328v5.151367
				h5.516602v0.464844h-6.048342V50.447887z"/>
			<path fill="#231F20" d="M46.062954,61.414684l-3.090332-5.18457h-2.459473v5.18457h-0.531738V50.447887h3.024414
				c2.160156,0,3.522461,0.796875,3.522461,2.824219c0,1.745117-1.129883,2.758789-2.95752,2.924805l3.124023,5.217773H46.062954z
				 M42.806118,55.76527c2.027344,0,3.157227-0.797852,3.157227-2.493164c0-1.727539-1.129883-2.359375-3.157227-2.359375h-2.292969
				v4.852539H42.806118z"/>
			<path fill="#231F20" d="M49.019497,50.447887h0.564941l4.852051,8.041992l1.263184,2.160156h0.066406
				c-0.033203-1.063477-0.066406-2.060547-0.066406-3.09082v-7.111328h0.498535v10.966797h-0.56543l-4.852051-8.042969
				l-1.262695-2.160156h-0.066406c0.033203,1.030273,0.066406,1.960938,0.066406,2.991211v7.211914h-0.498535V50.447887z"/>
			<path fill="#231F20" d="M64.271935,57.492809h-4.469723l-1.379395,3.921875h-0.531738l3.921875-10.966797h0.464844
				l3.921871,10.966797h-0.564941L64.271935,57.492809z M64.105919,57.027966l-0.764645-2.193359
				c-0.464844-1.329102-0.86377-2.459961-1.262695-3.822266h-0.066406c-0.398926,1.362305-0.797852,2.493164-1.262695,3.822266
				l-0.78125,2.193359H64.105919z"/>
			<path fill="#231F20" d="M67.893028,50.447887h0.531738v10.501953h5.151367v0.464844h-5.683105V50.447887z"/>
			<path fill="#231F20" d="M74.605431,59.586559c0.797852,0.930664,1.960938,1.529297,3.290039,1.529297
				c1.761719,0,2.891602-0.963867,2.891602-2.360352c0-1.461914-0.930664-1.926758-2.027344-2.425781l-1.694824-0.763672
				c-0.930664-0.416016-2.227051-1.064453-2.227051-2.692383c0-1.561523,1.32959-2.625977,3.09082-2.625977
				c1.32959,0,2.359863,0.615234,2.991211,1.296875l-0.33252,0.365234c-0.631348-0.698242-1.528809-1.163086-2.658691-1.163086
				c-1.528809,0-2.558594,0.831055-2.558594,2.09375c0,1.362305,1.146484,1.87793,1.927246,2.226563l1.694824,0.764648
				c1.213379,0.547852,2.32666,1.196289,2.32666,2.890625c0,1.662109-1.362793,2.891602-3.42334,2.891602
				c-1.628418,0-2.824707-0.697266-3.655762-1.661133L74.605431,59.586559z"/>
		</g>
	</g>
	<polygon fill="#231F20" points="52.621559,44.143261 48.991405,37.855648 19.950281,37.855648 34.470898,12.705201 
		30.840744,6.41759 9.059818,44.143261 	"/>
	<polygon fill="#231F20" points="59.88187,44.143261 70.772217,25.280424 67.142174,18.992813 59.88176,31.568037 
		48.991405,12.705201 78.032639,12.705201 81.662796,6.41759 38.100945,6.41759 	"/>
</g>
</svg>
