<svg xmlns="http://www.w3.org/2000/svg" xmlns:xlink="http://www.w3.org/1999/xlink" viewBox="0 0 416 416"><defs><style>.a{fill:none;}.b{fill:#404040;}.c{clip-path:url(#a);}.d{fill:#d9d8d7;}.e{fill:#81c1dc;}.f{fill:#3488ad;}.g{fill:#bbe5f3;}.h{fill:#cccbca;}.i{fill:#e6e5e5;}.j{fill:#242d3c;}.k{fill:#00557c;}</style><clipPath id="a"><rect class="a" x="3.2" y="3.2" width="409.6" height="409.6"/></clipPath></defs><title>core-rcg</title><path class="b" d="M357.3,214a9.82,9.82,0,0,0-7.1-2.9H65.8a10.0679,10.0679,0,0,0-7.1,2.9,9.82,9.82,0,0,0-2.9,7.1V396.8H360.3V221.1A9.76,9.76,0,0,0,357.3,214ZM344.4,396.8H71.6V226.5H344.4Z"/><g class="c"><path class="d" d="M118.4,158.3a1.9743,1.9743,0,0,0-1.4-.6H100.3a1.8987,1.8987,0,0,0-1.9,1.9,1.9669,1.9669,0,0,0,1.9,1.9h15.9L141.7,187v24h3.9V186.3a1.9743,1.9743,0,0,0-.6-1.4Z"/></g><g class="c"><path class="d" d="M129.7,140.8V124.5a1.9,1.9,0,1,0-3.8,0v17.1a1.9743,1.9743,0,0,0,.6,1.4l33.7,33.7V211h3.9V175.8a1.9743,1.9743,0,0,0-.6-1.4Z"/></g><g class="c"><path class="d" d="M161.4,152.1V81.9a1.9743,1.9743,0,0,0-.6-1.4L121.1,40.8a1.9092,1.9092,0,0,0-2.7,2.7l39.1,39.1v70.2a1.9743,1.9743,0,0,0,.6,1.4l20.4,20.4V211h3.9V173.8a1.9743,1.9743,0,0,0-.6-1.4Z"/></g><g class="c"><path class="d" d="M185.7,67.5a1.9092,1.9092,0,1,0-2.7,2.7l13.9,13.9V211h3.9V83.3a1.9743,1.9743,0,0,0-.6-1.4Z"/></g><g class="c"><path class="d" d="M315.7,157.8H299a1.9743,1.9743,0,0,0-1.4.6L271,185a1.9743,1.9743,0,0,0-.6,1.4V211h3.9V187.1l25.5-25.5h15.9a1.9,1.9,0,0,0,0-3.8Z"/></g><g class="c"><path class="d" d="M290.2,141.6V124.5a1.9,1.9,0,1,0-3.8,0v16.3l-33.7,33.7a1.9743,1.9743,0,0,0-.6,1.4V211H256V176.6l33.7-33.7A1.901,1.901,0,0,0,290.2,141.6Z"/></g><g class="c"><path class="d" d="M258.5,152.9V82.7l39.1-39.1a1.9092,1.9092,0,0,0-2.7-2.7L255.2,80.6a1.9743,1.9743,0,0,0-.6,1.4v70.2l-20.4,20.4a1.9743,1.9743,0,0,0-.6,1.4v37h3.9V174.6l20.4-20.4A1.6125,1.6125,0,0,0,258.5,152.9Z"/></g><g class="c"><path class="d" d="M230.3,67.5,215.9,81.9a1.9743,1.9743,0,0,0-.6,1.4V211h3.9V84.1L233,70.2a1.9092,1.9092,0,1,0-2.7-2.7Z"/></g><path class="e" d="M80.8,22.7a19.4611,19.4611,0,0,0,19.5,19.5h19.5l-39-39Z"/><rect class="a" x="3.2" y="3.2" width="409.6" height="409.6"/><path class="f" d="M100.3,3.2a19.4611,19.4611,0,0,1,19.5,19.5V42.2l-39-39Z"/><rect class="a" x="3.2" y="3.2" width="409.6" height="409.6"/><path class="g" d="M145.4,49.4a19.4611,19.4611,0,0,0,19.5,19.5h19.5l-39-39Z"/><rect class="a" x="3.2" y="3.2" width="409.6" height="409.6"/><path class="e" d="M164.9,29.9a19.4611,19.4611,0,0,1,19.5,19.5V68.9l-39-39Z"/><rect class="a" x="3.2" y="3.2" width="409.6" height="409.6"/><path class="e" d="M251.2,29.9a19.4611,19.4611,0,0,0-19.5,19.5V68.9l39-39Z"/><rect class="a" x="3.2" y="3.2" width="409.6" height="409.6"/><path class="f" d="M270.6,49.4a19.4611,19.4611,0,0,1-19.5,19.5H231.6l39-39Z"/><rect class="a" x="3.2" y="3.2" width="409.6" height="409.6"/><path class="g" d="M315.8,3.2a19.4611,19.4611,0,0,0-19.5,19.5V42.2l39-39Z"/><rect class="a" x="3.2" y="3.2" width="409.6" height="409.6"/><path class="e" d="M335.3,22.7a19.4611,19.4611,0,0,1-19.5,19.5H296.3l39-39Z"/><rect class="a" x="3.2" y="3.2" width="409.6" height="409.6"/><path class="e" d="M114,83.1a19.5553,19.5553,0,0,0,0,27.6l13.8,13.8V69.3Z"/><rect class="a" x="3.2" y="3.2" width="409.6" height="409.6"/><path class="f" d="M141.5,83.1a19.5553,19.5553,0,0,1,0,27.6l-13.8,13.8V69.3Z"/><rect class="a" x="3.2" y="3.2" width="409.6" height="409.6"/><path class="g" d="M274.5,83.1a19.5553,19.5553,0,0,0,0,27.6l13.8,13.8V69.3Z"/><rect class="a" x="3.2" y="3.2" width="409.6" height="409.6"/><path class="e" d="M302,83.1a19.5553,19.5553,0,0,1,0,27.6l-13.8,13.8V69.3Z"/><rect class="a" x="3.2" y="3.2" width="409.6" height="409.6"/><path class="g" d="M86.5,145.9a19.5553,19.5553,0,0,0-27.6,0L45.1,159.7h55.2Z"/><rect class="a" x="3.2" y="3.2" width="409.6" height="409.6"/><path class="e" d="M86.5,173.5a19.5553,19.5553,0,0,1-27.6,0L45.1,159.7h55.2Z"/><rect class="a" x="3.2" y="3.2" width="409.6" height="409.6"/><path class="g" d="M357,145.9a19.5553,19.5553,0,0,0-27.6,0l-13.8,13.8h55.2Z"/><rect class="a" x="3.2" y="3.2" width="409.6" height="409.6"/><path class="e" d="M357,173.5a19.5553,19.5553,0,0,1-27.6,0l-13.8-13.8h55.2Z"/><rect class="a" x="3.2" y="3.2" width="409.6" height="409.6"/><rect class="a" x="3.2" y="3.2" width="409.6" height="409.6"/><rect class="a" x="3.2" y="3.2" width="409.6" height="409.6"/><g class="c"><path class="h" d="M18.3,402.8a117.1216,117.1216,0,0,0,47.7,10H350a118.4271,118.4271,0,0,0,47.7-10Z"/></g><g class="c"><rect class="i" x="18.3" y="396.8" width="379.5" height="5.9"/></g><g class="c"><rect class="j" x="174.7" y="396.8" width="66.6" height="3"/></g><path class="k" d="M117.2,307.9a5.2,5.2,0,1,1,5.2-5.2A5.2942,5.2942,0,0,1,117.2,307.9Zm9-5.2a8.718,8.718,0,0,0-1.4-4.8L145,277.7a1.9743,1.9743,0,0,0,.6-1.4V226.5h-3.9v48.9L122,295.2a8.9917,8.9917,0,1,0,4.2,7.5Z"/><rect class="a" x="3.2" y="3.2" width="409.6" height="409.6"/><path class="k" d="M126.8,342.3a5.2,5.2,0,1,1,5.2-5.2A5.2281,5.2281,0,0,1,126.8,342.3Zm23.5-26.7V290.8l13.1-13.1a1.9743,1.9743,0,0,0,.6-1.4V226.5h-3.9v48.9L147,288.6a1.9743,1.9743,0,0,0-.6,1.4v24.8l-14.8,14.8a9.033,9.033,0,1,0,4.1,7.6,8.718,8.718,0,0,0-1.4-4.8l15.3-15.3A2.0837,2.0837,0,0,0,150.3,315.6Z"/><rect class="a" x="3.2" y="3.2" width="409.6" height="409.6"/><path class="k" d="M159.2,371.4a5.2,5.2,0,0,1,0-10.4,5.201,5.201,0,0,1,0,10.4Zm1.9-13.9V298.3l20.7-20.7a1.9743,1.9743,0,0,0,.6-1.4V226.4h-3.9v48.9L157.8,296a1.9743,1.9743,0,0,0-.6,1.4v60a9.0013,9.0013,0,1,0,10.9,8.8A8.7833,8.7833,0,0,0,161.1,357.5Z"/><rect class="a" x="3.2" y="3.2" width="409.6" height="409.6"/><path class="k" d="M174.9,321.5a5.15,5.15,0,1,1,0-10.3,5.1435,5.1435,0,0,1,5.1,5.2A5.0564,5.0564,0,0,1,174.9,321.5Zm22-46-8.5,8.5a1.9743,1.9743,0,0,0-.6,1.4v15.3l-8,8a8.9915,8.9915,0,1,0,4.2,7.6,9.3109,9.3109,0,0,0-1.4-4.9l8.6-8.6a1.9743,1.9743,0,0,0,.6-1.4V286.1l8.5-8.5a1.9743,1.9743,0,0,0,.6-1.4V226.4H197l-.1,49.1Z"/><rect class="a" x="3.2" y="3.2" width="409.6" height="409.6"/><path class="k" d="M298.8,307.9a5.2281,5.2281,0,0,1-5.2-5.2,5.1452,5.1452,0,0,1,1.5-3.6h0a5.1452,5.1452,0,0,1,3.6-1.5,5.2281,5.2281,0,0,1,5.2,5.2A4.9964,4.9964,0,0,1,298.8,307.9Zm0-14.2a8.718,8.718,0,0,0-4.8,1.4l-19.7-19.7V226.5h-3.9v49.8a1.9743,1.9743,0,0,0,.6,1.4l20.2,20.2a9.0556,9.0556,0,0,0-1.4,4.9,9.0005,9.0005,0,1,0,9-9.1Z"/><rect class="a" x="3.2" y="3.2" width="409.6" height="409.6"/><path class="k" d="M289.2,342.3a5.2,5.2,0,1,1,5.2-5.2A5.2281,5.2281,0,0,1,289.2,342.3Zm0-14.2a9.3109,9.3109,0,0,0-4.9,1.4l-14.8-14.8V290a1.9743,1.9743,0,0,0-.6-1.4l-13.1-13.1V226.6H252v49.8a1.9743,1.9743,0,0,0,.6,1.4l13.1,13.1v24.8a1.9743,1.9743,0,0,0,.6,1.4l15.3,15.3a8.9525,8.9525,0,1,0,7.6-4.3Z"/><rect class="a" x="3.2" y="3.2" width="409.6" height="409.6"/><path class="k" d="M256.8,371.4a5.1435,5.1435,0,0,1-5.1-5.2,5.15,5.15,0,1,1,5.1,5.2Zm1.9-13.9v-60a1.9743,1.9743,0,0,0-.6-1.4l-20.7-20.7V226.5h-3.9v49.8a1.9743,1.9743,0,0,0,.6,1.4l20.7,20.7v59.2a9.104,9.104,0,0,0-7.1,8.8,9,9,0,0,0,18,0A8.8441,8.8441,0,0,0,258.7,357.5Z"/><rect class="a" x="3.2" y="3.2" width="409.6" height="409.6"/><path class="k" d="M241.1,321.5a5.2083,5.2083,0,0,1-5.2-5.1,5.1452,5.1452,0,0,1,1.5-3.6h0a5.1452,5.1452,0,0,1,3.6-1.5,5.2281,5.2281,0,0,1,5.2,5.2A5.1694,5.1694,0,0,1,241.1,321.5Zm0-14.2a8.718,8.718,0,0,0-4.8,1.4l-8-8V285.4a1.9743,1.9743,0,0,0-.6-1.4l-8.5-8.5v-49h-3.9v49.8a1.9743,1.9743,0,0,0,.6,1.4l8.5,8.5v15.3a1.9743,1.9743,0,0,0,.6,1.4l8.6,8.6a9.0613,9.0613,0,0,0,7.6,13.9,8.9626,8.9626,0,0,0,9-9A9.1329,9.1329,0,0,0,241.1,307.3Z"/><rect class="a" x="3.2" y="3.2" width="409.6" height="409.6"/></svg>