<svg xmlns="http://www.w3.org/2000/svg" viewBox="0 0 416 416"><defs><style>.a,.b{fill:none;}.b,.c{stroke:#00557c;stroke-miterlimit:10;stroke-width:4px;}.c{fill:#fff;}.d{fill:#3488ad;}.e{fill:#bbe5f3;}.f{fill:#00557c;}.g{fill:#e6e5e5;}.h{fill:#81c1dc;}.i{fill:#186d94;}.j{fill:#cccbca;}</style></defs><title>core-cpp</title><rect class="a" x="3.2" y="3.2" width="409.6" height="409.6"/><rect class="a" x="3.2" y="3.2" width="409.6" height="409.6"/><rect class="a" x="3.2" y="3.2" width="409.6" height="409.6"/><rect class="a" x="3.2" y="3.2" width="409.6" height="409.6"/><rect class="a" x="3.2" y="3.2" width="409.6" height="409.6"/><rect class="a" x="3.2" y="3.2" width="409.6" height="409.6"/><rect class="a" x="3.2" y="3.2" width="409.6" height="409.6"/><rect class="a" x="3.2" y="3.2" width="409.6" height="409.6"/><rect class="a" x="3.2" y="3.2" width="409.6" height="409.6"/><rect class="a" x="3.2" y="3.2" width="409.6" height="409.6"/><rect class="a" x="3.2" y="3.2" width="409.6" height="409.6"/><rect class="a" x="3.2" y="3.2" width="409.6" height="409.6"/><rect class="a" x="3.2" y="3.2" width="409.6" height="409.6"/><rect class="a" x="3.2" y="3.2" width="409.6" height="409.6"/><rect class="a" x="3.2" y="3.2" width="409.6" height="409.6"/><line class="a" x1="163.7" y1="185" x2="162.4" y2="187.3"/><rect class="a" x="3.2" y="3.2" width="409.6" height="409.6"/><rect class="a" x="3.2" y="3.2" width="409.6" height="409.6"/><rect class="a" x="3.2" y="3.2" width="409.6" height="409.6"/><rect class="a" x="3.2" y="3.2" width="409.6" height="409.6"/><rect class="a" x="3.2" y="3.2" width="409.6" height="409.6"/><rect class="a" x="3.2" y="3.2" width="409.6" height="409.6"/><rect class="a" x="3.2" y="3.2" width="409.6" height="409.6"/><rect class="a" x="3.2" y="3.2" width="409.6" height="409.6"/><rect class="a" x="3.2" y="3.2" width="409.6" height="409.6"/><rect class="a" x="3.2" y="3.2" width="409.6" height="409.6"/><rect class="a" x="3.2" y="3.2" width="409.6" height="409.6"/><rect class="a" x="3.2" y="3.2" width="409.6" height="409.6"/><rect class="a" x="3.2" y="3.2" width="409.6" height="409.6"/><rect class="a" x="3.2" y="3.2" width="409.6" height="409.6"/><rect class="a" x="3.2" y="3.2" width="409.6" height="409.6"/><rect class="a" x="3.2" y="3.2" width="409.6" height="409.6"/><rect class="a" x="3.2" y="3.2" width="409.6" height="409.6"/><rect class="a" x="3.2" y="3.2" width="409.6" height="409.6"/><rect class="a" x="3.2" y="3.2" width="409.6" height="409.6"/><rect class="a" x="3.2" y="3.2" width="409.6" height="409.6"/><rect class="a" x="3.2" y="3.2" width="409.6" height="409.6"/><rect class="a" x="3.2" y="3.2" width="409.6" height="409.6"/><rect class="a" x="3.2" y="3.2" width="409.6" height="409.6"/><rect class="a" x="3.2" y="3.2" width="409.6" height="409.6"/><rect class="a" x="3.2" y="3.2" width="409.6" height="409.6"/><polyline class="b" points="170.1 360.8 203.4 360.8 203.4 209.5"/><polyline class="b" points="203.4 209.5 299.875 263.2 348.75 263.2 348.75 299.4"/><polyline class="b" points="78.05 216.1 78.05 251.2 130.75 251.2 203.4 209.5"/><polyline class="b" points="203.4 209.5 269 171.7 318.8 171.7 318.8 135.5"/><polyline class="b" points="170.1 93 203.4 93 203.4 209.5"/><circle class="c" cx="203.4" cy="93" r="7.1555"/><circle class="c" cx="299.875" cy="263.2" r="7.1555"/><circle class="c" cx="203.4" cy="360.8" r="7.1555"/><circle class="c" cx="130.75" cy="251.2" r="7.1555"/><circle class="c" cx="78" cy="251.2" r="7.1555"/><circle class="c" cx="348.8" cy="263.2" r="7.1555"/><circle class="c" cx="269" cy="171.7" r="7.1555"/><circle class="c" cx="318.8" cy="171.7" r="7.1555"/><polygon class="d" points="162.4 185.8 203.4 209.5 244.4 185.8 203.4 162.1 162.4 185.8"/><polygon class="e" points="203.4 209.5 203.4 256.8 162.4 233.1 162.4 185.8 203.4 209.5"/><polygon class="f" points="244.4 185.8 244.4 233.1 203.4 256.8 203.4 209.5 244.4 185.8"/><rect class="g" x="291.4" y="80.8" width="54.7" height="54.7"/><rect class="g" x="50.7" y="161.4" width="54.7" height="54.7"/><rect class="g" x="115.4" y="64.4" width="54.7" height="54.7"/><rect class="g" x="115.4" y="333.45" width="54.7" height="54.7"/><rect class="g" x="321.4" y="299.4" width="54.7" height="54.7"/><rect class="h" x="329.6" y="192.9" width="22.2" height="22.2"/><rect class="f" x="401" y="236.1" width="11.8" height="11.8"/><rect class="i" x="271.2" y="342.5" width="25.6" height="25.6"/><rect class="d" x="336.8" y="368.9" width="12.8" height="12.8"/><rect class="d" x="162.4" y="267.3" width="17.1" height="17.1"/><rect class="g" x="243.8" y="295.7" width="8.7" height="8.7"/><rect class="j" x="125.1" y="191.6" width="12.4" height="12.4"/><rect class="j" x="186.75" y="395.2" width="12.4" height="12.4"/><rect class="h" x="3.2" y="178.4" width="19.4" height="19.4"/><rect class="f" x="237.1" y="126.2" width="15.5" height="15.5"/><rect class="j" x="295.5" y="18.5" width="23.3" height="23.3"/><rect class="d" x="73.8" y="27.5" width="20.3" height="20.3"/><rect class="g" x="52.8" y="68.7" width="8.7" height="8.7"/><rect class="g" x="36.7" y="256.8" width="8" height="8"/><rect class="j" x="62.1" y="291.5" width="23.3" height="23.3"/></svg>