<?xml version="1.0" encoding="utf-8"?>
<!-- Generator: Adobe Illustrator 21.1.0, SVG Export Plug-In . SVG Version: 6.00 Build 0)  -->
<svg version="1.1" id="Layer_1" xmlns="http://www.w3.org/2000/svg" xmlns:xlink="http://www.w3.org/1999/xlink" x="0px" y="0px"
	 viewBox="0 0 32.6 17.8" style="enable-background:new 0 0 32.6 17.8;" xml:space="preserve">
<style type="text/css">
	.st0{fill:#BBE5F3;}
	.st1{fill:#186D94;}
	.st2{fill:#00557C;}
	.st3{fill:#3488AD;}
	.st4{fill:#81C1DC;}
</style>
<polygon class="st0" points="24.3,14.4 27.5,8.9 25.9,6.1 22.7,11.7 "/>
<polygon class="st1" points="17.9,3.4 16.3,0.6 13.1,0.6 14.7,3.4 "/>
<polygon class="st2" points="30.7,3.4 32.3,0.6 16.3,0.6 17.9,3.4 "/>
<polygon class="st3" points="14.7,3.4 17.9,3.4 22.7,11.7 21.1,14.4 "/>
<polygon class="st4" points="22.7,17.2 24.3,14.4 22.7,11.7 21.1,14.4 "/>
<polygon class="st2" points="5.1,14.4 11.5,3.4 9.9,0.6 1.9,14.4 "/>
<polygon class="st0" points="19.5,17.2 17.9,14.4 5.1,14.4 3.5,17.2 "/>
<polygon class="st3" points="0.3,17.2 3.5,17.2 5.1,14.4 1.9,14.4 "/>
</svg>
