<?xml version="1.0" encoding="utf-8"?>
<!-- Generator: Adobe Illustrator 21.1.0, SVG Export Plug-In . SVG Version: 6.00 Build 0)  -->
<svg version="1.1" id="Layer_1" xmlns="http://www.w3.org/2000/svg" xmlns:xlink="http://www.w3.org/1999/xlink" x="0px" y="0px"
	 viewBox="0 0 105.392128 16.299213" enable-background="new 0 0 105.392128 16.299213" xml:space="preserve">
<polygon fill="#3488AD" points="8.744817,14.112351 12.409063,7.765624 11.187673,5.650048 8.744779,9.8812 5.080532,3.534473 
	14.851958,3.534473 16.073385,1.418897 1.416247,1.418897 "/>
<polygon fill="#3488AD" points="20.959099,14.112481 19.737671,11.996905 14.851958,11.996905 19.737671,3.534473 
	18.516243,1.418897 11.187673,14.112481 "/>
<g>
	<path fill="#00557C" d="M23.223927,2.519964c0-0.577148,0.443359-0.976563,1.049805-0.976563
		c0.605957,0,1.049805,0.399414,1.049805,0.976563c0,0.561523-0.443848,0.960938-1.049805,0.960938
		C23.667286,3.480902,23.223927,3.081488,23.223927,2.519964z M23.416309,4.752386h1.700195v7.259766h-1.700195V4.752386z"/>
	<path fill="#00557C" d="M27.363575,10.090277c0.650391,0.50293,1.271484,0.8125,2.010742,0.8125
		c0.783691,0,1.15332-0.369141,1.15332-0.87207c0-0.606445-0.783691-0.87207-1.552246-1.167969
		c-0.961426-0.354492-2.040527-0.902344-2.040527-2.114258c0-1.271484,1.02002-2.173828,2.646484-2.173828
		c1.005371,0,1.818848,0.414063,2.410156,0.873047l-0.783691,1.03418c-0.502441-0.369141-1.02002-0.621094-1.59668-0.621094
		c-0.724609,0-1.064941,0.34082-1.064941,0.798828c0,0.561523,0.724609,0.798828,1.508301,1.079102
		c0.990723,0.370117,2.084961,0.842773,2.084961,2.203125c0,1.242188-0.990723,2.248047-2.824219,2.248047
		c-0.990723,0-2.040527-0.428711-2.75-1.005859L27.363575,10.090277z"/>
	<path fill="#00557C" d="M36.293751,4.574652c0.827637,0,1.345215,0.310547,1.907227,0.798828l-0.059082-1.167969V1.573675h1.700195
		v10.438477h-1.404785l-0.118164-0.783203h-0.059082c-0.532227,0.532227-1.271484,0.960938-2.055176,0.960938
		c-1.818848,0-2.986816-1.405273-2.986816-3.799805C33.218067,6.02387,34.711231,4.574652,36.293751,4.574652z M36.618946,10.784613
		c0.561523,0,1.034668-0.250977,1.522949-0.8125V6.585394c-0.50293-0.443359-0.990723-0.605469-1.478516-0.605469
		c-0.931641,0-1.685547,0.87207-1.685547,2.394531C34.977833,9.941839,35.569141,10.784613,36.618946,10.784613z"/>
	<path fill="#00557C" d="M44.868458,4.574652c1.966797,0,3.001465,1.419922,3.001465,3.445313
		c0,0.325195-0.029297,0.621094-0.07373,0.798828h-4.613281c0.147949,1.31543,0.976074,2.054688,2.144043,2.054688
		c0.621094,0,1.15332-0.192383,1.685547-0.532227l0.57666,1.064453c-0.694824,0.458984-1.567383,0.78418-2.483887,0.78418
		c-2.01123,0-3.578125-1.405273-3.578125-3.799805C41.527149,6.02387,43.168262,4.574652,44.868458,4.574652z M46.391407,7.738714
		c0-1.15332-0.487793-1.847656-1.478516-1.847656c-0.857422,0-1.59668,0.635742-1.744629,1.847656H46.391407z"/>
	<path fill="#00557C" d="M51.196095,12.603949v2.276367h-1.700195V4.752386h1.404297l0.118652,0.768555h0.059082
		c0.605957-0.517578,1.389648-0.946289,2.187988-0.946289c1.804199,0,2.854004,1.449219,2.854004,3.696289
		c0,2.484375-1.493652,3.918945-3.105469,3.918945c-0.635742,0-1.271484-0.295898-1.862793-0.798828L51.196095,12.603949z
		 M52.659962,10.784613c0.960938,0,1.700195-0.857422,1.700195-2.498047c0-1.449219-0.473145-2.306641-1.567383-2.306641
		c-0.532227,0-1.034668,0.265625-1.59668,0.8125v3.386719C51.728321,10.622503,52.231251,10.784613,52.659962,10.784613z"/>
	<path fill="#00557C" d="M57.834278,4.752386h1.404297l0.118164,1.286133h0.05957
		c0.51709-0.946289,1.286133-1.463867,2.055176-1.463867c0.369629,0,0.605957,0.044922,0.827637,0.148438l-0.29541,1.478516
		c-0.251465-0.074219-0.443848-0.118164-0.754395-0.118164c-0.576172,0-1.271484,0.398438-1.714844,1.493164v4.435547h-1.700195
		V4.752386z"/>
	<path fill="#00557C" d="M66.069138,4.574652c1.966309,0,3.001465,1.419922,3.001465,3.445313
		c0,0.325195-0.029297,0.621094-0.07373,0.798828h-4.613281c0.147949,1.31543,0.976074,2.054688,2.144043,2.054688
		c0.621094,0,1.15332-0.192383,1.685547-0.532227l0.57666,1.064453c-0.694824,0.458984-1.567383,0.78418-2.483887,0.78418
		c-2.01123,0-3.578121-1.405273-3.578121-3.799805C62.727833,6.02387,64.368942,4.574652,66.069138,4.574652z M67.592087,7.738714
		c0-1.15332-0.487793-1.847656-1.478516-1.847656c-0.857422,0-1.59668,0.635742-1.744629,1.847656H67.592087z"/>
	<path fill="#00557C" d="M73.860153,4.574652c0.931152,0,1.641113,0.370117,2.128906,0.842773l-0.812988,1.080078
		C74.791306,6.156683,74.407028,5.9643,73.948532,5.9643c-1.167969,0-1.980957,0.961914-1.980957,2.425781
		c0,1.448242,0.79834,2.40918,1.937012,2.40918c0.591309,0,1.09375-0.294922,1.493164-0.620117l0.709473,1.079102
		c-0.679688,0.606445-1.552246,0.931641-2.380371,0.931641c-1.981445,0-3.503906-1.390625-3.503906-3.799805
		C70.222946,5.9643,71.923141,4.574652,73.860153,4.574652z"/>
	<path fill="#00557C" d="M81.34111,7.369574c-0.014648-0.768555-0.340332-1.419922-1.315918-1.419922
		c-0.724609,0-1.404785,0.325195-2.040527,0.709961l-0.621094-1.138672c0.79834-0.50293,1.818848-0.946289,2.972168-0.946289
		c1.818359,0,2.705566,1.109375,2.705566,3.134766v4.302734h-1.389648l-0.133301-0.798828h-0.044434
		c-0.650391,0.547852-1.389648,0.976563-2.24707,0.976563c-1.271484,0-2.158691-0.857422-2.158691-2.129883
		C77.068161,8.508245,78.368942,7.694769,81.34111,7.369574z M79.759079,10.858831c0.591309,0,1.049805-0.295898,1.582031-0.798828
		V8.434027c-1.966797,0.250977-2.617188,0.768555-2.617188,1.493164C78.723923,10.577581,79.152634,10.858831,79.759079,10.858831z"
		/>
	<path fill="#00557C" d="M85.362106,6.098089h-1.034668V4.826605l1.123535-0.074219l0.207031-1.981445h1.419434v1.981445h1.848145
		v1.345703h-1.848145V9.55805c0,0.857422,0.325195,1.271484,1.02002,1.271484c0.251465,0,0.547363-0.074219,0.754395-0.163086
		l0.29541,1.256836c-0.398926,0.132813-0.901855,0.266602-1.478516,0.266602c-1.685547,0-2.306641-1.064453-2.306641-2.631836
		V6.098089z"/>
	<path fill="#00557C" d="M93.168259,4.574652c1.966797,0,3.001465,1.419922,3.001465,3.445313
		c0,0.325195-0.029297,0.621094-0.07373,0.798828h-4.613281c0.147949,1.31543,0.976074,2.054688,2.144043,2.054688
		c0.621094,0,1.15332-0.192383,1.685547-0.532227l0.57666,1.064453c-0.694824,0.458984-1.567383,0.78418-2.483887,0.78418
		c-2.01123,0-3.578125-1.405273-3.578125-3.799805C89.82695,6.02387,91.468063,4.574652,93.168259,4.574652z M94.691208,7.738714
		c0-1.15332-0.487793-1.847656-1.478516-1.847656c-0.857422,0-1.59668,0.635742-1.744629,1.847656H94.691208z"/>
	<path fill="#00557C" d="M100.427536,4.574652c0.827637,0,1.345215,0.310547,1.907227,0.798828l-0.059082-1.167969V1.573675
		h1.700195v10.438477h-1.404785l-0.118164-0.783203h-0.059082c-0.532227,0.532227-1.271484,0.960938-2.055176,0.960938
		c-1.818848,0-2.986816-1.405273-2.986816-3.799805C97.351852,6.02387,98.845016,4.574652,100.427536,4.574652z
		 M100.752731,10.784613c0.561523,0,1.034668-0.250977,1.522949-0.8125V6.585394
		c-0.50293-0.443359-0.990723-0.605469-1.478516-0.605469c-0.931641,0-1.685547,0.87207-1.685547,2.394531
		C99.111618,9.941839,99.702927,10.784613,100.752731,10.784613z"/>
</g>
</svg>
