<?xml version="1.0" encoding="utf-8"?>
<!-- Generator: Adobe Illustrator 21.1.0, SVG Export Plug-In . SVG Version: 6.00 Build 0)  -->
<svg version="1.1" id="Layer_1" xmlns="http://www.w3.org/2000/svg" xmlns:xlink="http://www.w3.org/1999/xlink" x="0px" y="0px"
	 viewBox="0 0 72.226768 16.299213" enable-background="new 0 0 72.226768 16.299213" xml:space="preserve">
<polygon fill="#3488AD" points="8.75003,14.111773 12.414277,7.765045 11.192886,5.649469 8.749992,9.880621 5.085745,3.533894 
	14.857171,3.533894 16.0786,1.418318 1.421461,1.418318 "/>
<polygon fill="#3488AD" points="20.964314,14.111902 19.742884,11.996326 14.857171,11.996326 19.742884,3.533894 
	18.521456,1.418318 11.192886,14.111902 "/>
<g>
	<path fill="#00557C" d="M23.421522,1.573591h1.700195v2.69043l-0.044434,1.212891
		c0.606445-0.532227,1.360352-0.902344,2.099609-0.902344c1.818846,0,2.868652,1.449219,2.868652,3.681641
		c0,2.499023-1.493652,3.933594-3.105469,3.933594c-0.665039,0-1.375-0.325195-1.980957-0.916992h-0.044434l-0.147949,0.739258
		h-1.345215V1.573591z M26.585585,10.784529c0.960938,0,1.700195-0.857422,1.700195-2.498047
		c0-1.449219-0.473145-2.306641-1.567383-2.306641c-0.532227,0-1.034668,0.265625-1.59668,0.8125v3.386719
		C25.639296,10.622419,26.156874,10.784529,26.585585,10.784529z"/>
	<path fill="#00557C" d="M31.567518,2.51988c0-0.577148,0.443357-0.976562,1.049803-0.976562
		c0.605957,0,1.049805,0.399414,1.049805,0.976562c0,0.561523-0.443848,0.960938-1.049805,0.960938
		C32.010876,3.480818,31.567518,3.081404,31.567518,2.51988z M31.759901,4.752302h1.700193v7.259766h-1.700193V4.752302z"/>
	<path fill="#00557C" d="M35.633434,4.752302h1.404297l0.118164,0.975586h0.05957
		c0.650391-0.635742,1.389648-1.15332,2.380371-1.15332c1.552246,0,2.232422,1.049805,2.232422,2.883789v4.553711h-1.700195
		V7.680037c0-1.198242-0.339844-1.641602-1.138672-1.641602c-0.635742,0-1.049805,0.310547-1.655762,0.902344v5.071289h-1.700195
		V4.752302z"/>
	<path fill="#00557C" d="M46.544567,4.574568c0.827637,0,1.345215,0.310547,1.907227,0.798828l-0.059082-1.167969V1.573591h1.700195
		v10.438477h-1.404785l-0.118164-0.783203h-0.059082c-0.532227,0.532227-1.271484,0.960938-2.055176,0.960938
		c-1.818848,0-2.986816-1.405273-2.986816-3.799805C43.468884,6.023787,44.962536,4.574568,46.544567,4.574568z
		 M46.869762,10.784529c0.561523,0,1.034668-0.250977,1.522949-0.8125V6.58531
		c-0.50293-0.443359-0.990723-0.605469-1.478516-0.605469c-0.931641,0-1.685547,0.87207-1.685547,2.394531
		C45.228649,9.941755,45.819958,10.784529,46.869762,10.784529z"/>
	<path fill="#00557C" d="M52.058727,2.51988c0-0.577148,0.443359-0.976562,1.049805-0.976562
		c0.605957,0,1.049805,0.399414,1.049805,0.976562c0,0.561523-0.443848,0.960938-1.049805,0.960938
		C52.502087,3.480818,52.058727,3.081404,52.058727,2.51988z M52.25111,4.752302h1.700195v7.259766H52.25111V4.752302z"/>
	<path fill="#00557C" d="M56.124157,4.752302h1.404297l0.118652,0.975586h0.059082
		c0.650391-0.635742,1.389648-1.15332,2.380371-1.15332c1.552246,0,2.232422,1.049805,2.232422,2.883789v4.553711h-1.700195
		V7.680037c0-1.198242-0.339844-1.641602-1.138672-1.641602c-0.635742,0-1.049805,0.310547-1.655762,0.902344v5.071289h-1.700195
		V4.752302z"/>
	<path fill="#00557C" d="M64.950333,11.77574v-0.05957c-0.369629-0.236328-0.650391-0.621094-0.650391-1.211914
		c0-0.5625,0.384277-1.049805,0.79834-1.345703v-0.05957c-0.488281-0.369141-0.946289-1.064453-0.946289-1.921875
		c0-1.670898,1.345215-2.602539,2.868164-2.602539c0.399414,0,0.769043,0.074219,1.064941,0.177734h2.602051v1.256836h-1.330566
		c0.236328,0.28125,0.414063,0.724609,0.414063,1.227539c0,1.611328-1.212402,2.46875-2.750488,2.46875
		c-0.310547,0-0.665039-0.05957-0.990723-0.192383c-0.22168,0.192383-0.354492,0.370117-0.354492,0.695313
		c0,0.414063,0.29541,0.665039,1.182617,0.665039h1.286621c1.744629,0,2.661133,0.532227,2.661133,1.789063
		c0,1.43457-1.507813,2.558594-3.873535,2.558594c-1.72998,0-3.016605-0.621094-3.016605-1.892578
		C63.915173,12.722029,64.284805,12.189802,64.950333,11.77574z M67.197891,14.111677
		c1.167969,0,1.966309-0.546875,1.966309-1.167969c0-0.561523-0.458496-0.724609-1.286133-0.724609h-0.990723
		c-0.399414,0-0.709961-0.029297-0.990723-0.103516c-0.384277,0.295898-0.562012,0.621094-0.562012,0.960938
		C65.33461,13.726912,66.044571,14.111677,67.197891,14.111677z M68.276993,7.177107c0-0.902344-0.546875-1.43457-1.256836-1.43457
		c-0.709473,0-1.271484,0.517578-1.271484,1.43457c0,0.931641,0.562012,1.463867,1.271484,1.463867
		C67.715469,8.640974,68.276993,8.108747,68.276993,7.177107z"/>
</g>
</svg>
