<?xml version="1.0" encoding="utf-8"?>
<!-- Generator: Adobe Illustrator 21.1.0, SVG Export Plug-In . SVG Version: 6.00 Build 0)  -->
<svg version="1.1" id="Layer_1" xmlns="http://www.w3.org/2000/svg" xmlns:xlink="http://www.w3.org/1999/xlink" x="0px" y="0px"
	 viewBox="0 0 71.177956 16.299213" enable-background="new 0 0 71.177956 16.299213" xml:space="preserve">
<g>
	<g>
		<path fill="#00557C" d="M32.169785,1.575229h1.700195v8.664063c0,0.414063,0.192383,0.561523,0.369629,0.561523
			c0.07373,0,0.132813,0,0.266113-0.029297l0.22168,1.271484c-0.207031,0.088867-0.502441,0.148438-0.901855,0.148438
			c-1.212402,0-1.655762-0.78418-1.655762-2.041016V1.575229z"/>
		<path fill="#00557C" d="M39.147812,4.576206c1.818848,0,3.459961,1.389648,3.459961,3.81543
			c0,2.40918-1.641113,3.799805-3.459961,3.799805c-1.803711,0-3.444824-1.390625-3.444824-3.799805
			C35.702988,5.965854,37.344101,4.576206,39.147812,4.576206z M39.147812,10.800816c1.064453,0,1.715332-0.960938,1.715332-2.40918
			c0-1.463868-0.650879-2.425782-1.715332-2.425782s-1.700195,0.961914-1.700195,2.425782
			C37.447617,9.839878,38.083359,10.800816,39.147812,10.800816z"/>
		<path fill="#00557C" d="M47.456894,4.576206c0.931152,0,1.641113,0.370117,2.128906,0.842773l-0.812988,1.080078
			c-0.384766-0.34082-0.769043-0.533203-1.227539-0.533203c-1.167969,0-1.980957,0.961914-1.980957,2.425782
			c0,1.448242,0.79834,2.40918,1.937012,2.40918c0.591309,0,1.09375-0.294922,1.493164-0.620117l0.709473,1.079102
			c-0.679688,0.606445-1.552246,0.931641-2.380371,0.931641c-1.980957,0-3.503906-1.390625-3.503906-3.799805
			C43.819687,5.965854,45.519882,4.576206,47.456894,4.576206z"/>
		<path fill="#00557C" d="M54.937851,7.371128c-0.014648-0.768555-0.340332-1.419922-1.315918-1.419922
			c-0.724609,0-1.404785,0.325195-2.040527,0.709961l-0.621094-1.138672c0.79834-0.50293,1.818848-0.946289,2.972168-0.946289
			c1.818359,0,2.705566,1.109375,2.705566,3.134766v4.302735h-1.389648l-0.133301-0.798828h-0.044434
			c-0.650391,0.547852-1.389648,0.976563-2.24707,0.976563c-1.271973,0-2.158691-0.857422-2.158691-2.129883
			C50.664902,8.5098,51.965683,7.696323,54.937851,7.371128z M53.35582,10.860386c0.591309,0,1.049805-0.295898,1.582031-0.798828
			V8.435581c-1.966309,0.250977-2.617188,0.768555-2.617188,1.493164C52.320663,10.579136,52.749374,10.860386,53.35582,10.860386z"
			/>
		<path fill="#00557C" d="M58.958359,6.099643h-1.034668V4.828159l1.123535-0.074219l0.207031-1.981445h1.419434V4.75394h1.848145
			v1.345703h-1.848145v3.459961c0,0.857422,0.325195,1.271484,1.02002,1.271484c0.251465,0,0.547363-0.074219,0.754395-0.163086
			l0.29541,1.256836c-0.398926,0.132813-0.901855,0.266602-1.478516,0.266602c-1.685547,0-2.306641-1.064453-2.306641-2.631836
			V6.099643z"/>
		<path fill="#00557C" d="M66.764999,4.576206c1.966309,0,3.001465,1.419922,3.001465,3.445313
			c0,0.325195-0.029297,0.621094-0.07373,0.798828h-4.613281c0.147949,1.31543,0.976074,2.054688,2.144043,2.054688
			c0.621094,0,1.15332-0.192383,1.685547-0.532227l0.57666,1.064453c-0.694824,0.458984-1.567383,0.78418-2.483887,0.78418
			c-2.01123,0-3.578125-1.405273-3.578125-3.799805C63.423691,6.025424,65.064804,4.576206,66.764999,4.576206z M68.287949,7.740268
			c0-1.15332-0.487793-1.847656-1.478516-1.847656c-0.857422,0-1.59668,0.635742-1.744629,1.847656H68.287949z"/>
	</g>
</g>
<polygon fill="#3488AD" points="1.411487,14.113656 16.069107,14.113656 14.847722,11.99808 5.07572,11.99808 9.96043,3.535778 
	8.739044,1.420202 "/>
<path fill="#3488AD" d="M18.508394,1.420202l7.321011,12.693454l1.235779-2.115576l-1.221386-2.115576l3.663671-6.346726
	l-1.221386-2.115576H18.508394z M27.064661,3.535778l-2.453682,4.230394l-2.43837-4.230393L27.064661,3.535778z"/>
<polygon fill="#3488AD" points="11.182926,1.420202 16.068563,1.420202 17.289949,3.535778 14.84714,3.535778 17.285511,7.766171 
	18.515196,5.651608 19.737455,7.766679 18.51833,9.882504 19.739716,11.99808 18.503937,14.113656 "/>
</svg>
