<?xml version="1.0" encoding="utf-8"?>
<!-- Generator: Adobe Illustrator 21.1.0, SVG Export Plug-In . SVG Version: 6.00 Build 0)  -->
<svg version="1.1" id="Layer_1" xmlns="http://www.w3.org/2000/svg" xmlns:xlink="http://www.w3.org/1999/xlink" x="0px" y="0px"
	 viewBox="0 0 69.703934 16.299213" enable-background="new 0 0 69.703934 16.299213" xml:space="preserve">
<polygon fill="#3488AD" points="8.752772,14.108479 12.41702,7.761753 11.195629,5.646177 8.752735,9.877329 5.088488,3.530601 
	14.859914,3.530601 16.081343,1.415026 1.424203,1.415026 "/>
<polygon fill="#3488AD" points="20.967056,14.10861 19.745628,11.993034 14.859914,11.993034 19.745628,3.530601 
	18.524199,1.415025 11.195629,14.10861 "/>
<g>
	<path fill="#00557C" d="M26.395945,4.570868c1.818848,0,3.459961,1.389648,3.459961,3.81543
		c0,2.40918-1.641113,3.799805-3.459961,3.799805c-1.803711,0-3.444824-1.390625-3.444824-3.799805
		C22.95112,5.960516,24.592234,4.570868,26.395945,4.570868z M26.395945,10.795477c1.064453,0,1.715332-0.960938,1.715332-2.40918
		c0-1.463867-0.650879-2.425781-1.715332-2.425781s-1.700195,0.961914-1.700195,2.425781
		C24.695749,9.834539,25.331491,10.795477,26.395945,10.795477z"/>
	<path fill="#00557C" d="M31.540964,1.569891h1.700193v2.69043l-0.044434,1.212891
		c0.606445-0.532227,1.360352-0.902344,2.099609-0.902344c1.818848,0,2.868652,1.449219,2.868652,3.681641
		c0,2.499023-1.493652,3.933594-3.105469,3.933594c-0.665039,0-1.375-0.325195-1.980957-0.916992h-0.044434l-0.147949,0.739258
		h-1.345213V1.569891z M34.705025,10.780828c0.960938,0,1.700195-0.857422,1.700195-2.498047
		c0-1.449219-0.473145-2.306641-1.567383-2.306641c-0.532227,0-1.034668,0.265625-1.59668,0.8125v3.386719
		C33.758736,10.618719,34.276314,10.780828,34.705025,10.780828z"/>
	<path fill="#00557C" d="M39.89399,4.748602h1.714844v7.629883c0,1.537109-0.591309,2.675781-2.306152,2.675781
		c-0.532715,0-0.902344-0.088867-1.183105-0.192383l0.325195-1.271484c0.192383,0.05957,0.399414,0.118164,0.621094,0.118164
		c0.650391,0,0.828125-0.458008,0.828125-1.300781V4.748602z M39.701607,2.51618c0-0.577148,0.458496-0.976562,1.049805-0.976562
		c0.606445,0,1.064453,0.399414,1.064453,0.976562c0,0.561523-0.458008,0.960938-1.064453,0.960938
		C40.160103,3.477117,39.701607,3.077703,39.701607,2.51618z"/>
	<path fill="#00557C" d="M46.635689,4.570868c1.966309,0,3.001465,1.419922,3.001465,3.445313
		c0,0.325195-0.029297,0.621094-0.07373,0.798828h-4.613281c0.147949,1.31543,0.976074,2.054688,2.144043,2.054688
		c0.621094,0,1.15332-0.192383,1.685547-0.532227l0.57666,1.064453c-0.694824,0.458984-1.567383,0.78418-2.483887,0.78418
		c-2.01123,0-3.578125-1.405273-3.578125-3.799805C43.29438,6.020086,44.935493,4.570868,46.635689,4.570868z M48.158638,7.73493
		c0-1.15332-0.487793-1.847656-1.478516-1.847656c-0.857422,0-1.59668,0.635742-1.744629,1.847656H48.158638z"/>
	<path fill="#00557C" d="M54.426704,4.570868c0.931152,0,1.641113,0.370117,2.128906,0.842773l-0.812988,1.080078
		c-0.384766-0.34082-0.769043-0.533203-1.227539-0.533203c-1.167969,0-1.980957,0.961914-1.980957,2.425781
		c0,1.448242,0.79834,2.40918,1.937012,2.40918c0.591309,0,1.09375-0.294922,1.493164-0.620117l0.709473,1.079102
		c-0.679688,0.606445-1.552246,0.931641-2.380371,0.931641c-1.981445,0-3.503906-1.390625-3.503906-3.799805
		C50.789497,5.960516,52.489693,4.570868,54.426704,4.570868z"/>
	<path fill="#00557C" d="M58.344185,6.094305h-1.034668V4.822821l1.123535-0.074219l0.207031-1.981446h1.419434v1.981446h1.848145
		v1.345703h-1.848145v3.459961c0,0.857422,0.325195,1.271484,1.02002,1.271484c0.251465,0,0.547363-0.074219,0.754395-0.163086
		l0.29541,1.256836c-0.398926,0.132813-0.901855,0.266602-1.478516,0.266602c-1.685547,0-2.306641-1.064453-2.306641-2.631836
		V6.094305z"/>
	<path fill="#00557C" d="M63.503853,10.086493c0.650391,0.50293,1.271484,0.8125,2.010742,0.8125
		c0.783691,0,1.15332-0.369141,1.15332-0.87207c0-0.606445-0.783691-0.87207-1.552246-1.167969
		c-0.961426-0.354492-2.040527-0.902344-2.040527-2.114258c0-1.271484,1.02002-2.173828,2.646484-2.173828
		c1.005371,0,1.818848,0.414063,2.410156,0.873047l-0.783691,1.03418C66.845161,6.108953,66.328072,5.857,65.751411,5.857
		c-0.724609,0-1.064941,0.34082-1.064941,0.798828c0,0.561523,0.724609,0.798828,1.508301,1.079102
		c0.990723,0.370117,2.084961,0.842773,2.084961,2.203125c0,1.242188-0.990723,2.248047-2.824219,2.248047
		c-0.990723,0-2.040527-0.428711-2.75-1.005859L63.503853,10.086493z"/>
</g>
</svg>
