<?xml version="1.0" encoding="utf-8"?>
<!-- Generator: Adobe Illustrator 21.1.0, SVG Export Plug-In . SVG Version: 6.00 Build 0)  -->
<svg version="1.1" id="Layer_1" xmlns="http://www.w3.org/2000/svg" xmlns:xlink="http://www.w3.org/1999/xlink" x="0px" y="0px"
	 viewBox="0 0 68.343307 16.299213" enable-background="new 0 0 68.343307 16.299213" xml:space="preserve">
<g>
	<g>
		<path fill="#00557C" d="M36.1343,7.371374c-0.014648-0.768555-0.340332-1.419922-1.315918-1.419922
			c-0.724609,0-1.404785,0.325195-2.040527,0.709961l-0.621094-1.138672c0.79834-0.50293,1.818848-0.946289,2.972168-0.946289
			c1.818359,0,2.705566,1.109375,2.705566,3.134766v4.302735h-1.389648l-0.133301-0.798828h-0.044434
			c-0.650391,0.547852-1.389648,0.976563-2.24707,0.976563c-1.271973,0-2.158693-0.857422-2.158693-2.129883
			C31.861349,8.510046,33.162132,7.696569,36.1343,7.371374z M34.552269,10.860632c0.591309,0,1.049805-0.295898,1.582031-0.798828
			V8.435827c-1.966309,0.250977-2.617188,0.768555-2.617188,1.493164C33.517113,10.579382,33.945824,10.860632,34.552269,10.860632z
			"/>
		<path fill="#00557C" d="M39.97805,10.092077c0.650391,0.50293,1.271484,0.8125,2.010742,0.8125
			c0.783691,0,1.15332-0.369141,1.15332-0.87207c0-0.606445-0.783691-0.87207-1.552246-1.167969
			c-0.961426-0.354492-2.040527-0.902344-2.040527-2.114258c0-1.271484,1.02002-2.173828,2.646484-2.173828
			c1.005371,0,1.818848,0.414063,2.410156,0.873047l-0.783691,1.03418c-0.50293-0.369141-1.02002-0.621094-1.59668-0.621094
			c-0.724609,0-1.064941,0.34082-1.064941,0.798828c0,0.561523,0.724609,0.798828,1.508301,1.079102
			c0.990723,0.370118,2.084961,0.842774,2.084961,2.203125c0,1.242188-0.990723,2.248047-2.824219,2.248047
			c-0.990723,0-2.040527-0.428711-2.75-1.005859L39.97805,10.092077z"/>
		<path fill="#00557C" d="M46.350121,10.092077c0.650391,0.50293,1.271484,0.8125,2.010742,0.8125
			c0.783691,0,1.15332-0.369141,1.15332-0.87207c0-0.606445-0.783691-0.87207-1.552246-1.167969
			C47.000511,8.510046,45.92141,7.962194,45.92141,6.75028c0-1.271484,1.02002-2.173828,2.646484-2.173828
			c1.005371,0,1.818848,0.414063,2.410156,0.873047l-0.783691,1.03418c-0.50293-0.369141-1.02002-0.621094-1.59668-0.621094
			c-0.724609,0-1.064941,0.34082-1.064941,0.798828c0,0.561523,0.724609,0.798828,1.508301,1.079102
			c0.990723,0.370118,2.084961,0.842774,2.084961,2.203125c0,1.242188-0.990723,2.248047-2.824219,2.248047
			c-0.990723,0-2.040527-0.428711-2.75-1.005859L46.350121,10.092077z"/>
		<path fill="#00557C" d="M52.456078,2.521765c0-0.577148,0.443359-0.976563,1.049805-0.976563
			c0.605957,0,1.049797,0.399414,1.049797,0.976563c0,0.561523-0.44384,0.960938-1.049797,0.960938
			C52.899437,3.482702,52.456078,3.083288,52.456078,2.521765z M52.64846,4.754186h1.700195v7.259766H52.64846V4.754186z"/>
		<path fill="#00557C" d="M56.595238,10.092077c0.650391,0.50293,1.271484,0.8125,2.010742,0.8125
			c0.783691,0,1.15332-0.369141,1.15332-0.87207c0-0.606445-0.783691-0.87207-1.552246-1.167969
			c-0.961426-0.354492-2.040527-0.902344-2.040527-2.114258c0-1.271484,1.02002-2.173828,2.646484-2.173828
			c1.005371,0,1.818848,0.414063,2.410156,0.873047l-0.783691,1.03418c-0.50293-0.369141-1.02002-0.621094-1.59668-0.621094
			c-0.724609,0-1.064941,0.34082-1.064941,0.798828c0,0.561523,0.724609,0.798828,1.508301,1.079102
			c0.990723,0.370118,2.084961,0.842774,2.084961,2.203125c0,1.242188-0.990723,2.248047-2.824219,2.248047
			c-0.990723,0-2.040527-0.428711-2.75-1.005859L56.595238,10.092077z"/>
		<path fill="#00557C" d="M63.144554,6.099889h-1.034668V4.828405l1.123535-0.074219l0.207031-1.981445h1.419434v1.981445h1.848145
			v1.345703h-1.848145v3.459961c0,0.857422,0.325195,1.271484,1.02002,1.271484c0.251465,0,0.547363-0.074219,0.754395-0.163086
			l0.29541,1.256836c-0.398926,0.132813-0.901855,0.266602-1.478516,0.266602c-1.685547,0-2.306641-1.064453-2.306641-2.631836
			V6.099889z"/>
	</g>
</g>
<polygon fill="#3488AD" points="1.413598,14.113656 16.071218,14.113656 14.849833,11.99808 5.07783,11.99808 9.962542,3.535778 
	8.741156,1.420202 "/>
<path fill="#3488AD" d="M18.510506,1.420202l7.321011,12.693454l1.235779-2.115576l-1.221386-2.115576l3.663671-6.346726
	l-1.221386-2.115576H18.510506z M27.066771,3.535778l-2.45368,4.230394l-2.438372-4.230393L27.066771,3.535778z"/>
<polygon fill="#3488AD" points="11.185038,1.420202 16.070675,1.420202 17.292061,3.535778 14.849252,3.535778 17.287621,7.766171 
	18.517307,5.651608 19.739565,7.766679 18.520441,9.882504 19.741827,11.99808 18.506048,14.113656 "/>
</svg>
