<?xml version="1.0" encoding="utf-8"?>
<!-- Generator: Adobe Illustrator 21.1.0, SVG Export Plug-In . SVG Version: 6.00 Build 0)  -->
<svg version="1.1" id="Layer_1" xmlns="http://www.w3.org/2000/svg" xmlns:xlink="http://www.w3.org/1999/xlink" x="0px" y="0px"
	 viewBox="0 0 72.680313 16.299213" enable-background="new 0 0 72.680313 16.299213" xml:space="preserve">
<polygon fill="#3488AD" points="8.74023,14.112023 12.404476,7.765296 11.183085,5.649721 8.740192,9.880872 5.075945,3.534145 
	14.847371,3.534145 16.068798,1.418569 1.41166,1.418569 "/>
<polygon fill="#3488AD" points="20.954512,14.112153 19.733084,11.996577 14.847371,11.996577 19.733084,3.534145 
	18.511656,1.418569 11.183086,14.112153 "/>
<g>
	<path fill="#00557C" d="M26.383402,4.574979c1.818848,0,3.459961,1.389648,3.459961,3.81543
		c0,2.40918-1.641113,3.799805-3.459961,3.799805c-1.803711,0-3.444824-1.390625-3.444824-3.799805
		C22.938578,5.964628,24.579691,4.574979,26.383402,4.574979z M26.383402,10.799589c1.064453,0,1.715332-0.960938,1.715332-2.40918
		c0-1.463868-0.650879-2.425782-1.715332-2.425782s-1.700195,0.961914-1.700195,2.425782
		C24.683207,9.838652,25.318949,10.799589,26.383402,10.799589z"/>
	<path fill="#00557C" d="M33.228615,12.604277v2.276367h-1.700193V4.752714h1.404295l0.118652,0.768555h0.059082
		c0.605957-0.517578,1.389648-0.946289,2.187988-0.946289c1.804199,0,2.854004,1.449219,2.854004,3.69629
		c0,2.484375-1.493652,3.918945-3.105469,3.918945c-0.635742,0-1.271484-0.295898-1.862793-0.798828L33.228615,12.604277z
		 M34.692482,10.784941c0.960938,0,1.700195-0.857422,1.700195-2.498047c0-1.449219-0.473145-2.306641-1.567383-2.306641
		c-0.532227,0-1.034668,0.265625-1.59668,0.8125v3.386719C33.760841,10.622831,34.263771,10.784941,34.692482,10.784941z"/>
	<path fill="#00557C" d="M42.734962,4.574979c1.966797,0,3.001465,1.419922,3.001465,3.445313
		c0,0.325195-0.029297,0.621094-0.07373,0.798828h-4.613281c0.147949,1.31543,0.976074,2.054688,2.144043,2.054688
		c0.621094,0,1.15332-0.192383,1.685547-0.532227l0.57666,1.064453c-0.694824,0.458984-1.567383,0.78418-2.483887,0.78418
		c-2.01123,0-3.578125-1.405273-3.578125-3.799805C39.393654,6.024198,41.034767,4.574979,42.734962,4.574979z M44.257912,7.739042
		c0-1.15332-0.487793-1.847656-1.478516-1.847656c-0.857422,0-1.59668,0.635742-1.744629,1.847656H44.257912z"/>
	<path fill="#00557C" d="M47.362404,4.752714h1.404297l0.118652,1.286133h0.059082
		c0.51709-0.946289,1.286133-1.463867,2.055176-1.463867c0.369629,0,0.605957,0.044922,0.827637,0.148438l-0.29541,1.478516
		c-0.251465-0.074219-0.443848-0.118164-0.753906-0.118164c-0.57666,0-1.271973,0.398438-1.715332,1.493164v4.435547h-1.700195
		V4.752714z"/>
	<path fill="#00557C" d="M56.440041,7.369901c-0.014648-0.768555-0.340332-1.419922-1.315918-1.419922
		c-0.724609,0-1.404785,0.325195-2.040527,0.709961l-0.621094-1.138672c0.79834-0.50293,1.818848-0.946289,2.972168-0.946289
		c1.818359,0,2.705566,1.109375,2.705566,3.134766v4.302735h-1.389648l-0.133301-0.798828h-0.044434
		c-0.650391,0.547852-1.389648,0.976563-2.24707,0.976563c-1.271484,0-2.158691-0.857422-2.158691-2.129883
		C52.167091,8.508574,53.467873,7.695096,56.440041,7.369901z M54.858009,10.859159c0.591309,0,1.049805-0.295898,1.582031-0.798828
		V8.434355c-1.966797,0.250977-2.617188,0.768555-2.617188,1.493164C53.822853,10.577909,54.251564,10.859159,54.858009,10.859159z"
		/>
	<path fill="#00557C" d="M60.460548,6.098417H59.42588V4.826932l1.123535-0.074219l0.207031-1.981445h1.419434v1.981445h1.848145
		v1.345703H62.17588v3.459961c0,0.857422,0.325195,1.271484,1.02002,1.271484c0.251465,0,0.547363-0.074219,0.754395-0.163086
		l0.29541,1.256836c-0.398926,0.132813-0.901855,0.266602-1.478516,0.266602c-1.685547,0-2.306641-1.064453-2.306641-2.631836
		V6.098417z"/>
	<path fill="#00557C" d="M68.267189,4.574979c1.966797,0,3.001465,1.419922,3.001465,3.445313
		c0,0.325195-0.029297,0.621094-0.07373,0.798828h-4.613281c0.147949,1.31543,0.976074,2.054688,2.144043,2.054688
		c0.621094,0,1.15332-0.192383,1.685547-0.532227l0.57666,1.064453c-0.694824,0.458984-1.567383,0.78418-2.483887,0.78418
		c-2.01123,0-3.578125-1.405273-3.578125-3.799805C64.92588,6.024198,66.566994,4.574979,68.267189,4.574979z M69.790138,7.739042
		c0-1.15332-0.487793-1.847656-1.478516-1.847656c-0.857422,0-1.59668,0.635742-1.744629,1.847656H69.790138z"/>
</g>
</svg>
