<?xml version="1.0" encoding="utf-8"?>
<!-- Generator: Adobe Illustrator 21.1.0, SVG Export Plug-In . SVG Version: 6.00 Build 0)  -->
<svg version="1.1" id="Layer_1" xmlns="http://www.w3.org/2000/svg" xmlns:xlink="http://www.w3.org/1999/xlink" x="0px" y="0px"
	 viewBox="0 0 71.943306 16.299213" enable-background="new 0 0 71.943306 16.299213" xml:space="preserve">
<polygon fill="#3488AD" points="8.748922,14.113591 12.41317,7.766864 11.191779,5.651289 8.748885,9.88244 5.084638,3.535713 
	14.856064,3.535713 16.077492,1.420137 1.420353,1.420137 "/>
<polygon fill="#3488AD" points="20.963205,14.113721 19.741777,11.998145 14.856064,11.998145 19.741777,3.535713 
	18.52035,1.420137 11.191779,14.113721 "/>
<g>
	<path fill="#00557C" d="M23.420414,1.575163h1.700195v2.69043l-0.059082,1.405273
		c0.605957-0.577148,1.330566-1.094727,2.321289-1.094727c1.552246,0,2.232422,1.049805,2.232422,2.883789v4.553711h-1.700195
		V7.681608c0-1.198242-0.339844-1.641602-1.138672-1.641602c-0.635742,0-1.049805,0.310547-1.655762,0.902344v5.07129h-1.700195
		V1.575163z"/>
	<path fill="#00557C" d="M31.477543,2.521452c0-0.577149,0.443359-0.976563,1.049805-0.976563
		c0.605957,0,1.049805,0.399414,1.049805,0.976563c0,0.561523-0.443848,0.960938-1.049805,0.960938
		C31.920902,3.482389,31.477543,3.082975,31.477543,2.521452z M31.669926,4.753873h1.700195v7.259766h-1.700195V4.753873z"/>
	<path fill="#00557C" d="M35.543461,4.753873h1.404297l0.118164,0.990234h0.05957
		c0.605957-0.650391,1.315918-1.167969,2.217773-1.167969c1.064453,0,1.670898,0.488281,2.010742,1.301758
		c0.694824-0.739258,1.419434-1.301758,2.335938-1.301758c1.538086,0,2.247559,1.049805,2.247559,2.883789v4.553711H44.22266
		V7.681608c0-1.198242-0.35498-1.641602-1.108887-1.641602c-0.458496,0-0.961426,0.295898-1.522949,0.902344v5.07129h-1.700684
		V7.681608c0-1.198242-0.35498-1.641602-1.123535-1.641602c-0.443848,0-0.960938,0.295898-1.522949,0.902344v5.07129h-1.700195
		V4.753873z"/>
	<path fill="#00557C" d="M48.00684,4.753873h1.404297l0.118652,0.990234h0.059082
		c0.605957-0.650391,1.315918-1.167969,2.217773-1.167969c1.064453,0,1.670898,0.488281,2.010742,1.301758
		c0.694824-0.739258,1.419434-1.301758,2.336426-1.301758c1.537598,0,2.24707,1.049805,2.24707,2.883789v4.553711h-1.714844
		V7.681608c0-1.198242-0.35498-1.641602-1.108887-1.641602c-0.458496,0-0.961426,0.295898-1.522949,0.902344v5.07129h-1.700684
		V7.681608c0-1.198242-0.35498-1.641602-1.123535-1.641602c-0.443848,0-0.960938,0.295898-1.522949,0.902344v5.07129H48.00684
		V4.753873z"/>
	<path fill="#00557C" d="M63.337894,4.576139c1.966312,0,3.001469,1.419922,3.001469,3.445313
		c0,0.325195-0.029297,0.621094-0.07373,0.798828h-4.613285c0.147949,1.31543,0.976074,2.054688,2.144043,2.054688
		c0.621098,0,1.153324-0.192383,1.685551-0.532227l0.57666,1.064453c-0.694824,0.458984-1.567383,0.78418-2.483891,0.78418
		c-2.01123,0-3.578125-1.405273-3.578125-3.799805C59.996586,6.025358,61.637699,4.576139,63.337894,4.576139z M64.860847,7.740201
		c0-1.15332-0.487793-1.847656-1.478519-1.847656c-0.857422,0-1.59668,0.635742-1.744629,1.847656H64.860847z"/>
	<path fill="#00557C" d="M67.96534,1.575163h1.700195v8.664063c0,0.414063,0.192383,0.561523,0.369629,0.561523
		c0.07373,0,0.132813,0,0.266113-0.029297l0.22168,1.271484c-0.207031,0.088867-0.502441,0.148438-0.901855,0.148438
		c-1.212402,0-1.655762-0.78418-1.655762-2.041016V1.575163z"/>
</g>
</svg>
