<?xml version="1.0" encoding="utf-8"?>
<!-- Generator: Adobe Illustrator 21.1.0, SVG Export Plug-In . SVG Version: 6.00 Build 0)  -->
<svg version="1.1" id="Layer_1" xmlns="http://www.w3.org/2000/svg" xmlns:xlink="http://www.w3.org/1999/xlink" x="0px" y="0px"
	 viewBox="0 0 76.648819 16.299213" enable-background="new 0 0 76.648819 16.299213" xml:space="preserve">
<g>
	<g>
		<path fill="#00557C" d="M35.038277,4.574696c1.966797,0,3.001465,1.419922,3.001465,3.445313
			c0,0.325195-0.029297,0.621094-0.07373,0.798828H33.35273c0.147949,1.31543,0.976074,2.054688,2.144043,2.054688
			c0.621094,0,1.15332-0.192383,1.685547-0.532227l0.57666,1.064453c-0.694824,0.458984-1.567383,0.78418-2.483887,0.78418
			c-2.01123,0-3.578125-1.405273-3.578125-3.799805C31.696968,6.023914,33.338081,4.574696,35.038277,4.574696z M36.561226,7.738758
			c0-1.15332-0.487793-1.847656-1.478516-1.847656c-0.857422,0-1.59668,0.635742-1.744629,1.847656H36.561226z"/>
		<path fill="#00557C" d="M40.922554,8.227039L38.763863,4.75243h1.833496l0.812988,1.375
			c0.207031,0.399414,0.443848,0.828125,0.665527,1.227539h0.059082c0.177246-0.399414,0.384277-0.828125,0.562012-1.227539
			l0.694824-1.375h1.759277l-2.144043,3.666992l2.306641,3.592773h-1.833496l-0.886719-1.43457
			c-0.236816-0.428711-0.488281-0.87207-0.739258-1.286133h-0.05957c-0.207031,0.414063-0.428711,0.842773-0.635742,1.286133
			l-0.768555,1.43457h-1.774414L40.922554,8.227039z"/>
		<path fill="#00557C" d="M48.299507,12.603992v2.276367h-1.700195V4.75243h1.404297l0.118652,0.768555h0.059082
			c0.605957-0.517578,1.389648-0.946289,2.187988-0.946289c1.804199,0,2.854004,1.449219,2.854004,3.696289
			c0,2.484375-1.493652,3.918945-3.105469,3.918945c-0.635742,0-1.271484-0.295898-1.862793-0.798828L48.299507,12.603992z
			 M49.763374,10.784657c0.960938,0,1.700195-0.857422,1.700195-2.498047c0-1.449219-0.473145-2.306641-1.567383-2.306641
			c-0.532227,0-1.034668,0.265625-1.59668,0.8125v3.386719C48.831734,10.622547,49.334663,10.784657,49.763374,10.784657z"/>
		<path fill="#00557C" d="M57.90937,4.574696c1.818848,0,3.459961,1.389648,3.459961,3.81543
			c0,2.40918-1.641113,3.799805-3.459961,3.799805c-1.803711,0-3.444824-1.390625-3.444824-3.799805
			C54.464546,5.964344,56.105659,4.574696,57.90937,4.574696z M57.90937,10.799305c1.064453,0,1.715332-0.960938,1.715332-2.40918
			c0-1.463867-0.650879-2.425781-1.715332-2.425781s-1.700195,0.961914-1.700195,2.425781
			C56.209175,9.838367,56.844917,10.799305,57.90937,10.799305z"/>
		<path fill="#00557C" d="M63.069038,10.090321c0.650391,0.50293,1.271484,0.8125,2.010742,0.8125
			c0.783691,0,1.15332-0.369141,1.15332-0.87207c0-0.606445-0.783691-0.87207-1.552246-1.167969
			c-0.961426-0.354492-2.040527-0.902344-2.040527-2.114258c0-1.271484,1.02002-2.173828,2.646484-2.173828
			c1.005371,0,1.818848,0.414063,2.410156,0.873047l-0.783691,1.03418c-0.50293-0.369141-1.02002-0.621094-1.59668-0.621094
			c-0.724609,0-1.064941,0.34082-1.064941,0.798828c0,0.561523,0.724609,0.798828,1.508301,1.079102
			c0.990723,0.370117,2.084961,0.842773,2.084961,2.203125c0,1.242188-0.990723,2.248047-2.824219,2.248047
			c-0.990723,0-2.040527-0.428711-2.75-1.005859L63.069038,10.090321z"/>
		<path fill="#00557C" d="M72.235542,4.574696c1.966797,0,3.001465,1.419922,3.001465,3.445313
			c0,0.325195-0.029297,0.621094-0.07373,0.798828h-4.613281c0.147949,1.31543,0.976074,2.054688,2.144043,2.054688
			c0.621094,0,1.15332-0.192383,1.685547-0.532227l0.57666,1.064453c-0.694824,0.458984-1.567383,0.78418-2.483887,0.78418
			c-2.01123,0-3.578125-1.405273-3.578125-3.799805C68.894234,6.023914,70.535347,4.574696,72.235542,4.574696z M73.758492,7.738758
			c0-1.15332-0.487793-1.847656-1.478516-1.847656c-0.857422,0-1.59668,0.635742-1.744629,1.847656H73.758492z"/>
	</g>
</g>
<polygon fill="#3488AD" points="1.411813,14.112308 16.069433,14.112308 14.848047,11.996732 5.076045,11.996732 9.960756,3.534429 
	8.73937,1.418853 "/>
<path fill="#3488AD" d="M18.50872,1.418853l7.321011,12.693454l1.235779-2.115575l-1.221386-2.115576l3.663671-6.346727
	l-1.221386-2.115576H18.50872z M27.064985,3.534429l-2.45368,4.230394l-2.43837-4.230393L27.064985,3.534429z"/>
<polygon fill="#3488AD" points="11.183252,1.418853 16.06889,1.418853 17.290276,3.534429 14.847466,3.534429 17.285837,7.764822 
	18.515522,5.650259 19.737782,7.76533 18.518656,9.881156 19.740042,11.996732 18.504263,14.112307 "/>
</svg>
