<?xml version="1.0" encoding="utf-8"?>
<!-- Generator: Adobe Illustrator 21.1.0, SVG Export Plug-In . SVG Version: 6.00 Build 0)  -->
<svg version="1.1" id="Layer_1" xmlns="http://www.w3.org/2000/svg" xmlns:xlink="http://www.w3.org/1999/xlink" x="0px" y="0px"
	 viewBox="0 0 63.552757 16.299213" enable-background="new 0 0 63.552757 16.299213" xml:space="preserve">
<polygon fill="#3488AD" points="8.745053,14.113591 12.409301,7.766864 11.18791,5.651289 8.745016,9.88244 5.080769,3.535713 
	14.852195,3.535713 16.073624,1.420137 1.416484,1.420137 "/>
<polygon fill="#3488AD" points="20.959335,14.113721 19.737907,11.998145 14.852195,11.998145 19.737907,3.535713 
	18.516479,1.420137 11.18791,14.113721 "/>
<g>
	<path fill="#00557C" d="M23.416546,1.574754h1.67041v6.521485h0.044434l2.690918-3.341797h1.863281l-2.483887,2.957031
		l2.735352,4.302735h-1.848633l-1.862793-3.150391l-1.138672,1.300781v1.849609h-1.67041V1.574754z"/>
	<path fill="#00557C" d="M33.662151,4.576707c1.966309,0,3.001465,1.419922,3.001465,3.445313
		c0,0.324219-0.029297,0.621094-0.07373,0.798828h-4.613281c0.147949,1.314453,0.976074,2.054688,2.144043,2.054688
		c0.621094,0,1.15332-0.193359,1.685547-0.533203l0.57666,1.064453c-0.694824,0.458984-1.567383,0.785156-2.483887,0.785156
		c-2.01123,0-3.578125-1.40625-3.578125-3.800781C30.320843,6.025926,31.961956,4.576707,33.662151,4.576707z M35.185101,7.74077
		c0-1.154297-0.487793-1.847656-1.478516-1.847656c-0.857422,0-1.59668,0.634766-1.744629,1.847656H35.185101z"/>
	<path fill="#00557C" d="M38.289593,4.754442h1.404297l0.118164,1.285156h0.05957
		c0.51709-0.945313,1.286133-1.462891,2.055176-1.462891c0.369629,0,0.605957,0.044922,0.827637,0.148438l-0.29541,1.478516
		c-0.251465-0.074219-0.443848-0.119141-0.754395-0.119141c-0.576172,0-1.271484,0.398438-1.714844,1.494141v4.435547h-1.700195
		V4.754442z"/>
	<path fill="#00557C" d="M43.803753,4.754442h1.404297l0.118652,0.974609h0.059082
		c0.650391-0.634766,1.389648-1.152344,2.380371-1.152344c1.552246,0,2.232422,1.048828,2.232422,2.882813v4.554688h-1.700195
		V7.682176c0-1.199219-0.339844-1.642578-1.138672-1.642578c-0.635742,0-1.049805,0.310547-1.655762,0.902344v5.072266h-1.700195
		V4.754442z"/>
	<path fill="#00557C" d="M54.951214,4.576707c1.966309,0,3.001465,1.419922,3.001465,3.445313
		c0,0.324219-0.029297,0.621094-0.07373,0.798828h-4.613281c0.147949,1.314453,0.976074,2.054688,2.144043,2.054688
		c0.621094,0,1.15332-0.193359,1.685547-0.533203l0.57666,1.064453c-0.694824,0.458984-1.567383,0.785156-2.483887,0.785156
		c-2.01123,0-3.578125-1.40625-3.578125-3.800781C51.609905,6.025926,53.251019,4.576707,54.951214,4.576707z M56.474163,7.74077
		c0-1.154297-0.487793-1.847656-1.478516-1.847656c-0.857422,0-1.59668,0.634766-1.744629,1.847656H56.474163z"/>
	<path fill="#00557C" d="M59.578655,1.574754h1.700195v8.664063c0,0.414063,0.192383,0.5625,0.369629,0.5625
		c0.07373,0,0.132813,0,0.266113-0.029297l0.22168,1.271484c-0.207031,0.087891-0.502441,0.148438-0.901855,0.148438
		c-1.212402,0-1.655762-0.785156-1.655762-2.041016V1.574754z"/>
</g>
</svg>
