<?xml version="1.0" encoding="utf-8"?>
<!-- Generator: Adobe Illustrator 21.1.0, SVG Export Plug-In . SVG Version: 6.00 Build 0)  -->
<svg version="1.1" id="Layer_1" xmlns="http://www.w3.org/2000/svg" xmlns:xlink="http://www.w3.org/1999/xlink" x="0px" y="0px"
	 viewBox="0 0 43.029922 16.299213" enable-background="new 0 0 43.029922 16.299213" xml:space="preserve">
<g>
	<g>
		<path fill="#00557C" d="M35.881416,2.946663c-0.266113-0.119141-0.546875-0.177734-0.79834-0.177734
			c-0.591309,0-0.916504,0.383789-0.916504,1.226563v0.78418h1.418945v1.345703h-1.418945v5.914063h-1.700684V6.125374h-0.975588
			V4.853889l0.975588-0.074219V4.025764c0-1.508789,0.694824-2.602539,2.410156-2.602539
			c0.517578,0,1.005371,0.118164,1.330566,0.250977L35.881416,2.946663z"/>
		<path fill="#00557C" d="M36.841866,10.117561c0.650391,0.50293,1.271484,0.8125,2.010742,0.8125
			c0.783691,0,1.15332-0.369141,1.15332-0.87207c0-0.606445-0.783691-0.87207-1.552246-1.167969
			c-0.961426-0.354492-2.040527-0.902344-2.040527-2.114258c0-1.271484,1.02002-2.173828,2.646484-2.173828
			c1.005371,0,1.818848,0.414063,2.410156,0.873047l-0.783691,1.03418c-0.50293-0.369141-1.02002-0.621094-1.59668-0.621094
			c-0.724609,0-1.064941,0.34082-1.064941,0.798828c0,0.561523,0.724609,0.798828,1.508301,1.079102
			c0.990723,0.370117,2.084961,0.842773,2.084961,2.203125c0,1.242188-0.990723,2.248047-2.824219,2.248047
			c-0.990723,0-2.040527-0.428711-2.75-1.005859L36.841866,10.117561z"/>
	</g>
</g>
<polygon fill="#3488AD" points="1.412178,14.138979 16.069799,14.138979 14.848413,12.023403 5.076411,12.023403 9.961122,3.561101 
	8.739736,1.445525 "/>
<path fill="#3488AD" d="M18.509087,1.445525l7.321011,12.693454l1.235779-2.115576L25.84449,9.907827l3.663671-6.346726
	l-1.221386-2.115576H18.509087z M27.065351,3.561101L24.61167,7.791494L22.1733,3.561101H27.065351z"/>
<polygon fill="#3488AD" points="11.183618,1.445525 16.069256,1.445525 17.290642,3.561101 14.847832,3.561101 17.286201,7.791494 
	18.515886,5.67693 19.738146,7.792002 18.51902,9.907827 19.740406,12.023403 18.504629,14.138979 "/>
</svg>
