<?xml version="1.0" encoding="utf-8"?>
<!-- Generator: Adobe Illustrator 21.1.0, SVG Export Plug-In . SVG Version: 6.00 Build 0)  -->
<svg version="1.1" id="Layer_1" xmlns="http://www.w3.org/2000/svg" xmlns:xlink="http://www.w3.org/1999/xlink" x="0px" y="0px"
	 viewBox="0 0 47.310238 16.299213" enable-background="new 0 0 47.310238 16.299213" xml:space="preserve">
<polygon fill="#3488AD" points="8.747085,14.113591 12.411331,7.766864 11.18994,5.651289 8.747047,9.88244 5.0828,3.535713 
	14.854226,3.535713 16.075655,1.420137 1.418515,1.420137 "/>
<polygon fill="#3488AD" points="20.961367,14.113721 19.739939,11.998145 14.854226,11.998145 19.739939,3.535713 
	18.518511,1.420137 11.189941,14.113721 "/>
<g>
	<path fill="#00557C" d="M23.418577,4.754034h1.404297l0.118164,1.286133h0.05957
		c0.51709-0.946289,1.286133-1.463867,2.055176-1.463867c0.369629,0,0.605957,0.044922,0.827637,0.148438l-0.29541,1.478516
		c-0.251465-0.074219-0.443848-0.118164-0.754395-0.118164c-0.576172,0-1.271484,0.398438-1.714844,1.493164V12.0138h-1.700195
		V4.754034z"/>
	<path fill="#00557C" d="M32.496212,7.371221c-0.014648-0.768555-0.340332-1.419922-1.315916-1.419922
		c-0.724609,0-1.404785,0.325195-2.040527,0.709961l-0.621094-1.138672c0.79834-0.50293,1.818848-0.946289,2.972168-0.946289
		c1.818357,0,2.705564,1.109375,2.705564,3.134766V12.0138h-1.389648l-0.133301-0.798828h-0.044434
		c-0.650389,0.547852-1.389647,0.976563-2.247068,0.976563c-1.271973,0-2.158691-0.857422-2.158691-2.129883
		C28.223265,8.509893,29.524046,7.696416,32.496212,7.371221z M30.914183,10.860479c0.591309,0,1.049805-0.295898,1.582029-0.798828
		V8.435675c-1.966307,0.250977-2.617186,0.768555-2.617186,1.493164C29.879026,10.579229,30.307737,10.860479,30.914183,10.860479z"
		/>
	<path fill="#00557C" d="M35.541622,4.754034h1.714844l0.872559,3.770508c0.147949,0.694336,0.251465,1.375,0.384277,2.084961
		h0.059082c0.133301-0.709961,0.28125-1.405273,0.458496-2.084961l0.946289-3.770508h1.552734l0.960938,3.770508
		c0.177246,0.694336,0.325195,1.375,0.487793,2.084961h0.059082c0.133301-0.709961,0.251465-1.390625,0.384766-2.084961
		l0.87207-3.770508h1.597168L44.043087,12.0138h-2.025391l-0.842773-3.385742
		c-0.162598-0.680665-0.280762-1.345704-0.443848-2.114258h-0.059082c-0.132813,0.768555-0.266113,1.448242-0.428711,2.128907
		L39.415157,12.0138h-1.95166L35.541622,4.754034z"/>
</g>
</svg>
